<?xml version="1.0" standalone="no"?>
<!DOCTYPE svg PUBLIC "-//W3C//DTD SVG 20010904//EN"
 "http://www.w3.org/TR/2001/REC-SVG-20010904/DTD/svg10.dtd">
<svg version="1.0" xmlns="http://www.w3.org/2000/svg"
 width="1795.000000pt" height="1311.000000pt" viewBox="0 0 1795.000000 1311.000000"
 preserveAspectRatio="xMidYMid meet">
<metadata>
Created by potrace 1.16, written by Peter Selinger 2001-2019
</metadata>
<g transform="translate(0.000000,1311.000000) scale(0.100000,-0.100000)"
fill="#000000" stroke="none">
<path d="M4196 12628 c-17 -55 -36 -370 -55 -898 -8 -242 -38 -619 -52 -656
-7 -21 -9 -21 -96 -8 -220 33 -450 28 -679 -16 -254 -49 -403 -101 -547 -194
-31 -19 -68 -38 -82 -42 -36 -9 -199 -157 -257 -234 -27 -36 -66 -83 -87 -105
-21 -22 -62 -74 -91 -115 -29 -41 -66 -91 -81 -110 -15 -19 -39 -57 -54 -85
-15 -27 -33 -57 -40 -65 -13 -15 -51 -78 -97 -161 -13 -24 -37 -80 -52 -124
-15 -44 -34 -96 -42 -115 -9 -19 -19 -44 -24 -55 -4 -11 -15 -36 -23 -55 -37
-84 -112 -334 -127 -420 -4 -25 -15 -76 -24 -115 -21 -86 -35 -174 -46 -285
-9 -93 -22 -203 -47 -380 -9 -63 -18 -147 -20 -187 -3 -43 -11 -77 -19 -83 -7
-7 -53 -16 -101 -21 -48 -5 -124 -14 -168 -19 -44 -5 -271 -12 -505 -15 -234
-3 -468 -8 -520 -12 l-95 -6 60 -13 c33 -8 168 -21 300 -29 132 -9 287 -21
345 -26 58 -5 159 -13 225 -18 188 -15 325 -30 392 -43 l61 -11 -4 -76 c-3
-42 -9 -98 -14 -126 -5 -27 -14 -131 -21 -230 -6 -99 -15 -225 -19 -280 -35
-449 -36 -531 -31 -2220 1 -82 5 -190 11 -240 6 -49 15 -173 20 -275 24 -478
31 -584 40 -601 6 -10 10 -42 10 -73 0 -30 11 -130 24 -223 14 -92 32 -224 40
-293 8 -69 27 -168 41 -220 14 -52 37 -145 50 -207 13 -61 36 -140 51 -175 14
-35 34 -88 44 -119 32 -98 89 -231 124 -288 12 -20 31 -58 41 -86 43 -115 209
-369 342 -523 64 -73 74 -83 177 -159 128 -95 150 -110 206 -136 30 -14 66
-32 80 -40 73 -42 194 -82 305 -101 50 -8 133 -23 185 -33 128 -24 330 -22
520 6 79 12 165 28 190 35 80 25 234 82 275 103 22 12 83 43 135 70 52 27 124
61 160 77 35 16 83 40 105 55 22 15 76 47 120 71 81 43 105 59 211 139 166
126 419 390 531 553 32 46 70 100 84 119 36 47 119 206 119 228 0 10 6 34 14
52 8 19 24 81 36 139 11 58 24 112 27 120 24 58 34 155 43 425 5 165 14 419
19 565 5 146 14 411 20 590 6 179 16 435 21 570 15 362 13 685 -3 699 -9 7
-245 12 -773 17 -417 3 -813 9 -879 12 l-120 7 1 45 c3 117 16 312 25 375 21
144 47 293 70 410 16 80 62 258 94 360 7 22 18 60 25 85 22 79 76 178 154 285
74 99 137 160 237 227 130 87 388 164 578 171 l43 2 35 -90 c53 -136 153 -423
169 -485 9 -33 26 -67 44 -84 25 -25 37 -30 79 -30 60 0 93 25 123 93 18 39
20 72 24 329 3 177 8 290 15 297 8 8 205 25 309 26 54 1 139 -7 146 -13 3 -4
1 -195 -5 -425 -6 -230 -16 -650 -21 -933 -10 -477 -24 -1181 -50 -2380 -6
-267 -15 -657 -21 -868 -12 -376 -11 -384 8 -410 29 -39 74 -41 121 -6 20 16
102 94 182 174 222 223 402 391 680 634 229 200 453 420 517 506 63 85 78 152
48 210 -18 36 -52 44 -148 35 -60 -5 -78 -3 -107 13 -41 22 -95 105 -103 159
-4 21 -2 157 3 303 17 454 29 780 45 1200 14 379 20 549 45 1240 17 490 20
539 39 550 29 15 101 -1 149 -34 55 -38 112 -130 136 -218 106 -395 101 -349
98 -1038 -3 -758 8 -905 89 -1179 31 -102 101 -199 165 -226 56 -23 157 -29
195 -12 19 9 61 25 94 35 102 33 132 52 447 276 398 285 568 429 649 550 43
65 51 123 24 176 -28 53 -64 69 -182 81 -210 20 -303 65 -413 203 -48 61 -105
180 -128 271 -17 64 -60 244 -78 325 -9 41 -20 88 -25 104 -5 16 -9 45 -9 65
0 20 -7 59 -16 86 -8 28 -21 77 -29 110 -13 56 -19 81 -44 168 -5 17 -16 57
-24 87 -24 89 -129 320 -191 419 -121 192 -256 257 -515 250 -66 -2 -121 -1
-121 3 0 3 39 37 88 74 48 37 161 129 252 204 91 75 233 187 315 250 150 113
185 142 430 348 416 351 605 655 605 972 -1 190 -91 379 -238 496 -80 63 -238
156 -330 193 -42 17 -129 44 -192 60 -63 16 -135 37 -160 47 -30 11 -94 20
-190 25 -80 4 -185 13 -235 19 -115 15 -590 15 -810 0 -167 -11 -380 -21 -868
-39 -212 -9 -253 -13 -280 -28 -49 -29 -47 -64 6 -165 52 -96 75 -161 111
-308 53 -218 58 -298 47 -695 -6 -198 -16 -549 -21 -780 -13 -547 -29 -1038
-34 -1043 -3 -2 -67 1 -143 7 -77 6 -171 11 -210 11 -39 0 -78 3 -87 6 -15 6
-16 143 -16 1454 0 1606 4 1504 -65 1537 -51 24 -136 6 -212 -44 -75 -50 -196
-172 -295 -301 -56 -72 -83 -100 -91 -93 -218 177 -523 343 -783 426 -120 38
-111 25 -117 182 -8 217 -25 849 -32 1178 -4 170 -10 301 -16 303 -5 2 -11 -2
-13 -10z m-179 -1692 c240 -45 424 -104 627 -201 126 -60 188 -96 355 -207
187 -123 202 -122 332 32 156 185 266 288 329 309 54 18 63 -1 56 -119 -3 -52
-8 -813 -12 -1690 -6 -1655 -6 -1661 -46 -1792 -20 -67 -32 -51 -73 102 -35
129 -124 403 -155 475 -4 11 -29 76 -55 145 -26 69 -56 143 -65 165 -10 22
-30 69 -45 105 -15 36 -38 90 -52 120 -14 30 -32 71 -40 90 -96 215 -275 555
-421 800 -377 630 -783 1065 -1083 1157 -76 23 -182 21 -241 -5 -88 -39 -158
-120 -192 -222 -37 -113 -40 -137 -41 -390 -1 -140 -7 -617 -13 -1060 -7 -443
-17 -1183 -22 -1645 -6 -462 -15 -1159 -20 -1550 -18 -1285 -31 -2849 -25
-2910 3 -33 12 -103 20 -155 7 -52 19 -133 25 -180 23 -169 49 -256 123 -405
34 -68 81 -138 122 -180 41 -43 154 -129 209 -160 192 -107 397 -101 552 16
75 57 72 53 139 134 120 144 145 192 180 345 10 41 21 84 25 95 11 26 32 115
70 295 21 98 29 171 35 295 3 72 10 157 15 190 12 76 29 341 39 600 8 209 -1
579 -18 700 -6 39 -15 108 -22 155 -10 77 -28 155 -60 265 -19 68 -88 244
-119 305 -75 148 -192 300 -334 433 -54 51 -64 59 -241 188 -93 68 -110 84
-110 107 l0 27 70 -3 c161 -6 1276 -22 1597 -22 191 0 349 -3 351 -7 2 -5 1
-87 -4 -183 -8 -188 -24 -715 -40 -1400 -14 -606 -31 -929 -53 -997 -4 -11
-11 -49 -16 -84 -12 -83 -24 -141 -45 -209 -22 -73 -33 -113 -44 -154 -14 -54
-50 -126 -95 -186 -22 -30 -62 -86 -87 -125 -25 -38 -57 -82 -70 -96 -13 -15
-72 -80 -131 -146 -201 -224 -325 -320 -663 -512 -16 -10 -61 -30 -100 -46
-38 -17 -116 -54 -173 -83 -91 -47 -252 -108 -367 -140 -85 -23 -292 -44 -443
-45 -135 -1 -168 2 -237 22 -44 12 -109 29 -145 38 -170 39 -252 76 -445 199
-100 64 -156 108 -224 177 -74 76 -171 196 -171 212 0 2 -26 46 -59 97 -73
116 -185 334 -233 453 -62 154 -108 280 -108 297 0 9 -4 20 -10 23 -5 3 -10
16 -10 29 0 20 -20 103 -52 216 -22 80 -39 174 -58 320 -11 85 -27 202 -35
260 -9 58 -20 143 -24 190 -5 47 -11 92 -15 100 -3 8 -11 103 -17 210 -5 107
-14 265 -19 350 -28 487 -35 720 -34 1290 1 601 13 1104 34 1385 13 182 39
507 50 615 5 47 13 155 19 240 12 176 12 182 41 380 11 80 27 199 35 265 17
143 32 237 44 285 6 19 15 55 21 80 6 25 15 61 20 80 5 19 14 58 21 85 17 75
47 173 63 208 8 18 33 88 57 157 23 69 52 148 64 175 53 120 67 151 78 170 6
11 28 53 49 94 56 103 124 210 163 251 18 19 49 60 68 90 35 55 212 260 225
260 4 0 27 19 51 41 80 73 213 153 371 222 104 46 254 85 410 107 97 13 480 4
577 -14z m4103 -25 c406 -26 736 -107 930 -229 101 -62 230 -208 264 -297 36
-93 45 -222 21 -315 -23 -93 -32 -118 -79 -213 -88 -178 -249 -360 -486 -550
-69 -55 -128 -106 -132 -113 -11 -17 -111 -94 -264 -204 -149 -107 -245 -182
-474 -371 -183 -150 -363 -289 -399 -308 -50 -27 -101 -83 -101 -110 0 -51 59
-62 175 -33 353 89 554 76 679 -45 72 -71 215 -353 252 -498 7 -27 22 -86 34
-130 13 -44 28 -105 36 -135 7 -30 18 -75 24 -100 6 -25 16 -67 21 -95 5 -27
16 -79 25 -115 8 -36 19 -83 23 -105 8 -40 44 -187 64 -260 43 -158 126 -298
234 -394 102 -91 181 -121 373 -141 110 -12 130 -20 130 -52 0 -42 -120 -176
-245 -273 -27 -22 -52 -42 -55 -45 -19 -22 -382 -286 -485 -353 -67 -45 -261
-143 -316 -160 -118 -39 -169 -30 -220 37 -50 66 -83 181 -115 411 -17 120
-38 947 -31 1184 8 269 -22 497 -104 776 -35 120 -135 238 -226 268 -61 20
-232 23 -266 6 -34 -19 -37 -27 -37 -144 0 -60 -4 -220 -10 -355 -5 -135 -17
-447 -25 -695 -8 -247 -19 -580 -25 -740 -19 -559 -30 -892 -35 -1110 -4 -121
-11 -257 -16 -302 -9 -71 -8 -89 7 -130 24 -64 33 -77 85 -116 72 -55 127 -78
207 -84 40 -3 75 -10 78 -15 15 -24 -189 -252 -316 -354 -19 -16 -60 -52 -90
-80 -30 -29 -122 -110 -205 -180 -82 -71 -281 -259 -442 -418 -162 -159 -296
-286 -299 -283 -6 5 9 761 26 1347 5 184 14 513 20 730 10 374 17 641 40 1490
14 502 27 1022 45 1765 45 1901 44 2193 -6 2252 -9 10 -24 50 -34 88 -10 39
-33 105 -52 148 -18 43 -33 82 -33 86 0 12 289 29 685 42 198 6 455 17 570 24
212 14 311 13 575 -4z m-4515 -601 c105 -28 211 -92 337 -206 66 -60 65 -50
57 -354 -6 -284 -19 -438 -45 -550 -8 -36 -26 -123 -39 -195 -32 -175 -45
-218 -123 -410 -37 -93 -157 -229 -304 -346 -68 -53 -175 -106 -188 -93 -8 8
-8 203 0 660 5 357 10 770 10 918 0 296 7 351 60 456 33 66 65 97 117 115 47
17 67 18 118 5z m541 -414 c11 -11 14 -47 14 -158 0 -154 25 -491 40 -548 6
-19 10 -50 10 -69 0 -18 4 -50 9 -70 5 -20 17 -72 26 -116 33 -166 39 -191 52
-211 7 -11 22 -49 34 -85 12 -35 43 -107 69 -161 45 -88 60 -107 185 -231 75
-74 156 -144 179 -155 24 -12 51 -30 60 -41 19 -21 97 -55 166 -71 25 -6 61
-15 80 -20 19 -5 62 -16 95 -23 l60 -14 -70 -18 c-72 -18 -264 -79 -300 -94
-11 -5 -38 -16 -60 -26 -73 -30 -90 -39 -131 -72 -23 -18 -44 -33 -48 -33 -14
0 -147 -93 -165 -116 -10 -13 -23 -24 -28 -24 -36 0 -161 -254 -234 -472 -17
-51 -34 -102 -39 -113 -28 -69 -60 -213 -60 -274 -1 -32 -18 -71 -32 -71 -3 0
-8 48 -12 108 -8 136 -20 235 -35 292 -7 25 -17 63 -22 85 -6 22 -14 54 -19
70 -33 121 -43 152 -51 167 -5 10 -9 22 -9 28 0 12 -50 115 -99 205 -72 132
-297 296 -465 339 l-51 13 0 54 c0 52 1 53 32 60 59 12 366 216 427 283 58 64
226 356 226 393 0 11 4 23 8 28 33 38 101 606 129 1068 3 59 8 107 10 107 3 0
11 -6 19 -14z m186 -226 c254 -333 589 -917 800 -1395 22 -49 51 -114 64 -143
21 -46 31 -92 21 -92 -14 0 -144 48 -220 81 -239 103 -432 272 -521 454 -48
99 -85 199 -96 260 -4 22 -17 83 -28 135 -29 134 -61 408 -79 668 -7 107 -1
111 59 32z m-957 -1921 c84 -21 161 -67 224 -135 143 -152 207 -261 251 -424
35 -130 51 -212 79 -420 19 -139 21 -194 19 -545 l-3 -390 -130 -11 c-71 -6
-131 -12 -132 -13 -16 -8 -43 -90 -43 -128 0 -57 17 -85 62 -104 18 -7 64 -38
102 -68 38 -31 83 -67 102 -81 18 -14 36 -31 38 -38 3 -7 1 -81 -4 -165 -5
-83 -11 -307 -15 -497 -3 -190 -10 -408 -15 -485 -8 -120 -10 -309 -10 -1075
0 -69 -2 -170 -4 -225 -4 -82 -3 -91 5 -50 17 90 28 247 28 400 1 82 5 197 11
255 5 58 15 186 21 285 33 529 42 652 68 915 11 113 20 277 20 364 0 87 2 161
4 163 10 9 37 -14 100 -86 98 -110 182 -249 238 -391 96 -247 125 -384 150
-705 20 -247 -1 -935 -36 -1190 -3 -22 -10 -85 -15 -140 -15 -152 -33 -276
-70 -475 -18 -101 -81 -325 -101 -364 -11 -22 -38 -63 -59 -91 -137 -179 -265
-247 -440 -232 -168 14 -350 163 -445 362 -54 115 -70 160 -93 270 -10 47 -14
76 -42 275 -20 136 -30 450 -25 735 3 154 12 723 20 1265 8 542 19 1280 25
1640 5 360 12 869 16 1130 3 261 8 479 11 483 3 5 15 6 27 2 11 -3 39 -11 61
-16z"/>
<path d="M7565 10713 c-67 -8 -72 -11 -83 -55 -6 -24 -18 -234 -27 -468 -59
-1635 -55 -1551 -71 -1581 -19 -38 -18 -63 4 -82 37 -34 66 -22 131 56 157
183 300 443 371 672 80 256 94 377 87 720 -11 519 -69 657 -306 734 -34 11
-48 11 -106 4z m125 -141 c60 -30 90 -67 113 -139 61 -195 78 -743 27 -933
-33 -126 -108 -344 -142 -413 -53 -107 -137 -247 -149 -247 -12 0 -11 62 6
525 8 215 19 548 25 740 5 193 13 383 16 423 5 65 8 72 27 72 12 0 47 -13 77
-28z"/>
<path d="M10505 11003 c-438 -41 -533 -58 -556 -103 -4 -8 -25 -64 -47 -125
-47 -127 -112 -287 -148 -363 -13 -30 -47 -120 -74 -200 -27 -81 -72 -212
-100 -292 -28 -80 -58 -164 -66 -188 -8 -24 -30 -75 -48 -115 -18 -40 -41 -92
-51 -117 -33 -77 -129 -260 -198 -378 -106 -179 -166 -253 -254 -316 -88 -62
-238 -125 -317 -132 -82 -8 -92 -12 -104 -39 -25 -54 -13 -95 43 -155 18 -19
51 -71 75 -115 23 -44 66 -118 94 -165 99 -163 211 -427 246 -580 5 -19 18
-73 29 -120 11 -47 25 -107 30 -135 5 -27 14 -74 20 -103 6 -30 11 -86 11
-126 0 -77 14 -109 50 -119 23 -6 69 28 87 65 15 29 120 302 168 433 21 55 47
127 60 160 13 33 35 89 48 125 14 36 39 95 56 133 17 37 31 72 31 77 0 5 16
44 36 87 58 125 86 200 161 423 19 58 44 125 54 150 11 25 24 54 29 65 5 11
16 41 26 68 9 26 19 47 22 47 3 0 2 -44 -2 -97 -4 -54 -11 -174 -16 -268 -5
-93 -17 -276 -25 -405 -9 -129 -20 -307 -25 -395 -22 -384 -63 -986 -80 -1200
-18 -208 -17 -230 13 -268 51 -68 111 -55 260 54 152 112 626 429 707 473 19
10 53 31 75 46 22 15 76 47 120 71 44 23 109 62 145 84 36 23 126 75 200 115
74 40 140 76 146 81 25 20 399 199 479 230 6 2 46 24 89 48 90 50 116 84 116
152 0 42 -4 51 -39 82 -44 39 -44 39 -161 62 -89 18 -112 31 -137 79 -17 32
-38 204 -38 311 0 95 23 545 35 675 62 685 84 1518 46 1725 -10 50 -26 115
-37 146 -10 30 -19 61 -19 69 0 43 -115 129 -224 168 -215 76 -536 124 -821
121 -99 -2 -198 -4 -220 -6z m560 -118 c166 -15 197 -20 330 -54 111 -28 181
-55 221 -86 41 -31 47 -43 64 -120 7 -33 16 -76 21 -95 45 -178 31 -945 -31
-1650 -26 -296 -40 -758 -28 -946 14 -222 78 -314 227 -330 85 -9 111 -19 111
-43 0 -30 -67 -89 -140 -123 -133 -62 -447 -218 -515 -256 -38 -21 -115 -62
-170 -92 -55 -29 -118 -66 -140 -80 -22 -15 -71 -44 -110 -65 -84 -46 -371
-224 -436 -271 -26 -19 -49 -34 -52 -34 -7 0 -223 -136 -262 -166 -45 -33
-227 -140 -252 -148 -16 -5 -23 -2 -27 11 -10 31 37 906 64 1193 6 58 10 134
10 170 0 36 4 119 10 185 5 66 16 226 25 355 19 290 31 469 47 670 17 218 16
229 -17 258 -39 33 -83 27 -111 -15 -12 -18 -41 -92 -63 -165 -38 -121 -64
-191 -111 -303 -9 -22 -27 -71 -40 -110 -12 -38 -29 -83 -36 -100 -7 -16 -25
-66 -40 -110 -16 -44 -48 -120 -72 -168 -24 -49 -52 -112 -62 -140 -10 -29
-30 -79 -45 -112 -15 -33 -33 -73 -40 -90 -7 -16 -19 -48 -25 -70 -7 -22 -18
-53 -25 -70 -8 -16 -23 -59 -35 -95 -12 -36 -28 -78 -35 -95 -7 -16 -25 -69
-40 -117 -30 -95 -50 -112 -60 -50 -4 20 -20 91 -36 157 -17 66 -35 137 -40
159 -35 142 -187 493 -257 594 -10 15 -49 83 -87 151 -72 131 -72 134 -15 147
86 20 214 83 303 150 85 63 172 171 242 299 21 39 50 88 65 110 49 72 204 385
262 530 26 65 83 222 113 310 78 232 129 373 159 437 18 40 36 86 40 101 4 15
19 56 35 90 15 34 38 94 50 134 12 39 28 76 34 81 22 17 220 52 299 52 22 0
68 5 102 10 62 11 276 26 396 28 36 1 137 -5 225 -13z"/>
<path d="M10522 10376 c-50 -27 -62 -62 -62 -181 1 -211 75 -482 203 -734 85
-169 161 -235 233 -202 46 21 64 67 64 164 0 49 -5 109 -10 135 -6 26 -15 70
-21 97 -18 93 -90 334 -118 400 -5 11 -16 36 -24 55 -68 158 -103 212 -165
251 -51 32 -66 34 -100 15z m153 -291 c76 -154 103 -230 154 -445 19 -75 29
-230 15 -230 -10 0 -64 71 -64 84 0 3 -14 34 -31 71 -69 151 -147 421 -164
572 -13 118 13 103 90 -52z"/>
<path d="M13310 10969 c-25 -4 -72 -8 -105 -8 -64 -1 -397 -43 -480 -61 -274
-59 -375 -99 -442 -172 -26 -28 -95 -188 -119 -274 -38 -140 -84 -446 -106
-699 -17 -199 -17 -873 0 -1065 26 -282 73 -488 151 -652 47 -99 138 -225 208
-288 81 -72 158 -97 333 -105 301 -13 800 42 1088 121 32 9 71 19 87 23 62 16
125 41 221 88 138 67 268 192 353 338 35 60 109 256 125 333 8 37 24 110 36
162 71 320 94 633 87 1165 -9 627 -38 814 -146 923 -84 84 -206 124 -471 152
-58 6 -144 15 -191 20 -101 12 -564 11 -629 -1z m695 -124 c379 -38 493 -80
563 -207 26 -46 40 -187 49 -476 7 -232 7 -232 -49 -232 -21 0 -42 19 -111
103 -194 233 -449 447 -671 560 -225 116 -390 159 -528 137 -40 -6 -77 -14
-82 -19 -6 -5 -23 -11 -39 -15 -38 -9 -99 -67 -124 -118 -30 -60 -69 -190 -82
-273 -6 -38 -18 -108 -25 -155 -41 -245 -60 -663 -53 -1170 3 -217 10 -424 16
-460 5 -36 15 -96 20 -135 13 -83 32 -168 63 -273 12 -41 63 -101 95 -113 43
-16 86 11 115 72 53 110 161 478 183 624 4 22 13 68 21 101 14 59 38 229 54
379 23 217 107 493 166 547 26 22 98 46 195 63 115 20 449 29 599 16 147 -12
194 -24 226 -56 22 -22 24 -32 24 -122 -1 -114 -15 -361 -30 -518 -17 -177
-30 -249 -90 -509 -51 -215 -172 -437 -307 -561 -83 -76 -299 -158 -518 -195
-38 -6 -92 -16 -120 -21 -27 -5 -102 -13 -165 -18 -63 -5 -173 -16 -245 -25
-289 -35 -537 -9 -657 70 -70 45 -166 200 -213 341 -42 129 -44 135 -60 228
-28 161 -44 336 -50 550 -7 214 9 839 25 975 35 309 65 472 107 600 51 152 84
173 383 238 149 33 356 62 456 63 38 0 92 4 119 9 92 14 581 11 740 -5z m-565
-234 c267 -67 548 -254 848 -566 56 -58 102 -109 102 -114 0 -4 -102 -8 -227
-7 -144 0 -254 -4 -298 -12 -38 -7 -108 -20 -155 -28 -118 -21 -154 -33 -183
-59 -60 -57 -154 -278 -183 -435 -14 -74 -18 -96 -49 -315 -19 -132 -32 -206
-44 -260 -5 -22 -14 -67 -20 -100 -16 -85 -49 -218 -76 -305 -12 -41 -35 -117
-51 -168 -32 -105 -50 -130 -59 -85 -4 15 -10 42 -15 58 -73 275 -97 719 -70
1255 13 248 38 565 50 640 5 30 14 89 20 130 12 83 57 251 77 290 26 51 49 69
103 83 76 21 142 20 230 -2z"/>
<path d="M16545 10953 c-82 -2 -481 -7 -885 -11 -585 -7 -739 -11 -756 -22
-52 -33 -69 -110 -36 -165 10 -16 44 -59 76 -95 108 -123 141 -206 151 -380 9
-171 -15 -862 -45 -1245 -10 -131 -15 -168 -41 -320 -12 -68 -36 -160 -48
-190 -5 -11 -22 -51 -37 -90 -16 -38 -45 -97 -66 -129 -44 -69 -58 -112 -58
-183 0 -40 5 -58 23 -78 l22 -27 450 -4 c248 -2 859 -11 1358 -18 969 -15
1003 -14 1067 32 33 23 82 124 97 198 32 157 43 326 43 650 0 282 -2 333 -16
352 -18 26 -65 52 -94 52 -33 0 -123 -47 -138 -71 -8 -12 -25 -65 -38 -118
-14 -53 -36 -114 -51 -136 -66 -102 -275 -264 -443 -343 -61 -28 -212 -69
-341 -91 -63 -11 -384 4 -433 20 -16 5 -41 9 -56 9 -89 0 -247 85 -291 157
-32 52 -31 171 4 245 29 62 92 137 151 177 127 86 377 128 585 97 128 -20 191
-20 216 -2 15 11 20 35 28 146 11 160 4 231 -25 256 -17 16 -38 19 -147 20
-69 0 -180 6 -246 11 -263 23 -456 123 -528 275 -57 120 -24 318 64 393 85 71
285 122 438 111 334 -22 569 -121 806 -339 58 -52 215 -269 215 -295 0 -6 29
-40 64 -76 l64 -66 57 0 c49 0 60 4 85 28 31 32 30 23 50 327 38 563 -2 830
-139 916 l-45 29 -480 -2 c-265 -1 -548 -4 -631 -5z m1114 -127 c22 -20 42
-83 61 -191 13 -72 23 -717 13 -807 -3 -27 -11 -48 -17 -48 -19 0 -66 56 -140
163 -104 151 -158 210 -264 290 -217 164 -322 216 -532 265 -167 39 -387 46
-500 17 -36 -9 -81 -20 -100 -24 -173 -40 -281 -146 -311 -307 -13 -68 -5
-177 17 -244 40 -121 125 -210 263 -277 52 -26 110 -50 130 -54 20 -4 61 -15
91 -24 78 -22 195 -37 339 -41 69 -2 128 -7 133 -12 7 -7 -8 -177 -17 -193 -3
-4 -76 -7 -163 -6 -86 0 -195 -5 -242 -12 -105 -15 -232 -42 -245 -51 -5 -3
-30 -13 -55 -20 -90 -29 -199 -134 -249 -240 -23 -50 -26 -66 -26 -180 0 -125
0 -125 32 -171 37 -53 121 -124 173 -146 19 -9 42 -19 52 -24 9 -4 54 -15 100
-24 45 -9 101 -20 124 -25 22 -5 133 -10 245 -11 l204 -2 150 37 c248 62 452
174 607 333 82 85 109 129 128 213 7 30 17 72 22 92 5 21 17 42 28 48 33 18
42 -42 47 -319 4 -200 1 -283 -12 -395 -31 -258 -56 -317 -142 -337 -22 -5
-410 -5 -913 1 -481 5 -1079 10 -1327 12 -249 2 -453 6 -453 9 0 4 -3 20 -6
36 -5 24 0 37 25 66 70 79 172 347 200 527 7 41 17 100 22 132 5 31 14 134 20
230 6 95 15 234 19 308 17 268 24 797 11 888 -30 218 -57 279 -202 453 -22 26
-39 51 -39 57 0 6 186 10 523 12 287 2 797 6 1132 10 916 10 1018 9 1044 -14z"/>
<path d="M15335 7849 c-38 -11 -113 -24 -165 -29 -155 -17 -330 -45 -405 -65
-27 -8 -75 -20 -105 -29 -208 -56 -503 -180 -647 -272 -28 -18 -70 -42 -92
-53 -69 -35 -161 -121 -206 -190 -94 -146 -252 -517 -305 -716 -26 -100 -137
-499 -149 -540 -5 -16 -14 -64 -20 -105 -7 -41 -18 -102 -26 -135 -44 -190
-56 -247 -65 -310 -5 -38 -14 -92 -20 -120 -6 -27 -20 -97 -31 -155 -11 -58
-26 -132 -34 -165 -8 -33 -26 -139 -39 -235 -55 -381 -76 -516 -86 -550 -6
-19 -19 -96 -30 -170 -11 -74 -24 -164 -30 -200 -6 -36 -15 -117 -20 -180 -5
-63 -17 -160 -25 -214 -8 -55 -15 -141 -15 -191 0 -51 -4 -114 -9 -141 -5 -27
-12 -96 -15 -154 -4 -58 -9 -141 -12 -185 -3 -44 -7 -325 -9 -625 -5 -570 -1
-631 41 -795 14 -52 23 -65 68 -101 105 -85 174 -107 376 -121 154 -10 401
-10 455 1 115 22 169 42 205 76 63 60 68 73 75 220 10 215 24 389 40 475 8 44
19 132 24 195 13 139 39 412 47 495 3 33 17 125 31 205 13 80 29 172 34 205
33 201 40 245 48 290 6 28 17 88 26 135 9 47 20 112 25 145 5 33 14 78 19 100
27 117 42 183 47 210 3 17 17 62 30 102 13 39 24 80 25 90 0 12 3 10 8 -8 5
-14 14 -182 20 -375 6 -192 14 -376 16 -409 3 -33 10 -274 16 -535 6 -261 11
-491 11 -510 2 -80 18 -307 32 -475 9 -99 21 -241 27 -315 14 -174 20 -195 71
-223 22 -12 55 -30 72 -39 72 -39 298 -3 318 51 6 18 -6 1332 -16 1646 -2 50
-6 477 -8 950 -5 833 -2 1039 21 1250 5 55 19 192 31 305 11 113 22 225 25
250 4 25 10 128 15 230 12 239 27 432 39 495 5 27 14 84 21 125 19 127 29 179
67 340 52 226 81 336 93 355 4 6 15 33 25 60 24 67 100 227 138 289 40 65 137
194 171 225 36 34 33 67 -10 107 -34 33 -38 34 -112 33 -42 -1 -108 -10 -147
-20z m110 -136 c-29 -30 -129 -170 -158 -218 -39 -67 -120 -244 -144 -315 -14
-41 -31 -86 -38 -100 -7 -14 -16 -47 -19 -75 -7 -50 -39 -193 -57 -251 -5 -17
-9 -51 -9 -77 0 -25 -4 -57 -9 -70 -5 -13 -12 -75 -16 -138 -3 -63 -8 -121
-10 -129 -4 -14 -9 -54 -36 -280 -5 -47 -14 -155 -19 -240 -5 -85 -14 -195
-20 -245 -26 -229 -61 -608 -70 -761 -12 -201 -5 -1578 10 -2034 14 -435 29
-1363 23 -1433 -3 -31 -9 -60 -13 -62 -20 -12 -116 -24 -150 -19 -55 9 -54 5
-101 538 -24 281 -26 323 -33 816 -4 206 -10 470 -16 585 -35 766 -37 1112 -9
1355 21 175 12 280 -24 280 -30 0 -47 -28 -62 -105 -9 -44 -32 -127 -51 -185
-18 -58 -45 -152 -59 -210 -14 -58 -33 -132 -41 -165 -9 -33 -20 -77 -25 -97
-5 -20 -17 -61 -28 -90 -10 -29 -23 -75 -29 -103 -6 -27 -22 -97 -36 -155 -14
-58 -32 -145 -41 -195 -8 -49 -22 -124 -30 -165 -7 -41 -21 -115 -30 -165 -9
-49 -23 -121 -31 -160 -8 -38 -14 -83 -14 -99 0 -16 -4 -43 -9 -60 -14 -48
-39 -201 -51 -311 -19 -180 -29 -278 -45 -445 -9 -91 -20 -181 -25 -201 -14
-53 -39 -279 -46 -409 -9 -195 -16 -230 -44 -251 -69 -51 -270 -72 -475 -48
-214 24 -253 29 -305 39 -97 20 -104 30 -136 185 -21 99 -21 137 -11 845 3
212 13 473 22 580 8 107 20 258 25 335 6 77 17 187 26 245 9 58 19 152 24 210
11 128 55 427 74 495 8 28 26 133 41 235 49 338 98 626 138 820 9 41 21 113
27 160 6 47 17 110 25 140 23 93 44 192 55 265 12 78 30 157 65 290 14 50 45
171 70 270 62 240 91 328 204 610 82 204 88 213 205 310 126 104 362 224 566
287 36 11 74 24 85 28 35 14 212 61 300 79 22 5 76 16 120 26 127 27 173 35
285 45 58 6 114 12 125 14 11 2 35 4 53 5 l33 1 -26 -27z"/>
<path d="M14388 6516 c-186 -126 -514 -705 -639 -1126 -53 -182 -49 -269 15
-290 39 -13 55 -7 119 38 98 71 269 333 427 657 121 249 145 301 176 397 15
46 35 108 45 139 24 70 24 80 -1 126 -11 21 -20 43 -20 50 0 16 -32 33 -63 33
-13 0 -40 -11 -59 -24z m42 -140 c0 -25 -92 -294 -131 -386 -27 -63 -128 -265
-162 -325 -113 -198 -219 -356 -277 -410 l-33 -30 6 47 c6 46 73 237 118 335
142 314 351 679 451 787 17 18 28 11 28 -18z"/>
<path d="M16730 7844 c-298 -19 -462 -43 -700 -104 -19 -5 -57 -14 -85 -20
-27 -6 -60 -18 -72 -26 -44 -28 -243 -491 -243 -564 0 -22 -14 -90 -30 -152
-81 -305 -171 -714 -215 -978 -9 -52 -20 -120 -25 -150 -87 -502 -160 -1227
-191 -1881 -13 -280 -6 -1275 10 -1459 33 -373 44 -470 81 -665 11 -60 25
-153 30 -205 6 -52 18 -126 27 -165 21 -85 87 -194 136 -224 19 -11 81 -33
138 -47 116 -30 39 -29 879 -4 173 5 511 14 750 20 482 12 529 15 556 35 23
17 20 -152 32 1600 11 1516 25 2884 42 4126 7 461 7 755 1 770 -13 35 -30 46
-81 53 -25 3 -97 12 -160 21 -109 14 -741 28 -880 19z m868 -134 c68 -4 128
-12 132 -16 12 -13 -19 -3546 -40 -4489 -5 -247 -13 -764 -16 -1148 -4 -384
-11 -700 -15 -702 -9 -6 -1004 -37 -1229 -39 l-155 -1 1 165 c0 91 6 273 12
405 7 132 16 357 22 500 6 143 15 361 20 485 6 124 15 329 20 455 5 127 17
374 25 550 9 176 20 444 25 595 8 202 14 288 26 323 15 44 14 50 0 72 -18 27
-61 34 -95 15 -63 -33 -229 -385 -301 -635 -88 -305 -138 -570 -176 -920 -25
-230 -25 -801 -1 -1010 49 -412 125 -698 249 -932 21 -40 37 -73 35 -74 -26
-8 -387 -14 -432 -7 -87 15 -200 69 -218 104 -41 81 -93 337 -133 649 -84 671
-95 1522 -28 2410 54 735 176 1567 315 2155 54 228 71 294 101 400 16 58 33
119 38 135 19 71 111 329 136 382 18 39 42 53 154 86 215 65 463 97 744 97
l166 0 0 -89 c0 -117 30 -837 50 -1191 6 -96 17 -301 25 -455 8 -154 19 -352
25 -440 9 -146 21 -369 50 -905 6 -107 17 -310 25 -450 35 -607 84 -1566 87
-1716 3 -84 6 -106 22 -123 44 -48 96 -14 96 63 0 28 9 103 20 166 30 178 42
267 64 470 9 74 20 176 26 226 5 50 10 112 10 139 0 27 4 85 10 129 67 556 67
1867 0 2546 -5 52 -17 167 -25 255 -9 88 -20 189 -26 225 -6 36 -15 97 -21
135 -14 92 -50 285 -77 405 -32 148 -98 357 -135 430 -48 94 -76 143 -93 162
-13 14 -12 17 4 20 25 6 331 -2 481 -12z m-468 -225 c37 -82 63 -165 94 -288
31 -126 42 -182 76 -372 16 -88 30 -187 45 -320 8 -71 19 -166 25 -210 16
-135 30 -327 45 -620 17 -323 20 -1252 5 -1555 -16 -323 -30 -559 -39 -665
-30 -321 -34 -358 -44 -334 -13 35 -33 393 -77 1364 -6 127 -15 307 -20 400
-6 94 -15 274 -20 400 -32 725 -44 977 -65 1345 -24 443 -34 617 -44 748 -6
68 -7 131 -4 140 6 13 7 13 11 1 2 -7 7 -23 12 -34z m-869 -3346 c-6 -162 -16
-431 -21 -599 -12 -360 -26 -755 -40 -1115 -19 -498 -29 -780 -30 -835 l0 -55
-19 30 c-22 34 -77 195 -93 270 -5 28 -14 68 -19 90 -51 228 -72 464 -72 815
0 423 26 700 103 1080 54 266 173 640 196 617 3 -3 0 -137 -5 -298z"/>
<path d="M13260 7513 c-23 -4 -133 -35 -190 -53 -14 -5 -52 -16 -85 -25 -33
-9 -139 -48 -235 -85 -96 -38 -211 -81 -255 -95 -44 -14 -89 -30 -100 -35 -11
-5 -81 -34 -155 -63 -74 -30 -163 -69 -197 -86 -34 -17 -64 -31 -67 -31 -3 0
-43 -22 -88 -49 -46 -26 -93 -52 -105 -55 -32 -10 -99 -108 -117 -170 -17 -60
-33 -143 -81 -411 -9 -49 -21 -109 -26 -132 -5 -23 -9 -63 -9 -89 0 -27 -4
-84 -10 -128 -23 -193 -32 -290 -41 -426 -5 -80 -13 -192 -19 -250 -20 -193
-28 -461 -35 -1065 -8 -801 -27 -1252 -62 -1450 -8 -49 -19 -130 -23 -180 -9
-103 -44 -311 -59 -346 -6 -13 -17 -69 -26 -123 -15 -91 -46 -196 -65 -221 -5
-5 -11 -32 -15 -60 -4 -27 -16 -68 -25 -90 -10 -22 -24 -58 -30 -80 -14 -47
-56 -115 -70 -115 -29 0 -113 175 -131 275 -45 245 -58 390 -69 754 -11 372 1
841 25 995 8 54 20 174 25 265 11 184 25 337 39 421 4 30 7 58 5 62 -3 4 0 37
6 75 6 37 15 127 20 198 5 72 14 166 20 210 5 44 15 121 21 170 6 50 14 108
19 130 4 22 13 69 19 105 14 88 40 244 51 305 5 28 13 79 19 115 32 209 81
479 100 555 5 22 15 65 21 95 7 30 16 69 21 85 4 17 16 57 25 90 8 33 25 81
37 107 17 39 18 52 9 73 -19 40 -68 34 -190 -26 -58 -28 -138 -71 -178 -95
-41 -25 -102 -60 -137 -78 -265 -141 -522 -342 -570 -446 -24 -52 -33 -85 -78
-280 -11 -47 -26 -107 -34 -135 -8 -27 -19 -75 -25 -105 -6 -30 -14 -66 -19
-80 -10 -29 -24 -98 -46 -230 -9 -52 -20 -117 -25 -145 -4 -27 -13 -77 -19
-110 -13 -78 -39 -227 -51 -290 -5 -27 -14 -99 -20 -158 -6 -60 -15 -132 -21
-160 -6 -29 -14 -77 -19 -107 -5 -30 -14 -82 -20 -115 -10 -53 -19 -139 -50
-480 -5 -49 -13 -178 -19 -285 -38 -702 6 -1404 100 -1592 5 -10 9 -25 9 -33
0 -8 32 -79 70 -157 73 -147 98 -180 225 -283 51 -41 159 -95 255 -127 67 -23
114 -33 319 -69 148 -25 480 -1 701 52 96 23 223 70 290 107 113 62 235 164
302 252 14 19 44 58 65 85 45 59 93 132 93 141 0 4 11 22 25 40 14 18 25 35
25 37 0 3 15 32 34 65 31 55 67 144 126 312 32 91 113 551 150 855 6 50 15
128 21 175 11 94 37 277 51 355 4 28 12 95 18 150 15 154 27 277 44 430 8 77
20 200 25 272 5 73 13 138 16 144 7 11 20 183 35 464 4 88 13 189 19 225 5 36
15 160 21 275 5 116 14 233 19 260 5 28 14 79 20 115 6 36 18 106 26 155 42
238 54 303 70 355 7 25 18 79 25 120 25 154 100 442 121 464 5 6 9 17 9 25 0
8 25 66 56 129 48 99 65 124 130 186 59 58 74 78 74 102 0 16 -4 34 -8 41 -17
27 -81 38 -152 26z m-25 -130 c-10 -16 -26 -37 -35 -48 -53 -59 -180 -354
-210 -490 -28 -123 -50 -229 -60 -295 -7 -41 -18 -93 -25 -115 -7 -22 -18 -71
-24 -110 -23 -135 -30 -181 -46 -270 -8 -49 -20 -115 -25 -145 -5 -30 -14 -82
-19 -115 -6 -33 -15 -151 -21 -263 -6 -111 -16 -226 -21 -255 -6 -29 -14 -128
-19 -222 -15 -270 -27 -425 -39 -500 -6 -38 -20 -169 -32 -290 -36 -376 -68
-639 -94 -770 -9 -44 -20 -123 -24 -175 -5 -52 -16 -135 -25 -185 -10 -49 -21
-133 -27 -185 -5 -52 -13 -117 -18 -145 -5 -27 -21 -120 -35 -205 -15 -85 -31
-183 -36 -217 -6 -34 -17 -81 -26 -105 -8 -24 -24 -72 -34 -108 -10 -36 -26
-85 -35 -110 -9 -25 -19 -54 -22 -65 -23 -72 -195 -343 -273 -428 -61 -66
-189 -170 -260 -209 -97 -53 -289 -111 -455 -137 -38 -6 -135 -15 -214 -20
-143 -9 -231 -2 -436 38 -145 28 -314 107 -405 188 -14 13 -30 23 -37 23 -29
0 -144 220 -170 325 -8 33 -24 79 -35 102 -11 25 -24 83 -30 140 -5 54 -14
130 -19 168 -15 123 -30 603 -24 805 11 373 26 695 35 730 5 19 14 100 20 180
6 80 16 172 21 205 6 33 14 87 19 120 5 33 14 87 19 120 6 33 15 105 21 160 9
98 13 124 45 310 9 50 20 119 26 155 6 36 14 88 19 115 5 28 17 95 25 150 9
55 24 134 35 175 43 174 64 268 71 315 19 130 44 191 112 272 36 43 80 92 99
109 63 58 218 163 393 265 50 29 131 78 180 109 109 68 140 83 153 79 6 -3 2
-32 -10 -74 -11 -38 -24 -92 -30 -120 -6 -27 -19 -77 -28 -110 -10 -33 -24
-94 -30 -135 -7 -41 -16 -97 -21 -125 -5 -27 -13 -77 -18 -110 -5 -33 -17 -98
-26 -145 -9 -47 -18 -101 -21 -120 -3 -19 -9 -57 -14 -85 -5 -27 -16 -93 -25
-145 -18 -106 -29 -169 -44 -250 -6 -30 -16 -100 -22 -155 -5 -55 -14 -125
-19 -155 -6 -30 -14 -109 -20 -175 -9 -114 -19 -202 -40 -380 -12 -97 -17
-152 -29 -315 -12 -166 -30 -331 -37 -350 -42 -107 -38 -1069 6 -1460 9 -79
15 -119 41 -260 15 -81 55 -201 85 -253 41 -75 112 -147 142 -147 56 0 145 76
175 148 8 20 27 65 41 98 14 34 26 71 26 83 0 12 15 61 34 109 18 48 38 110
44 137 6 28 21 91 33 140 24 103 30 134 59 300 11 66 20 138 20 160 0 22 7 78
14 125 8 47 19 171 25 275 7 105 14 210 16 235 3 25 9 450 15 945 6 495 15
945 20 1000 6 55 13 181 18 280 4 99 11 185 15 192 4 6 12 80 18 164 6 85 17
168 25 187 8 20 14 69 14 116 0 47 9 117 21 166 11 47 24 105 29 130 12 68 24
99 83 222 31 62 71 130 91 150 23 24 89 62 193 113 87 42 166 81 175 86 10 5
22 9 28 9 5 0 35 12 67 26 111 50 128 57 185 74 31 10 134 49 230 88 95 38
227 87 293 107 66 21 131 41 145 45 41 13 43 11 25 -17z"/>
<path d="M9968 5954 c-23 -20 -104 -95 -178 -167 -74 -73 -176 -170 -225 -217
-513 -486 -908 -861 -940 -894 -15 -16 -169 -162 -390 -371 -104 -99 -242
-229 -305 -290 -63 -61 -153 -147 -200 -190 -154 -146 -158 -152 -146 -219 8
-42 62 -93 108 -101 35 -7 102 8 238 51 129 41 156 42 191 8 24 -23 29 -36 29
-73 0 -25 11 -82 25 -126 24 -77 25 -91 26 -350 1 -239 -2 -281 -20 -370 -12
-55 -26 -127 -31 -160 -28 -185 -61 -349 -85 -415 -14 -41 -33 -95 -42 -119
-33 -96 -91 -157 -191 -201 -23 -11 -56 -29 -72 -40 -20 -14 -50 -22 -97 -26
-37 -2 -127 -9 -200 -16 -112 -9 -148 -8 -250 6 -65 10 -128 22 -141 29 -38
19 -91 100 -108 167 -14 55 -15 84 -6 209 11 155 50 371 83 459 10 29 24 74
30 99 20 92 75 187 150 259 76 74 167 196 205 275 28 58 32 144 9 189 -27 51
-105 75 -167 51 -13 -5 -81 -57 -153 -116 -71 -59 -150 -123 -175 -143 -119
-98 -381 -319 -630 -531 -151 -129 -315 -269 -364 -310 -49 -42 -153 -130
-230 -196 -78 -67 -204 -174 -281 -240 -212 -180 -559 -478 -565 -485 -3 -3
-34 -30 -70 -60 -36 -30 -73 -63 -82 -74 -18 -19 -24 -82 -10 -101 38 -52 197
-80 321 -56 25 5 144 5 265 1 123 -5 472 -5 786 0 311 5 966 12 1455 15 691 4
916 9 1005 20 167 21 209 29 270 52 30 12 75 28 99 38 70 26 231 143 359 260
109 100 205 283 256 485 26 105 34 149 71 385 14 88 29 185 35 215 29 171 66
633 80 995 14 361 31 534 76 761 13 67 24 146 24 177 0 31 4 66 9 80 5 13 17
70 25 128 32 204 46 277 81 419 13 52 29 118 34 145 38 180 71 309 105 410 64
187 70 271 20 293 -42 20 -70 14 -116 -24z m12 -183 c-7 -31 -22 -87 -32 -126
-11 -38 -23 -83 -28 -100 -20 -74 -39 -146 -54 -215 -10 -41 -28 -111 -40
-155 -13 -44 -29 -107 -36 -140 -7 -33 -21 -92 -31 -130 -11 -39 -23 -102 -29
-140 -5 -39 -14 -90 -20 -115 -27 -119 -50 -280 -69 -485 -5 -55 -14 -138 -20
-185 -6 -47 -15 -218 -21 -380 -5 -162 -14 -338 -20 -390 -5 -52 -16 -174 -25
-270 -20 -231 -40 -373 -96 -700 -66 -388 -137 -542 -337 -730 -90 -85 -123
-108 -217 -155 -142 -72 -209 -91 -400 -116 -82 -11 -3519 -29 -3604 -19 l-43
5 18 22 c17 19 61 56 283 236 35 29 107 88 160 132 53 44 117 96 141 117 93
75 196 161 220 182 14 12 221 183 460 381 239 198 444 367 455 377 11 9 81 68
155 130 157 131 377 320 489 418 43 38 81 67 85 63 33 -34 -57 -179 -196 -313
-66 -64 -118 -150 -146 -240 -6 -19 -25 -80 -42 -135 -18 -55 -36 -120 -40
-145 -4 -25 -17 -94 -29 -154 -16 -86 -21 -148 -21 -286 0 -176 0 -177 30
-236 36 -74 114 -156 177 -187 105 -53 507 -53 673 -1 41 13 85 24 97 24 62 0
210 105 260 182 40 65 114 299 138 441 45 264 56 324 64 351 29 94 35 183 36
461 0 255 -2 296 -18 339 -10 27 -22 80 -26 116 -10 81 -18 96 -70 143 -97 88
-162 88 -419 1 -69 -23 -92 -24 -92 -4 0 9 168 175 445 440 72 69 195 188 275
265 80 78 206 199 280 270 269 259 398 383 565 545 93 92 233 227 310 300 77
74 189 183 250 241 182 175 178 173 155 70z"/>
</g>
</svg>
