<?xml version="1.0" standalone="no"?>
<!DOCTYPE svg PUBLIC "-//W3C//DTD SVG 20010904//EN"
 "http://www.w3.org/TR/2001/REC-SVG-20010904/DTD/svg10.dtd">
<svg version="1.0" xmlns="http://www.w3.org/2000/svg"
 width="1795.000000pt" height="1311.000000pt" viewBox="0 0 1795.000000 1311.000000"
 preserveAspectRatio="xMidYMid meet">
<metadata>
Created by potrace 1.16, written by Peter Selinger 2001-2019
</metadata>
<g transform="translate(0.000000,1311.000000) scale(0.100000,-0.100000)"
fill="#000000" stroke="none">
<path d="M3870 11472 c-177 -179 -228 -225 -445 -391 -370 -285 -661 -467
-1060 -665 -201 -100 -225 -111 -375 -174 -52 -22 -131 -56 -175 -75 -97 -41
-263 -99 -365 -126 -111 -29 -208 -59 -220 -66 -32 -20 15 -107 92 -173 28
-23 89 -118 146 -225 47 -85 87 -210 112 -347 17 -91 22 -622 10 -1045 -36
-1211 -59 -1749 -81 -1865 -49 -259 -154 -450 -345 -629 -91 -85 -103 -112
-56 -129 15 -5 50 -18 77 -28 28 -9 68 -27 90 -39 22 -12 76 -41 120 -65 202
-109 232 -126 425 -248 192 -123 218 -141 285 -204 28 -25 64 -57 80 -69 39
-30 284 -226 400 -320 191 -155 505 -429 608 -531 113 -113 134 -124 171 -89
12 11 90 54 174 96 131 65 231 120 397 215 59 34 351 207 385 228 19 12 40 22
46 22 11 0 13 -77 34 -1445 7 -473 6 -533 -8 -555 -19 -30 -38 -50 -48 -50
-16 0 -156 133 -404 384 -146 148 -315 315 -376 371 -183 167 -408 341 -569
441 -33 21 -77 52 -97 71 -51 44 -94 61 -200 75 -124 16 -390 -7 -473 -42 -11
-5 -47 -18 -80 -30 -74 -26 -92 -35 -280 -126 -151 -73 -228 -115 -297 -160
-21 -13 -40 -24 -43 -24 -12 0 -212 -145 -267 -193 -66 -59 -74 -73 -53 -97
16 -18 43 -27 170 -58 152 -37 223 -59 253 -81 17 -11 33 -21 37 -21 10 0 93
-60 180 -130 39 -31 180 -143 315 -248 135 -105 254 -199 265 -209 11 -10 61
-54 110 -98 147 -131 389 -375 446 -450 l54 -69 4 -84 c6 -140 -52 -330 -129
-427 -17 -21 -30 -48 -30 -61 0 -28 33 -48 66 -40 14 4 87 66 162 139 249 240
370 344 696 596 87 68 204 153 260 190 113 74 114 75 252 151 54 30 117 65
139 77 49 28 422 213 429 213 3 0 49 21 103 46 54 25 170 75 258 110 88 36
168 69 177 74 10 6 26 10 36 10 10 0 22 4 27 8 6 4 48 20 95 35 47 15 153 49
235 76 83 27 184 58 225 70 41 12 89 26 106 32 17 5 44 9 61 9 17 0 50 7 73
15 23 8 61 15 84 15 88 0 113 62 57 143 -34 51 -74 134 -136 287 -26 63 -51
124 -55 135 -30 69 -63 202 -80 317 -4 31 -10 60 -13 65 -17 28 -29 274 -22
471 l7 214 47 -7 c161 -24 506 -205 697 -366 139 -116 359 -371 449 -520 43
-69 72 -83 113 -52 l27 20 6 614 c3 338 7 952 8 1364 3 872 13 1246 35 1322
39 137 92 205 209 275 71 41 279 114 357 125 70 9 100 28 100 63 0 48 -39 75
-139 95 -92 17 -150 34 -165 47 -6 4 -16 8 -23 8 -11 0 -74 37 -98 58 -29 26
-116 123 -144 162 -124 171 -135 416 -41 925 16 87 21 107 65 250 70 223 76
208 -105 256 -58 15 -143 40 -190 54 -47 15 -98 30 -115 35 -114 30 -305 110
-398 167 -12 8 19 26 103 61 41 17 154 69 250 115 163 79 251 120 325 152 17
7 46 20 67 29 20 9 39 16 42 16 3 0 28 10 54 21 91 41 110 49 116 49 3 0 29
11 58 24 29 13 82 36 118 51 36 15 109 49 162 76 54 27 103 49 109 49 24 0 -8
-887 -35 -1000 -15 -59 -20 -83 -45 -190 -9 -38 -46 -152 -60 -185 -5 -11 -19
-42 -30 -68 -12 -26 -29 -67 -38 -90 -9 -23 -22 -51 -30 -62 -30 -45 -1 -115
49 -115 11 0 49 15 82 34 34 18 93 51 131 71 74 40 210 120 415 243 69 42 186
104 260 139 242 114 403 197 430 223 27 25 28 30 34 165 4 77 11 192 16 255
27 327 32 415 37 641 6 251 2 289 -32 289 -8 0 -29 13 -47 28 -18 15 -60 46
-93 67 -135 88 -289 218 -448 377 -106 106 -175 168 -185 166 -12 -2 -18 -15
-20 -43 -4 -68 -33 -166 -72 -250 -45 -97 -109 -160 -257 -257 -194 -127 -287
-175 -583 -298 -69 -29 -149 -63 -178 -76 -29 -13 -55 -24 -58 -24 -3 0 -24
-8 -47 -19 -106 -47 -148 -63 -154 -57 -3 3 48 59 113 123 210 206 387 408
398 455 10 44 -17 62 -83 54 -31 -3 -119 -9 -196 -12 -99 -5 -149 -11 -170
-23 -25 -13 -61 -16 -200 -15 -207 2 -322 23 -510 92 -44 16 -125 46 -179 66
-55 19 -104 40 -110 46 -5 5 -16 10 -23 10 -11 0 -130 53 -273 123 -36 17 -97
50 -137 74 -39 24 -74 43 -77 43 -2 0 -40 24 -83 52 -127 85 -153 94 -172 61
-11 -21 2 -42 104 -163 151 -180 294 -369 295 -389 0 -8 20 -48 44 -90 98
-168 208 -432 262 -629 23 -85 26 -84 -96 -42 -242 84 -372 149 -637 316 -186
117 -452 307 -566 404 -12 10 -41 34 -65 53 -200 166 -656 609 -733 714 -46
62 -118 143 -128 143 -3 0 -80 -76 -171 -168z m-445 -1225 c120 -109 729 -573
1010 -769 159 -111 387 -258 439 -285 17 -8 46 -27 64 -40 l34 -25 -82 -39
c-45 -22 -83 -39 -85 -39 -1 0 -52 -23 -111 -51 -104 -49 -172 -80 -275 -127
-26 -12 -72 -31 -102 -42 -62 -23 -97 -61 -97 -106 0 -28 38 -103 73 -141 21
-24 32 -65 48 -188 10 -80 23 -1189 32 -2777 4 -753 3 -818 -12 -818 -9 0 -95
66 -191 146 -214 178 -222 186 -565 510 -88 83 -174 163 -192 178 -35 29 -245
261 -285 316 l-27 35 10 375 c17 666 27 904 38 942 18 59 91 159 146 200 90
68 151 88 369 122 81 13 106 29 106 68 0 25 -44 68 -69 68 -11 0 -30 4 -43 10
-13 5 -70 25 -127 45 -172 61 -270 137 -334 260 l-32 60 0 200 c0 341 25 2068
31 2103 l5 34 52 -58 c29 -31 106 -107 172 -167z m2855 -1374 c0 -1028 -20
-3419 -29 -3443 -5 -14 -17 -52 -26 -85 -39 -135 -95 -289 -96 -265 -4 52 2
1049 11 1920 5 498 10 1218 11 1600 l2 695 49 48 c26 26 55 47 63 47 13 0 15
-64 15 -517z"/>
<path d="M13624 11382 c-162 -124 -179 -137 -184 -143 -34 -40 -471 -262 -720
-366 -154 -64 -324 -114 -510 -149 -99 -18 -150 -47 -150 -85 0 -9 20 -39 44
-65 63 -71 103 -158 121 -259 32 -189 66 -607 51 -622 -7 -8 -86 28 -171 76
-72 41 -249 157 -267 174 -7 7 -47 40 -88 74 -41 33 -84 69 -95 79 -11 11 -61
55 -110 99 -135 119 -362 348 -446 449 -250 300 -340 434 -390 580 -14 37 -50
76 -73 76 -18 0 -115 -68 -186 -130 -71 -62 -155 -125 -240 -181 -61 -39 -242
-128 -305 -150 -22 -7 -44 -16 -50 -20 -12 -7 -168 -55 -205 -63 -43 -9 -52
-37 -30 -93 28 -72 43 -180 36 -259 -21 -237 -27 -337 -36 -579 -5 -148 -14
-296 -19 -327 -12 -72 -5 -97 26 -104 31 -8 59 5 203 96 253 160 434 331 740
695 50 61 100 119 109 130 46 55 125 162 134 182 18 39 27 26 27 -39 0 -163
-31 -594 -45 -624 -21 -46 -159 -249 -220 -324 -221 -274 -646 -608 -901 -709
-28 -11 -73 -29 -100 -41 -27 -12 -58 -26 -69 -30 -11 -4 -36 -15 -57 -24 -20
-9 -39 -16 -42 -16 -3 0 -40 -16 -82 -35 -41 -19 -77 -35 -80 -35 -22 0 -233
-116 -293 -161 -98 -74 -240 -212 -278 -269 -53 -80 -99 -196 -108 -275 -3
-33 -10 -73 -15 -90 -27 -91 -53 -277 -79 -565 -5 -52 -16 -135 -24 -185 -9
-49 -19 -123 -22 -163 -4 -39 -11 -75 -16 -78 -5 -3 -9 -12 -9 -19 0 -35 -101
-220 -160 -295 -46 -58 -116 -126 -162 -157 -26 -17 -38 -33 -38 -49 0 -25 35
-64 57 -64 7 0 36 -15 65 -33 29 -18 70 -41 92 -51 134 -62 351 -207 456 -303
154 -142 369 -378 393 -430 6 -13 15 -23 21 -23 5 0 22 -12 38 -26 45 -44 45
-44 291 332 84 129 212 304 272 374 252 291 508 523 930 845 212 161 453 309
586 359 45 17 46 17 115 -10 64 -25 104 -49 93 -57 -2 -2 -33 -23 -69 -47 -71
-47 -316 -242 -395 -314 -27 -25 -53 -45 -57 -46 -11 0 -217 -240 -235 -273
-13 -25 -17 -66 -19 -187 -2 -85 -8 -202 -14 -260 -5 -58 -9 -321 -9 -585 1
-316 -3 -524 -11 -610 -9 -96 -11 -277 -6 -695 5 -461 3 -608 -10 -800 -8
-129 -19 -347 -24 -485 -5 -137 -12 -284 -16 -325 l-7 -75 -189 -185 c-104
-102 -194 -187 -200 -189 -11 -4 -6 141 12 354 5 61 17 198 25 305 8 107 20
249 25 315 23 281 45 575 70 910 6 77 15 194 20 260 5 66 17 217 25 335 31
446 36 508 45 625 5 66 17 210 25 320 8 110 20 256 25 325 15 193 17 467 3
480 -17 18 -66 3 -103 -33 -17 -17 -84 -101 -148 -186 -193 -257 -309 -385
-572 -624 -184 -167 -319 -270 -458 -348 -150 -84 -153 -95 -50 -208 65 -70
138 -189 169 -276 76 -211 82 -276 75 -730 -3 -209 -10 -434 -15 -500 -25
-336 -31 -390 -62 -555 -17 -89 -49 -211 -69 -265 -5 -11 -14 -35 -20 -53 -7
-18 -28 -58 -46 -89 -19 -30 -34 -66 -34 -80 0 -25 63 -91 110 -115 51 -26
167 -102 230 -151 181 -142 436 -395 504 -501 20 -31 47 -62 61 -68 58 -26
105 34 105 134 0 86 15 118 73 163 79 60 311 215 322 215 11 0 7 -73 -15 -304
-10 -97 -9 -111 6 -127 9 -11 24 -19 34 -19 9 0 62 22 118 50 171 84 406 163
484 163 80 0 135 -23 278 -119 155 -104 263 -194 314 -262 30 -41 45 -52 66
-52 49 0 48 19 -12 204 -10 32 -23 77 -28 100 -5 22 -16 70 -25 106 -17 70
-17 68 -63 295 -43 213 -48 250 -31 240 49 -30 412 -314 554 -435 66 -56 197
-175 290 -264 299 -285 310 -294 361 -284 24 4 64 65 64 97 1 101 137 282 282
374 61 39 182 87 218 87 40 0 110 -31 195 -86 103 -66 130 -89 285 -234 239
-225 352 -297 409 -261 16 10 28 67 42 193 9 87 7 124 -25 543 -8 99 -13 181
-11 183 3 3 105 -78 131 -102 6 -6 53 -45 104 -86 51 -41 116 -96 144 -121 28
-25 112 -91 186 -146 74 -56 144 -110 155 -120 81 -73 336 -265 455 -342 92
-59 231 -131 254 -131 7 0 19 6 26 14 9 12 6 22 -14 53 -14 21 -26 43 -26 50
0 7 -9 32 -19 56 -57 126 -70 249 -59 569 4 139 13 316 18 393 5 77 15 268 20
425 15 414 29 777 40 1005 16 338 29 646 70 1705 5 146 15 405 20 575 28 805
26 770 58 897 17 64 35 126 41 137 7 11 37 38 69 59 70 48 222 142 228 142 3
0 30 16 60 35 30 19 57 35 59 35 3 0 23 11 45 25 79 50 74 76 66 -387 -4 -227
-11 -602 -16 -833 -5 -231 -14 -654 -19 -940 -6 -286 -16 -689 -21 -895 -6
-206 -10 -575 -10 -820 -1 -423 -7 -572 -31 -685 -11 -52 -58 -208 -70 -235
-23 -49 -93 -191 -110 -222 -15 -27 -19 -46 -14 -68 13 -59 203 -230 453 -407
59 -42 145 -107 192 -143 93 -74 372 -270 547 -386 113 -75 255 -154 277 -154
6 0 38 -13 71 -30 33 -16 75 -30 93 -30 31 0 32 1 32 46 0 28 -18 99 -46 182
-85 257 -127 426 -144 592 -22 199 -29 257 -40 325 -16 98 -39 287 -53 440
-16 175 -16 1245 1 1500 6 105 19 300 28 435 8 135 20 391 25 570 12 422 24
684 38 845 6 72 15 189 21 260 27 342 33 389 80 605 13 60 38 118 59 139 26
26 27 46 1 69 -11 9 -39 37 -63 62 -76 80 -102 105 -142 135 -109 83 -281 250
-465 451 -30 33 -74 81 -98 107 -24 26 -73 87 -109 135 -89 119 -102 132 -132
132 -36 -1 -46 -11 -133 -126 -93 -123 -176 -208 -289 -296 -167 -130 -427
-284 -466 -276 -13 2 -15 20 -14 100 3 121 -5 160 -36 194 -21 23 -30 26 -69
21 -25 -2 -53 -12 -63 -21 -10 -9 -25 -16 -34 -16 -9 0 -42 -7 -74 -16 -32 -9
-101 -25 -153 -35 -52 -11 -118 -25 -146 -31 -98 -20 -505 13 -694 57 -68 16
-196 53 -225 65 -33 13 -150 70 -144 70 2 0 32 10 64 21 145 52 303 84 467 95
80 6 89 9 113 36 26 29 26 29 29 231 3 188 11 296 37 472 13 90 30 176 39 193
11 22 60 -23 473 -433 133 -132 278 -267 322 -299 45 -33 94 -78 110 -102 39
-57 76 -78 123 -69 20 4 42 10 47 14 6 5 44 20 85 35 75 28 84 31 150 58 19 8
51 21 70 28 19 6 44 16 55 20 11 5 56 23 100 40 76 30 116 48 280 125 39 18
115 49 170 69 55 21 109 41 120 46 11 4 45 18 75 30 30 12 116 52 190 88 163
81 205 119 259 235 48 104 57 132 71 242 7 50 17 99 23 110 29 53 55 707 31
747 -12 19 -54 27 -96 19 -24 -5 -86 -21 -138 -36 -94 -26 -142 -38 -210 -54
-19 -4 -71 -18 -115 -30 -86 -24 -113 -31 -220 -57 -38 -9 -95 -24 -125 -34
-30 -10 -95 -30 -145 -44 -49 -15 -104 -31 -121 -36 -17 -6 -41 -10 -53 -10
-30 0 -80 -30 -87 -53 -8 -26 21 -66 54 -72 74 -16 159 -82 184 -144 20 -49
38 -166 45 -277 8 -141 -13 -283 -65 -452 -29 -92 -42 -102 -311 -212 -134
-56 -246 -98 -249 -95 -3 3 0 137 6 297 6 161 16 442 22 623 6 182 13 391 16
467 l6 136 37 15 c38 15 66 24 191 57 41 10 116 31 165 45 168 49 419 110 515
125 61 9 208 36 285 52 28 5 110 12 183 15 l132 5 28 36 27 36 -3 189 c-3 208
-7 228 -64 270 -18 14 -60 39 -93 57 -231 127 -440 257 -695 435 -226 158
-352 235 -382 235 -14 0 -33 -9 -44 -21 -10 -11 -48 -41 -84 -67 -36 -25 -73
-56 -83 -68 -77 -98 -782 -449 -1111 -555 -113 -37 -150 -33 -166 17 -7 19
-10 40 -8 46 5 13 -32 48 -50 48 -6 0 -23 6 -39 14 -15 8 -66 26 -113 41 -47
16 -130 47 -185 70 -97 42 -144 63 -305 138 -74 34 -362 229 -430 290 -87 79
-108 77 -236 -21z m2670 -583 c101 -57 356 -225 399 -262 24 -21 27 -31 27
-83 0 -73 -24 -210 -39 -228 -12 -14 -52 -27 -266 -87 -89 -25 -134 -38 -171
-49 -62 -19 -89 -11 -89 25 0 17 4 189 9 383 7 310 10 352 24 352 9 0 57 -23
106 -51z m-2881 -89 c68 -63 227 -173 317 -219 41 -22 105 -54 141 -73 162
-85 336 -143 527 -175 18 -3 34 -8 37 -12 2 -4 -37 -31 -88 -60 -225 -127
-470 -341 -536 -468 -97 -187 -116 -325 -50 -366 14 -9 131 31 274 93 11 5 40
16 65 24 41 13 70 24 125 47 11 5 56 19 100 33 74 23 111 33 205 56 19 5 58
16 87 24 28 9 61 16 72 16 11 0 23 5 26 10 3 6 16 10 28 10 38 0 150 40 188
66 26 18 43 41 59 82 21 54 22 75 26 417 2 198 4 363 4 368 0 8 84 -32 140
-68 41 -26 51 -55 75 -235 9 -63 21 -152 27 -197 11 -81 8 -264 -11 -664 -6
-141 -11 -172 -30 -211 -12 -26 -27 -51 -34 -56 -21 -16 -130 -33 -141 -22 -7
7 -3 38 12 94 27 103 27 128 2 151 -17 15 -31 17 -97 12 -43 -4 -121 -16 -173
-27 -52 -11 -115 -25 -140 -30 -38 -8 -136 -36 -240 -70 -29 -9 -136 -48 -165
-59 -88 -36 -250 -121 -310 -163 -85 -58 -99 -83 -178 -318 -82 -240 -113
-419 -124 -723 -4 -118 -9 -160 -19 -164 -20 -7 -148 100 -195 164 -55 74
-107 179 -118 238 -5 27 -5 196 0 399 15 615 29 1511 29 1835 0 355 -9 327 83
241z m-1127 -1163 c2 -2 9 -88 15 -191 8 -138 8 -200 -1 -239 -53 -243 -56
-252 -130 -326 -50 -51 -89 -78 -173 -121 -128 -66 -131 -64 -122 50 8 97 32
296 40 335 9 45 94 314 113 359 34 80 141 151 215 142 21 -2 41 -6 43 -9z
m-1550 -1064 c-3 -104 -11 -271 -16 -373 -5 -102 -12 -255 -16 -341 l-7 -155
29 -27 c16 -15 44 -34 62 -43 18 -8 36 -22 39 -29 4 -12 -26 -68 -47 -85 -3
-3 -33 -39 -67 -80 -33 -41 -69 -84 -79 -95 -11 -11 -44 -49 -74 -85 -30 -36
-57 -67 -60 -70 -3 -3 -48 -52 -100 -109 -52 -57 -143 -147 -201 -200 -167
-152 -183 -166 -209 -198 -63 -75 -515 -371 -536 -350 -3 3 0 83 6 178 6 96
15 244 20 329 5 85 16 272 25 415 37 586 34 557 85 660 54 108 86 149 155 196
36 24 65 47 65 51 0 9 10 9 -290 17 l-225 6 65 49 c36 26 90 59 120 73 30 13
71 33 91 43 20 10 72 33 115 50 44 17 88 35 99 40 208 87 504 195 695 254 193
59 214 65 239 65 l24 1 -7 -187z m1261 -150 c192 -208 275 -296 398 -418 183
-184 293 -311 300 -348 7 -33 -7 -232 -24 -343 -4 -33 -19 -79 -31 -101 -24
-40 -22 -73 2 -73 8 0 72 46 143 103 202 160 409 294 640 412 167 86 512 227
530 218 36 -20 224 -287 312 -444 51 -89 217 -420 243 -484 4 -11 14 -36 22
-55 8 -19 21 -51 28 -70 6 -19 16 -44 20 -55 12 -28 28 -99 41 -175 11 -63 14
-101 38 -410 6 -80 16 -189 21 -244 6 -54 10 -154 10 -223 0 -68 5 -167 11
-219 11 -95 2 -447 -22 -819 -14 -217 -44 -567 -55 -624 -3 -19 -10 -91 -15
-160 -16 -207 -31 -311 -89 -621 -22 -116 -50 -240 -61 -268 -5 -13 -9 -30 -9
-39 0 -14 -60 -192 -80 -238 -5 -11 -18 -41 -29 -67 -12 -26 -25 -49 -30 -52
-4 -3 -11 25 -15 62 -10 113 -7 1675 4 1852 16 254 39 556 50 651 6 48 10 111
10 141 0 30 4 79 10 109 5 30 14 110 21 179 18 202 28 271 64 475 9 50 20 115
25 145 19 113 59 261 80 295 15 24 20 43 15 63 -9 44 -81 105 -185 157 -85 43
-121 61 -240 128 -106 59 -286 186 -385 271 -170 146 -218 196 -292 303 -59
85 -78 102 -112 103 -31 0 -99 -40 -130 -77 -255 -301 -419 -451 -701 -645
-157 -108 -363 -218 -407 -218 -6 0 -24 -16 -39 -35 -24 -31 -26 -41 -19 -83
11 -71 10 -94 -9 -262 -31 -270 -42 -350 -69 -500 -8 -41 -12 -81 -10 -87 8
-20 63 -30 113 -22 38 6 146 48 200 78 186 102 300 176 440 286 104 81 179
143 410 335 104 86 214 196 327 323 90 101 124 129 108 90 -4 -10 -11 -45 -16
-78 -4 -33 -15 -101 -24 -152 -8 -50 -19 -133 -24 -185 -10 -113 -42 -206 -92
-273 -54 -72 -222 -233 -310 -297 -177 -131 -377 -247 -575 -335 -27 -12 -69
-31 -94 -42 -94 -42 -252 -98 -365 -129 -157 -43 -240 -61 -305 -67 -138 -13
-125 -17 -123 40 2 65 18 204 38 335 9 58 20 137 25 175 17 127 29 209 45 305
8 52 20 129 26 170 22 170 28 209 43 285 8 44 18 96 21 115 10 59 70 315 85
365 4 17 11 49 15 73 8 52 20 53 131 17 78 -26 197 -34 209 -15 3 5 -51 64
-120 131 -86 84 -125 129 -125 144 0 23 18 57 112 211 20 33 46 68 58 79 23
21 26 53 5 61 -16 6 -123 -31 -220 -76 -55 -25 -62 -26 -77 -12 -10 8 -18 26
-18 39 0 14 -6 61 -14 106 -30 168 -36 260 -36 518 0 273 3 309 25 309 8 0 62
-53 122 -117z m1419 -2847 c3 -8 1 -40 -5 -72 -13 -72 -30 -238 -42 -404 -4
-69 -13 -190 -18 -270 -17 -243 -31 -680 -30 -970 0 -151 -4 -484 -10 -740 -6
-256 -11 -511 -11 -567 l0 -102 -55 -36 c-31 -19 -58 -35 -61 -35 -19 0 -249
195 -359 305 -96 96 -153 173 -215 292 -83 160 -78 118 -69 594 5 233 14 566
19 739 5 173 13 441 16 594 4 190 10 283 18 291 6 6 92 51 191 99 99 48 198
96 220 108 71 36 329 164 355 176 34 15 50 14 56 -2z m-1717 -771 c36 -107 48
-172 75 -415 9 -80 18 -155 21 -167 10 -44 7 -692 -4 -740 -6 -27 -15 -79 -22
-118 -6 -38 -15 -92 -20 -120 -5 -27 -11 -75 -15 -105 -4 -30 -10 -60 -15 -65
-4 -6 -23 -57 -43 -115 -41 -124 -72 -195 -79 -183 -9 16 -26 109 -38 203 -12
98 -15 772 -4 790 4 6 11 124 16 263 10 259 20 463 38 742 6 88 10 167 11 175
1 27 55 -73 79 -145z"/>
<path d="M7804 5859 c-22 -24 -27 -115 -43 -704 -6 -203 -13 -380 -17 -391 -3
-12 1 -35 10 -52 17 -33 95 -102 115 -102 7 0 50 -26 94 -59 316 -227 692
-405 930 -440 53 -7 59 -6 69 12 13 26 4 507 -11 552 -5 17 -22 71 -37 120
-16 50 -32 94 -36 100 -4 5 -8 17 -8 27 0 39 -108 239 -150 278 -3 3 -32 39
-65 80 -187 235 -511 486 -740 573 -85 32 -87 33 -111 6z"/>
<path d="M7744 4269 c-3 -6 -8 -79 -10 -162 -2 -84 -11 -406 -19 -717 -34
-1217 -42 -1605 -35 -1632 9 -30 -10 -55 -32 -42 -20 12 -222 157 -228 163
-26 30 -241 178 -335 232 -33 18 -78 44 -100 57 -41 23 -312 157 -375 185
-189 83 -291 116 -414 132 -198 27 -291 19 -456 -38 -25 -9 -65 -21 -90 -28
-25 -7 -68 -23 -97 -35 -28 -13 -57 -24 -63 -24 -5 0 -18 -4 -28 -9 -9 -5 -48
-22 -87 -37 -118 -47 -535 -259 -643 -328 -23 -14 -44 -26 -47 -26 -8 0 -197
-121 -220 -141 -11 -9 -36 -25 -55 -35 -97 -52 -200 -121 -206 -138 -5 -14 1
-27 20 -43 32 -27 36 -27 141 -9 184 32 682 14 900 -32 54 -12 280 -85 333
-108 17 -8 47 -20 65 -28 17 -8 55 -24 82 -36 118 -50 437 -242 593 -357 40
-29 104 -84 143 -121 74 -70 110 -92 139 -85 10 3 86 74 169 159 179 182 382
338 601 463 61 35 338 173 416 208 99 44 180 81 224 101 160 72 273 112 490
175 114 33 237 62 305 72 30 4 55 19 90 51 l50 45 -34 28 -33 27 11 335 c6
184 16 444 21 579 6 135 10 300 10 367 0 84 5 136 16 168 27 80 17 89 -151
141 -93 29 -248 87 -332 125 -254 114 -588 303 -671 379 -36 32 -47 36 -58 19z"/>
</g>
</svg>
