<?xml version="1.0" standalone="no"?>
<!DOCTYPE svg PUBLIC "-//W3C//DTD SVG 20010904//EN"
 "http://www.w3.org/TR/2001/REC-SVG-20010904/DTD/svg10.dtd">
<svg version="1.0" xmlns="http://www.w3.org/2000/svg"
 width="1795.000000pt" height="1311.000000pt" viewBox="0 0 1795.000000 1311.000000"
 preserveAspectRatio="xMidYMid meet">
<metadata>
Created by potrace 1.16, written by Peter Selinger 2001-2019
</metadata>
<g transform="translate(0.000000,1311.000000) scale(0.100000,-0.100000)"
fill="#000000" stroke="none">
<path d="M7238 11085 c-5 -5 -339 -27 -450 -30 -71 -3 -116 -9 -137 -19 -29
-16 -30 -17 -30 -98 0 -46 -4 -265 -10 -488 -6 -223 -15 -722 -21 -1110 -21
-1468 -41 -2528 -101 -5412 -12 -596 -12 -618 6 -638 21 -24 42 -25 70 -4 19
14 20 31 27 282 4 147 12 560 17 917 18 1090 28 1596 61 2990 6 242 17 724 25
1070 8 347 20 810 25 1030 6 220 15 615 20 879 6 263 13 483 16 488 4 6 24 7
48 4 22 -3 131 -1 241 5 308 17 910 14 1015 -5 47 -9 100 -16 119 -16 137 -1
431 -102 553 -190 109 -79 303 -291 348 -380 16 -31 43 -82 61 -111 17 -30 39
-81 49 -114 10 -33 25 -78 34 -100 19 -43 27 -86 52 -260 10 -74 23 -121 37
-145 20 -32 22 -48 22 -200 0 -369 -47 -737 -111 -863 -83 -162 -240 -325
-399 -412 -27 -15 -55 -31 -61 -36 -12 -9 -99 -43 -289 -111 -118 -42 -265
-76 -437 -102 -83 -13 -173 -17 -395 -15 -253 1 -293 -1 -331 -16 l-44 -18 7
-81 c3 -45 7 -119 9 -166 3 -86 12 -135 48 -265 11 -38 24 -86 29 -105 6 -19
19 -78 30 -130 11 -52 24 -106 28 -120 15 -43 30 -101 56 -215 14 -60 32 -130
40 -155 42 -134 75 -249 81 -284 4 -21 16 -62 26 -90 37 -95 68 -188 68 -201
0 -7 9 -35 20 -60 11 -26 29 -80 39 -119 10 -39 33 -101 50 -139 17 -37 31
-72 31 -77 0 -22 208 -450 250 -515 15 -22 44 -76 65 -119 22 -44 49 -91 60
-105 12 -14 38 -52 58 -83 134 -212 454 -507 550 -508 15 0 46 -8 70 -19 79
-34 97 -41 163 -56 76 -18 213 -20 281 -4 190 43 252 70 313 131 22 23 40 45
40 50 0 5 13 28 29 51 48 71 76 146 91 240 22 144 38 265 37 287 0 14 0 42 1
63 l2 37 61 0 c77 0 104 -13 88 -42 -6 -11 -9 -36 -6 -54 3 -18 -3 -81 -14
-140 -10 -59 -19 -126 -19 -148 -1 -66 -37 -192 -83 -286 -41 -85 -139 -203
-179 -216 -12 -3 -44 -21 -72 -38 -151 -95 -455 -130 -655 -77 -217 57 -457
221 -628 428 -124 150 -223 281 -234 310 -5 13 -26 50 -47 81 -22 31 -51 80
-67 107 -40 73 -93 162 -134 225 -20 30 -38 60 -40 65 -2 6 -26 60 -54 120
-121 268 -179 418 -258 665 -23 69 -52 153 -65 188 -23 61 -70 222 -101 352
-9 36 -24 97 -35 135 -43 155 -89 394 -123 635 -14 102 -30 204 -35 228 -6 23
-10 73 -10 111 0 39 -7 84 -15 105 l-15 36 -104 0 -104 0 -6 -72 c-3 -40 -8
-244 -11 -453 -3 -209 -10 -564 -15 -790 -5 -225 -14 -621 -20 -880 -14 -641
-26 -1153 -41 -1707 -12 -450 -12 -468 6 -488 24 -27 61 -26 79 3 15 23 19
110 46 1182 6 231 15 569 20 750 14 472 29 999 40 1455 11 478 19 645 30 633
5 -4 18 -84 30 -178 11 -93 25 -192 30 -220 6 -27 19 -99 30 -160 11 -60 30
-139 41 -175 12 -36 27 -99 35 -140 8 -41 23 -100 33 -130 11 -30 23 -71 26
-90 9 -42 42 -148 55 -175 6 -11 35 -94 64 -185 88 -267 170 -482 249 -650 14
-30 37 -84 51 -119 14 -35 36 -78 49 -95 13 -17 92 -138 175 -269 246 -386
453 -616 729 -810 188 -132 309 -170 543 -171 186 -1 272 11 404 54 213 71
353 207 457 445 32 72 59 174 59 220 0 22 7 76 14 120 12 68 14 188 7 340 -2
52 -29 74 -116 96 -71 18 -88 19 -150 8 -59 -10 -75 -17 -103 -47 -32 -34 -33
-38 -28 -91 18 -163 18 -262 1 -304 -32 -78 -55 -142 -55 -154 0 -38 -45 -124
-90 -170 -96 -100 -197 -135 -380 -128 -213 8 -360 67 -521 208 -212 187 -353
392 -569 827 -122 246 -189 395 -217 485 -8 28 -24 75 -35 105 -10 30 -26 78
-35 105 -8 28 -30 91 -49 140 -18 50 -42 124 -53 165 -10 41 -36 129 -56 195
-20 66 -41 136 -45 155 -5 19 -20 84 -34 143 -14 60 -28 112 -30 115 -2 4 -16
66 -30 137 -15 72 -31 141 -35 155 -5 14 -14 57 -21 95 -6 39 -23 125 -36 193
-13 68 -24 138 -24 156 l0 33 288 7 c376 9 610 44 832 121 58 20 149 52 203
71 240 84 465 267 595 484 58 96 74 138 103 272 32 152 37 192 53 448 16 244
14 313 -13 468 -55 314 -123 561 -183 662 -14 25 -45 81 -68 125 -60 112 -250
319 -373 406 -112 79 -309 162 -452 190 -56 11 -287 44 -410 59 -70 8 -720 21
-727 15z"/>
<path d="M10017 11060 c-67 -9 -103 -25 -109 -49 -3 -9 -1 -56 4 -106 30 -316
36 -432 37 -710 1 -273 -14 -589 -34 -710 -3 -16 -9 -98 -15 -181 -10 -151
-40 -413 -59 -509 -32 -165 -93 -364 -147 -483 -13 -29 -24 -55 -24 -58 0 -3
-16 -40 -37 -82 -84 -178 -286 -443 -408 -538 -123 -96 -224 -158 -355 -220
-52 -24 -103 -49 -113 -55 -10 -6 -51 -14 -91 -18 -150 -17 -178 -54 -157
-204 16 -115 40 -186 73 -210 32 -24 91 -26 139 -4 19 8 79 27 134 41 119 32
269 103 391 185 119 80 164 119 324 281 155 156 269 314 403 560 16 30 35 64
41 75 7 11 29 65 50 120 21 55 45 116 54 135 9 19 33 78 53 129 28 71 43 97
61 104 34 14 811 30 972 20 l138 -8 15 -40 c19 -51 82 -211 98 -250 7 -16 20
-51 29 -77 28 -85 77 -201 124 -295 25 -51 44 -94 41 -96 -2 -2 -56 -16 -119
-31 -152 -35 -177 -42 -300 -82 -224 -73 -616 -205 -635 -213 -11 -5 -77 -33
-147 -61 -163 -67 -201 -98 -217 -177 -12 -63 -9 -83 36 -213 15 -41 31 -78
37 -82 20 -14 61 -8 91 13 24 16 211 109 320 159 28 13 247 95 420 157 39 13
79 29 90 33 11 5 45 17 75 26 30 9 80 24 110 34 30 10 87 26 125 34 132 31
155 36 198 45 116 25 162 33 278 45 118 12 129 15 167 45 32 26 41 41 46 75 8
53 7 57 -74 185 -36 58 -74 124 -84 146 -11 22 -58 121 -106 220 -49 99 -102
221 -118 270 -50 148 -92 268 -108 302 -31 68 -100 267 -182 528 -85 269 -105
341 -152 555 -12 52 -27 122 -34 155 -8 33 -19 83 -24 110 -6 28 -18 82 -26
120 -22 97 -96 479 -106 540 -5 28 -18 95 -29 149 -35 165 -14 158 -461 167
-432 9 -626 9 -703 -1z m1053 -185 c6 -38 16 -97 20 -130 5 -33 21 -114 35
-180 14 -66 32 -156 41 -200 8 -44 26 -127 39 -185 13 -58 35 -159 50 -225 78
-354 143 -599 200 -755 15 -41 30 -88 35 -105 4 -16 19 -61 33 -100 14 -38 39
-110 57 -160 17 -49 38 -105 47 -124 14 -32 45 -119 115 -326 16 -49 40 -110
53 -135 12 -25 62 -126 111 -225 48 -99 100 -198 114 -220 57 -87 91 -157 85
-175 -8 -25 -51 -37 -155 -45 -84 -6 -172 -19 -240 -35 -19 -5 -62 -14 -95
-20 -132 -26 -324 -82 -470 -135 -55 -20 -143 -52 -195 -70 -137 -48 -319
-124 -440 -183 -141 -68 -144 -68 -148 -13 -2 25 2 56 9 69 13 23 110 103 156
130 53 29 336 134 438 162 30 8 81 26 267 94 108 39 377 116 406 116 10 0 39
7 64 16 34 11 48 22 52 40 12 47 -7 129 -51 218 -23 49 -43 93 -43 97 0 5 -11
32 -24 61 -13 29 -28 67 -34 83 -6 17 -38 100 -71 185 -33 85 -67 176 -76 202
-12 33 -25 49 -44 56 -83 32 -1175 32 -1278 1 -35 -11 -63 -47 -63 -81 0 -13
-7 -41 -14 -63 -8 -22 -38 -105 -66 -185 -29 -80 -54 -154 -58 -165 -20 -71
-231 -407 -328 -525 -115 -139 -300 -306 -437 -394 -125 -80 -225 -129 -355
-171 -143 -47 -158 -44 -167 29 -4 29 -5 61 -3 70 2 11 35 28 98 50 195 67
339 140 484 244 259 186 526 586 647 967 107 335 147 616 190 1315 14 211 3
816 -16 965 -8 61 -15 138 -15 173 l0 63 514 -3 514 -3 12 -70z"/>
<path d="M10252 10809 c-20 -6 -36 -19 -42 -34 -5 -14 -5 -214 1 -507 13 -583
9 -703 -38 -1113 -27 -235 -27 -242 -6 -248 84 -24 161 -27 640 -24 420 2 514
5 528 17 20 17 17 42 -20 160 -15 47 -31 101 -37 120 -5 19 -13 49 -18 65 -5
17 -19 66 -30 110 -12 44 -32 114 -44 155 -13 41 -29 95 -36 120 -6 25 -27 95
-46 155 -35 113 -72 252 -92 340 -6 28 -22 98 -36 157 -15 59 -26 117 -26 129
0 12 -4 38 -10 58 -21 81 -40 179 -44 226 -7 88 -5 87 -126 104 -99 15 -479
22 -518 10z m375 -126 c78 -3 146 -9 152 -13 10 -6 19 -44 61 -285 11 -60 23
-126 28 -145 5 -19 15 -62 22 -95 23 -106 71 -287 99 -375 16 -47 34 -110 41
-140 7 -30 24 -89 36 -130 13 -41 30 -104 39 -140 8 -36 22 -87 31 -115 9 -27
20 -63 24 -80 5 -16 16 -57 24 -89 12 -44 14 -61 5 -67 -6 -4 -176 -8 -378
-10 -201 -1 -395 -3 -431 -3 l-65 -1 -5 40 c-3 22 -9 46 -14 53 -4 7 -3 66 3
130 45 480 49 619 30 1151 -9 262 -9 315 2 323 8 5 46 7 84 3 39 -3 134 -8
212 -12z"/>
<path d="M13280 11020 c-25 -5 -97 -16 -160 -25 -63 -9 -126 -20 -140 -25 -14
-4 -52 -16 -85 -25 -116 -33 -180 -58 -230 -90 -47 -31 -185 -165 -216 -211
-8 -12 -47 -69 -86 -127 -40 -59 -73 -108 -73 -111 0 -2 -15 -30 -33 -63 -27
-48 -76 -164 -112 -268 -25 -71 -71 -280 -101 -455 -33 -191 -35 -221 -37
-435 -1 -193 2 -239 16 -285 10 -30 22 -86 27 -124 21 -147 86 -361 140 -462
61 -116 229 -317 340 -406 76 -61 190 -126 249 -143 31 -9 81 -23 111 -31 30
-9 69 -20 86 -25 40 -12 491 -12 546 0 24 6 68 15 98 22 56 12 66 15 220 64
147 47 286 121 365 197 39 37 76 77 82 90 19 40 73 177 87 221 75 228 80 257
115 582 5 44 16 134 25 200 22 165 21 276 -1 304 -18 21 -22 21 -153 12 -150
-10 -187 -17 -211 -37 -17 -15 -35 -136 -44 -304 -4 -84 -22 -204 -56 -395
-14 -78 -43 -172 -69 -229 -11 -25 -20 -48 -20 -51 0 -16 -71 -107 -130 -165
-84 -85 -157 -121 -290 -142 -77 -13 -405 -15 -470 -4 -129 23 -312 108 -388
180 -62 59 -222 350 -222 403 0 9 -4 30 -9 47 -37 121 -46 223 -45 496 1 272
7 340 45 515 14 64 57 205 69 227 6 10 10 23 10 30 0 45 188 354 252 414 65
62 174 144 218 165 147 70 341 96 645 85 227 -8 484 -32 499 -47 3 -2 8 -183
13 -401 8 -381 9 -398 29 -425 19 -25 28 -28 89 -31 38 -2 95 4 130 13 33 8
75 15 92 15 59 0 60 8 64 300 7 458 1 890 -11 905 -20 24 -105 38 -300 46
-296 13 -919 19 -970 9z m848 -120 c172 -5 317 -12 322 -15 6 -4 10 -192 10
-505 l0 -500 -27 -5 c-16 -4 -46 -11 -69 -16 -23 -6 -52 -9 -65 -7 l-24 3 -6
405 c-3 223 -6 406 -7 408 -7 10 -67 27 -122 33 -584 65 -832 62 -1073 -15
-220 -71 -295 -130 -468 -366 -106 -145 -133 -201 -209 -435 -82 -254 -89
-297 -96 -590 -5 -195 -3 -233 16 -335 12 -63 25 -137 30 -165 11 -65 43 -172
79 -270 4 -11 34 -74 67 -140 44 -90 74 -136 119 -183 104 -109 280 -202 430
-225 83 -14 377 -13 490 1 87 10 151 27 160 42 4 6 17 10 30 10 13 0 56 16 94
35 57 29 85 52 143 119 70 80 87 107 122 186 24 56 56 161 67 215 40 214 58
345 64 455 12 220 13 229 45 245 17 9 56 15 96 15 l66 0 -6 -102 c-4 -57 -11
-173 -15 -258 -15 -261 -30 -345 -104 -570 -43 -129 -61 -170 -111 -244 -36
-52 -75 -98 -97 -112 -65 -41 -172 -91 -249 -117 -129 -42 -171 -53 -338 -86
-120 -24 -454 -8 -612 29 -213 50 -478 263 -566 455 -40 86 -103 274 -129 379
-72 300 -95 698 -52 896 9 41 24 109 33 150 9 41 20 89 25 105 5 17 20 71 34
120 14 50 30 99 35 110 4 11 21 53 36 94 15 41 42 101 61 134 18 32 33 61 33
64 0 18 210 310 249 345 50 45 61 52 151 91 179 78 213 85 590 131 38 5 262 1
748 -14z"/>
<path d="M3805 10998 c-221 -9 -340 -27 -600 -88 -44 -10 -112 -26 -151 -34
-67 -15 -139 -38 -265 -85 -50 -19 -264 -131 -344 -181 -17 -11 -40 -38 -50
-60 -10 -22 -22 -40 -26 -40 -15 0 -140 -123 -199 -195 -73 -89 -162 -227
-184 -285 -16 -41 -31 -68 -88 -165 -25 -41 -134 -269 -175 -365 -9 -19 -26
-75 -40 -125 -13 -49 -29 -106 -34 -125 -48 -164 -98 -499 -120 -795 -25 -350
-29 -444 -38 -925 -6 -278 -18 -676 -27 -885 -23 -501 -24 -1121 -4 -1460 5
-88 12 -236 15 -330 4 -158 12 -288 35 -575 22 -273 100 -846 137 -1000 8 -36
25 -117 38 -180 12 -64 36 -161 52 -215 17 -55 39 -127 48 -160 10 -33 26 -78
36 -100 29 -63 78 -185 101 -250 12 -33 41 -94 66 -135 24 -41 56 -95 70 -120
51 -90 60 -106 110 -190 72 -121 118 -176 213 -257 172 -145 325 -241 539
-335 100 -45 136 -55 330 -94 179 -37 499 -14 765 53 76 20 324 100 347 113
10 6 22 10 28 10 11 0 86 33 200 89 65 31 139 73 273 155 55 34 182 118 187
125 3 4 41 36 85 71 44 35 110 93 146 127 36 35 73 69 81 76 8 6 58 64 110
127 107 131 243 340 310 480 55 114 84 193 144 385 15 50 41 131 57 180 16 50
33 106 37 125 35 162 64 317 71 380 4 41 15 125 24 185 21 142 33 260 44 412
5 67 12 126 15 131 11 17 39 690 41 958 0 129 -21 142 -250 149 -351 12 -928
26 -1595 40 -399 8 -772 20 -830 25 -58 6 -134 10 -169 10 -34 0 -82 5 -107
11 l-45 12 5 381 c3 209 8 451 11 536 3 85 4 164 1 175 -7 28 -53 42 -163 50
-102 8 -187 0 -206 -20 -29 -28 -39 -241 -67 -1365 -24 -967 -30 -1290 -21
-1312 13 -35 29 -45 104 -62 71 -17 262 -22 271 -8 16 27 27 181 36 527 5 215
13 447 16 518 l7 127 400 0 c220 0 486 -4 591 -10 105 -5 430 -17 721 -26 292
-8 613 -19 715 -22 l185 -7 -2 -354 c-1 -195 -6 -384 -12 -420 -6 -36 -15
-102 -21 -146 -23 -172 -55 -365 -70 -425 -4 -19 -14 -66 -20 -105 -6 -38 -18
-97 -25 -130 -7 -33 -18 -87 -25 -120 -12 -62 -22 -100 -71 -280 -21 -79 -41
-142 -48 -160 -28 -64 -165 -332 -181 -355 -11 -16 -20 -31 -20 -35 0 -9 -153
-227 -204 -290 -61 -75 -125 -136 -218 -206 -245 -185 -464 -323 -612 -385
-124 -53 -269 -104 -294 -104 -8 0 -29 -4 -46 -9 -97 -30 -197 -41 -406 -46
-124 -3 -229 -6 -235 -6 -49 -3 -187 38 -293 87 -29 13 -55 24 -58 24 -3 0
-38 15 -77 34 -40 19 -88 42 -108 50 -42 18 -179 158 -261 267 -54 73 -136
206 -170 279 -14 31 -40 87 -113 245 -13 28 -33 75 -45 105 -11 30 -25 64 -30
75 -11 24 -70 198 -80 240 -5 17 -16 57 -25 90 -16 57 -28 115 -45 215 -4 25
-17 92 -29 150 -31 155 -38 194 -56 310 -9 58 -20 127 -26 153 -5 26 -9 74 -9
105 0 31 -5 86 -10 122 -5 36 -11 150 -14 254 -4 104 -10 216 -15 250 -28 182
-51 948 -40 1321 4 116 7 451 8 745 1 514 9 761 33 1030 6 69 14 170 19 225
13 160 27 292 44 410 9 61 20 151 25 200 11 106 24 200 38 270 6 28 15 82 22
120 7 39 19 95 27 125 30 112 42 157 61 230 35 136 89 279 173 455 43 91 210
307 323 421 103 102 169 152 286 216 36 19 81 44 100 55 83 46 244 100 365
123 22 4 65 13 95 19 99 21 312 42 440 43 120 0 361 -21 465 -41 87 -18 219
-51 240 -60 11 -6 61 -19 110 -31 222 -53 510 -212 645 -357 98 -104 119 -136
235 -359 76 -146 103 -251 167 -644 16 -97 23 -369 16 -575 -19 -517 -41
-1056 -63 -1595 -9 -206 -19 -486 -22 -622 -6 -263 -2 -297 40 -320 26 -13
307 -22 326 -10 19 14 29 136 41 506 25 752 30 884 39 1136 12 320 28 675 43
985 6 127 8 255 4 285 -4 30 -11 118 -15 195 -8 123 -19 195 -51 325 -5 19
-13 55 -19 80 -34 157 -159 479 -229 588 -30 48 -71 114 -91 147 -20 35 -90
114 -166 190 -144 144 -208 186 -420 276 -60 26 -135 58 -165 71 -52 24 -141
47 -435 113 -38 9 -79 18 -90 21 -27 7 -115 19 -280 38 -196 22 -201 22 -390
14z m325 -113 c129 -13 326 -46 400 -65 19 -5 87 -21 150 -36 213 -49 238 -57
370 -117 30 -13 84 -35 120 -48 79 -28 239 -126 298 -183 105 -100 320 -405
361 -513 13 -32 27 -67 31 -78 39 -95 71 -198 94 -305 9 -41 21 -91 26 -110
16 -65 39 -224 50 -353 11 -125 16 -1049 6 -1065 -2 -4 -9 -129 -15 -277 -6
-149 -15 -364 -21 -480 -6 -115 -15 -302 -20 -415 -5 -113 -15 -314 -21 -447
-7 -133 -16 -248 -20 -255 -10 -16 -156 -25 -171 -10 -6 6 -6 78 1 208 13 243
27 628 61 1754 5 179 14 429 20 555 14 335 -6 607 -55 760 -7 22 -23 85 -35
140 -12 55 -29 123 -38 150 -21 68 -175 366 -227 440 -50 70 -209 235 -226
235 -7 0 -58 26 -113 59 -160 93 -286 144 -437 176 -37 8 -84 21 -105 29 -35
13 -213 56 -289 70 -105 20 -331 39 -449 38 -217 -1 -469 -34 -668 -88 -48
-13 -91 -24 -97 -24 -6 0 -36 -12 -68 -26 -32 -14 -67 -30 -78 -34 -11 -5 -42
-18 -69 -29 -97 -42 -297 -185 -392 -283 -105 -107 -240 -279 -305 -388 -47
-78 -149 -282 -149 -298 0 -5 -14 -42 -31 -83 -33 -79 -34 -81 -74 -234 -28
-109 -40 -175 -55 -305 -6 -47 -13 -92 -15 -101 -3 -10 -10 -43 -16 -76 -5
-32 -14 -83 -20 -113 -11 -63 -34 -238 -54 -420 -8 -69 -15 -180 -15 -247 0
-67 -4 -144 -10 -170 -25 -122 -39 -510 -39 -1051 0 -304 -3 -557 -6 -562 -3
-5 -10 -139 -15 -297 -10 -285 0 -762 20 -953 5 -47 20 -267 34 -490 32 -485
40 -584 61 -715 9 -55 20 -122 25 -150 17 -105 22 -133 45 -230 13 -55 30
-131 39 -170 9 -38 24 -95 32 -125 9 -30 19 -71 24 -90 44 -203 107 -373 215
-590 194 -386 331 -574 501 -685 46 -30 85 -55 88 -55 3 0 31 -16 63 -35 32
-19 65 -35 73 -35 13 0 114 -35 175 -60 59 -24 189 -43 382 -56 138 -9 331 12
503 56 19 5 64 16 100 25 100 25 201 63 240 90 19 13 82 46 140 74 58 27 143
72 189 100 46 28 86 51 88 51 9 0 116 80 176 131 246 212 404 398 515 609 27
52 65 122 84 155 39 69 60 112 98 204 15 36 39 91 53 121 14 30 28 73 30 95 2
22 12 65 21 95 17 55 25 84 44 170 6 25 20 77 31 115 11 39 21 82 21 97 0 15
4 47 9 70 26 116 68 395 96 643 8 75 17 270 20 460 3 182 6 352 8 379 2 48 1
50 -28 57 -16 4 -284 12 -595 18 -1618 31 -1694 33 -2026 47 l-150 6 -27 -35
-26 -35 -6 -483 c-3 -266 -8 -522 -11 -568 l-6 -84 -75 5 c-45 3 -80 11 -89
19 -12 13 -13 61 -4 329 17 576 30 1099 41 1649 5 300 12 548 15 553 6 10 83
10 138 1 l39 -6 -6 -211 c-4 -116 -11 -350 -17 -521 -10 -332 -8 -356 36 -388
21 -16 49 -19 177 -22 388 -8 1580 -42 1947 -55 157 -6 410 -10 563 -10 l278
0 -5 -187 c-4 -167 -10 -304 -45 -933 -5 -85 -16 -193 -25 -240 -8 -47 -21
-134 -27 -195 -20 -199 -27 -260 -34 -290 -7 -31 -41 -198 -55 -270 -10 -52
-83 -284 -110 -350 -7 -16 -17 -41 -22 -55 -6 -14 -14 -33 -19 -42 -5 -10 -9
-23 -9 -29 0 -12 -68 -150 -118 -241 -18 -31 -32 -62 -32 -67 0 -19 -177 -282
-227 -336 -10 -11 -54 -60 -97 -108 -128 -142 -327 -302 -451 -362 -33 -16
-93 -48 -133 -72 -41 -24 -75 -43 -77 -43 -2 0 -39 -21 -82 -46 -149 -88 -221
-118 -508 -205 -83 -25 -106 -31 -245 -57 -144 -28 -301 -36 -450 -23 -111 9
-171 21 -315 62 -87 25 -341 159 -435 230 -199 149 -313 285 -440 524 -29 55
-61 111 -71 125 -9 14 -28 50 -42 80 -28 62 -139 347 -156 400 -39 122 -76
260 -96 360 -13 63 -29 133 -35 155 -7 22 -16 94 -20 160 -5 66 -15 156 -24
200 -21 107 -41 241 -60 410 -9 77 -21 168 -26 201 -6 34 -10 90 -10 126 0 35
-5 111 -10 169 -6 57 -15 217 -20 354 -6 138 -16 363 -23 500 -17 349 -10
1015 23 2125 25 834 81 1403 169 1710 5 19 21 78 34 132 14 53 39 126 56 163
17 36 31 72 31 79 0 6 4 16 8 21 5 6 21 42 37 80 15 39 31 75 35 80 4 6 25 44
46 85 21 41 59 103 84 137 25 34 79 109 120 167 41 57 122 151 180 209 264
261 495 371 970 462 36 7 101 20 145 29 165 34 430 43 635 21z"/>
<path d="M14887 10998 c-14 -10 -21 -35 -28 -89 -21 -182 -30 -318 -30 -456 1
-349 -7 -527 -40 -833 -5 -47 -13 -206 -18 -355 -5 -148 -14 -335 -20 -415 -6
-80 -13 -280 -15 -445 -3 -165 -8 -319 -12 -341 -3 -23 -2 -44 3 -47 5 -3 254
-8 553 -12 300 -3 680 -10 845 -15 165 -5 607 -15 982 -21 623 -11 684 -11
706 4 23 15 25 24 32 134 4 65 8 135 8 156 0 69 -5 71 -261 79 -164 5 -1896
25 -2416 28 l-29 0 7 68 c4 37 9 225 12 417 2 193 7 361 10 374 l5 24 152 -7
c84 -3 315 -9 514 -13 l362 -6 3 -151 3 -151 30 -14 c39 -20 278 -28 327 -12
l35 11 12 428 c7 235 11 474 9 532 -3 104 -3 105 -31 118 -18 9 -80 16 -165
18 -182 7 -174 13 -178 -153 -2 -70 -6 -146 -9 -168 l-5 -40 -518 2 -517 2 1
53 c2 70 19 265 32 353 6 39 16 150 23 247 6 98 17 203 23 235 l12 58 124 0
c69 0 348 -6 620 -12 888 -22 1697 -36 1733 -29 53 10 67 57 67 232 0 124 -2
143 -18 157 -15 14 -55 19 -198 27 -205 11 -1142 27 -2079 36 -543 5 -643 4
-658 -8z m443 -90 c63 2 324 -4 580 -12 383 -12 1089 -29 1710 -39 l115 -2 3
-92 3 -92 -328 4 c-1827 26 -1960 27 -2011 16 -29 -6 -86 -11 -126 -11 -87 0
-97 -8 -107 -84 -4 -28 -14 -103 -23 -166 -16 -110 -36 -481 -39 -735 l-2
-120 35 -16 c28 -13 75 -18 225 -20 345 -7 946 -2 955 7 5 5 14 88 20 184 6
96 13 176 14 178 8 7 180 2 187 -5 12 -13 -11 -886 -24 -899 -7 -7 -56 -15
-111 -19 l-98 -6 7 155 c6 127 5 157 -6 161 -37 12 -287 28 -589 37 -184 5
-400 12 -479 14 -97 4 -148 1 -155 -6 -11 -11 -19 -208 -32 -757 l-6 -262 33
-16 c24 -13 76 -19 218 -25 422 -19 1764 -50 2197 -50 173 0 243 -3 252 -12
21 -21 11 -153 -13 -162 -8 -3 -202 0 -432 5 -230 5 -751 14 -1158 20 -1070
15 -1268 20 -1282 31 -18 15 -16 536 3 843 9 132 19 330 23 440 5 110 14 247
20 305 27 245 31 293 41 450 6 91 8 228 5 305 -6 167 11 446 28 458 7 4 62 4
122 0 61 -4 162 -7 225 -5z"/>
<path d="M7073 10762 c-51 -4 -96 -11 -102 -17 -12 -12 -30 -579 -61 -1955
-14 -584 -8 -681 39 -698 109 -42 1030 -24 1290 24 171 32 329 101 522 227
140 91 153 103 217 197 136 200 182 393 182 765 0 214 -17 346 -69 550 -21 81
-118 297 -190 420 -36 63 -105 141 -201 228 -83 76 -131 99 -320 159 -143 45
-197 56 -330 68 -58 6 -132 15 -165 20 -74 12 -686 20 -812 12z m897 -137
c122 -5 200 -21 365 -77 148 -50 160 -56 256 -130 163 -124 235 -225 329 -463
115 -291 142 -704 69 -1068 -39 -195 -137 -334 -327 -460 -235 -156 -346 -184
-962 -238 -133 -11 -549 -7 -633 7 l-38 6 6 282 c3 154 10 400 15 546 5 146
14 526 20 845 13 715 15 743 43 756 20 8 547 4 857 -6z"/>
<path d="M14931 7744 c-13 -30 -11 -63 20 -314 11 -85 24 -189 29 -230 6 -41
14 -106 19 -145 6 -38 17 -124 26 -190 9 -66 21 -151 26 -190 5 -38 16 -119
24 -180 9 -60 20 -144 26 -185 15 -118 26 -196 44 -320 9 -63 21 -146 25 -185
20 -157 29 -223 38 -285 10 -60 15 -98 42 -307 6 -43 15 -112 21 -153 6 -41
15 -109 20 -150 16 -127 27 -210 44 -335 9 -66 20 -151 25 -190 24 -191 31
-248 44 -345 8 -58 17 -127 21 -155 3 -27 10 -81 15 -120 5 -38 17 -124 25
-190 9 -66 20 -149 25 -185 5 -36 12 -87 15 -115 2 -27 12 -99 20 -160 9 -60
20 -146 26 -190 18 -146 27 -219 44 -340 9 -66 21 -154 26 -195 5 -41 14 -106
18 -145 5 -38 17 -122 26 -185 9 -63 20 -146 25 -185 23 -188 31 -251 35 -270
6 -26 25 -178 34 -282 4 -45 13 -89 21 -97 10 -13 40 -16 175 -16 145 0 165 2
186 19 20 16 22 22 12 42 -14 30 -31 152 -74 524 -5 50 -14 122 -19 160 -5 39
-16 126 -25 195 -9 69 -20 150 -25 181 -6 30 -10 71 -10 90 0 20 -4 60 -9 90
-6 30 -17 115 -26 189 -9 74 -20 169 -25 210 -5 41 -14 113 -20 160 -5 47 -17
139 -25 205 -8 66 -20 156 -25 200 -24 197 -41 325 -50 390 -5 39 -14 106 -20
150 -5 44 -17 134 -25 200 -9 66 -20 152 -25 190 -5 39 -14 108 -19 155 -6 47
-17 139 -26 205 -8 66 -20 158 -25 205 -6 47 -15 119 -20 160 -5 41 -16 136
-25 210 -9 74 -20 164 -25 200 -5 36 -16 126 -25 200 -28 232 -36 293 -45 356
-6 34 -10 81 -10 105 l1 44 15 -35 c9 -19 45 -111 81 -205 35 -93 68 -179 73
-190 4 -11 142 -366 305 -790 261 -677 322 -836 355 -920 10 -25 54 -139 85
-220 13 -33 60 -157 105 -275 45 -118 92 -242 105 -275 13 -33 51 -134 85
-225 34 -91 65 -174 70 -185 5 -11 36 -94 70 -185 34 -91 65 -174 70 -185 21
-51 64 -165 130 -340 63 -166 102 -270 130 -340 5 -11 36 -94 70 -185 34 -91
72 -192 85 -225 13 -33 40 -105 61 -160 20 -55 44 -106 52 -112 11 -9 58 -13
153 -13 116 0 140 3 158 18 l21 17 5 1475 c9 2598 17 3956 27 4330 17 654 17
670 4 677 -6 4 -63 7 -126 8 -131 0 -756 21 -995 34 -102 5 -171 4 -192 -2
-61 -19 -64 -29 -66 -200 -2 -188 -3 -187 97 -187 39 0 125 -5 191 -11 143
-11 384 -28 550 -37 l120 -7 6 -30 c4 -16 7 -595 8 -1285 1 -690 6 -1785 11
-2433 6 -648 8 -1183 4 -1188 -7 -13 -21 13 -58 111 -15 41 -38 102 -51 135
-13 33 -56 146 -95 250 -40 105 -82 217 -95 250 -28 70 -192 502 -330 865 -53
140 -100 264 -105 275 -4 11 -15 40 -25 65 -10 25 -21 54 -25 65 -5 11 -41
106 -80 210 -39 105 -82 217 -95 250 -13 33 -72 186 -130 340 -59 154 -117
307 -130 340 -13 33 -56 146 -95 250 -39 105 -75 199 -80 210 -4 11 -15 40
-25 65 -10 25 -21 54 -25 65 -5 11 -41 106 -80 210 -39 105 -82 217 -95 250
-13 33 -56 146 -95 250 -39 105 -82 217 -95 250 -131 336 -209 549 -215 594
-12 91 -34 98 -321 107 l-165 5 -13 -27z m334 -88 c58 -22 84 -42 98 -75 18
-44 60 -159 82 -224 19 -61 134 -366 185 -492 4 -11 14 -36 20 -55 7 -19 19
-48 26 -65 7 -16 44 -115 84 -220 65 -174 109 -289 130 -340 5 -11 40 -105 80
-210 39 -104 83 -219 97 -255 14 -36 36 -94 50 -130 14 -36 29 -74 33 -85 5
-11 40 -105 80 -210 39 -104 82 -217 95 -250 13 -33 56 -145 95 -250 40 -104
77 -203 84 -220 7 -16 19 -46 26 -65 6 -19 16 -44 20 -55 5 -11 36 -94 70
-185 34 -91 68 -178 75 -195 6 -16 22 -57 34 -90 13 -33 33 -87 46 -120 13
-33 56 -145 95 -250 39 -104 75 -199 80 -210 4 -11 15 -40 25 -65 10 -25 21
-54 25 -65 5 -11 52 -135 105 -275 53 -140 100 -264 105 -275 14 -34 55 -141
141 -365 101 -267 103 -270 134 -270 24 0 29 9 35 65 9 77 9 3167 0 4050 -11
1104 -12 1150 -22 1160 -17 17 -290 37 -723 54 -105 4 -197 11 -204 15 -11 7
-12 29 -8 104 4 53 11 100 16 105 5 5 101 5 243 -2 128 -6 380 -14 559 -17
180 -3 332 -10 339 -14 9 -6 12 -45 10 -151 -5 -317 -5 -1499 0 -3782 4 -2124
3 -2399 -10 -2407 -8 -5 -22 -7 -30 -4 -8 3 -44 8 -80 11 -67 6 -100 23 -100
53 0 9 -4 20 -8 25 -5 6 -17 33 -26 60 -10 28 -21 59 -26 70 -19 45 -63 161
-130 340 -39 105 -75 199 -80 210 -17 43 -41 107 -110 290 -39 105 -75 199
-80 210 -4 11 -52 135 -105 275 -86 226 -130 341 -155 405 -5 11 -47 124 -95
250 -48 127 -91 239 -95 250 -5 11 -36 94 -70 185 -34 91 -66 174 -70 185 -5
11 -32 83 -60 160 -63 170 -118 317 -200 535 -58 156 -75 200 -165 445 -21 55
-43 114 -50 130 -6 17 -17 44 -23 60 -6 17 -43 116 -82 220 -40 105 -103 273
-142 375 -38 102 -73 194 -78 205 -16 42 -41 105 -95 250 -31 83 -67 170 -80
195 -13 25 -31 70 -41 100 -9 30 -25 73 -34 95 -27 62 -70 179 -70 190 0 18
-35 95 -43 95 -5 0 -6 -24 -3 -52 4 -29 10 -87 15 -128 5 -41 14 -97 20 -125
28 -119 45 -221 66 -400 9 -71 20 -159 25 -195 5 -36 14 -103 19 -150 6 -47
18 -137 26 -200 15 -114 25 -194 46 -360 6 -47 14 -112 19 -145 9 -55 15 -102
40 -310 5 -38 16 -124 25 -190 17 -126 30 -231 45 -355 4 -41 16 -129 24 -195
9 -66 18 -140 21 -165 3 -25 10 -81 15 -125 6 -44 17 -136 25 -205 8 -69 19
-159 24 -200 6 -41 15 -113 20 -160 10 -81 31 -244 51 -395 5 -38 14 -108 20
-155 5 -47 15 -119 21 -160 10 -72 20 -153 38 -310 5 -41 17 -129 26 -195 9
-66 20 -158 26 -205 22 -192 28 -240 44 -350 24 -167 35 -255 42 -342 l6 -78
-34 1 c-19 0 -63 6 -99 13 l-65 12 -8 59 c-4 33 -12 85 -17 116 -6 30 -10 71
-10 91 0 20 -4 58 -9 85 -6 26 -17 111 -26 188 -9 77 -20 162 -26 188 -5 27
-9 68 -9 92 0 24 -4 65 -10 92 -5 26 -16 107 -25 178 -9 72 -20 159 -25 195
-5 36 -12 88 -15 115 -3 28 -12 100 -20 160 -14 101 -21 157 -45 350 -5 39
-16 124 -25 190 -9 66 -21 154 -26 195 -15 133 -28 233 -44 345 -9 61 -18 135
-21 165 -3 30 -9 80 -14 110 -5 30 -16 116 -25 190 -9 74 -20 157 -26 183 -5
27 -9 65 -9 86 0 21 -4 62 -10 92 -5 30 -16 110 -25 179 -8 69 -19 157 -25
195 -5 39 -14 108 -19 155 -6 47 -17 139 -26 205 -8 66 -20 156 -25 200 -20
157 -51 411 -60 490 -27 240 -48 401 -59 460 -10 53 -21 134 -46 355 -9 74
-23 173 -32 220 -9 47 -18 105 -20 130 -5 63 -23 220 -29 251 -9 47 11 55 117
48 52 -3 103 -9 114 -13z"/>
<path d="M14300 7703 c-30 -8 -75 -18 -100 -22 -88 -14 -108 -37 -121 -140
-10 -68 -15 -105 -43 -276 -27 -163 -36 -226 -46 -300 -5 -38 -16 -113 -24
-165 -8 -52 -18 -115 -21 -140 -3 -25 -10 -70 -15 -100 -9 -52 -41 -277 -61
-420 -22 -166 -29 -212 -44 -315 -9 -60 -21 -141 -26 -180 -11 -88 -23 -179
-44 -320 -9 -60 -20 -141 -25 -180 -17 -130 -48 -335 -60 -398 -6 -27 -10 -64
-10 -83 0 -19 -4 -54 -9 -77 -5 -23 -15 -80 -21 -127 -7 -47 -16 -114 -21
-150 -6 -36 -14 -94 -19 -130 -5 -36 -16 -112 -25 -170 -9 -58 -21 -134 -25
-170 -9 -67 -16 -114 -45 -305 -9 -60 -21 -139 -25 -175 -14 -101 -28 -196
-45 -305 -9 -55 -20 -131 -25 -170 -5 -38 -16 -117 -25 -175 -9 -58 -21 -136
-26 -175 -17 -123 -28 -197 -44 -305 -9 -58 -21 -135 -26 -172 -17 -128 -28
-203 -44 -303 -9 -55 -20 -129 -25 -165 -5 -36 -14 -97 -19 -135 -5 -39 -15
-91 -20 -115 -17 -72 -14 -115 9 -135 18 -16 25 -17 54 -7 19 7 87 12 163 12
72 0 138 3 147 6 20 7 32 54 45 164 6 47 17 135 26 195 9 61 20 144 25 185 5
41 16 125 25 185 18 124 32 227 45 330 4 39 16 122 25 185 21 143 33 235 45
325 4 39 15 117 24 175 9 58 18 123 21 145 3 22 10 72 15 110 5 39 16 115 24
170 8 55 20 138 26 185 6 47 15 110 20 140 5 30 12 78 15 105 10 89 16 105 34
105 20 0 112 -37 235 -94 43 -20 97 -43 121 -51 23 -8 107 -46 186 -83 79 -38
165 -77 190 -87 55 -23 68 -49 80 -165 9 -82 20 -172 44 -355 17 -124 26 -203
44 -365 6 -52 13 -107 17 -122 5 -25 15 -103 34 -273 5 -44 16 -134 25 -200
18 -133 30 -230 44 -350 6 -44 17 -134 26 -200 9 -66 20 -154 25 -195 5 -41
12 -99 16 -128 8 -66 29 -83 82 -71 20 5 90 9 154 9 171 0 187 13 168 133 -9
57 -18 129 -40 312 -4 39 -16 124 -25 190 -17 124 -29 220 -45 340 -4 39 -16
124 -25 190 -9 66 -20 152 -25 190 -24 191 -31 248 -44 345 -8 58 -17 128 -21
155 -3 28 -10 79 -15 115 -6 36 -17 119 -25 185 -8 66 -20 153 -25 193 -14
100 -27 197 -45 337 -8 66 -20 149 -25 185 -9 69 -20 151 -45 345 -8 66 -20
152 -25 190 -5 39 -17 124 -25 190 -16 118 -27 203 -45 340 -5 39 -17 124 -25
190 -15 118 -27 210 -45 350 -16 117 -40 305 -51 395 -5 47 -14 117 -20 155
-5 39 -16 122 -24 185 -8 63 -20 149 -25 190 -19 132 -30 212 -45 335 -9 66
-20 149 -26 185 -14 96 -48 334 -60 420 -17 131 -26 172 -39 180 -23 14 -231
9 -290 -7z m198 -83 c30 0 32 -2 32 -33 0 -19 6 -78 14 -133 7 -54 19 -144 25
-199 6 -55 16 -131 21 -170 5 -38 17 -126 25 -195 9 -69 20 -154 25 -190 5
-36 14 -105 20 -155 7 -49 18 -135 25 -190 7 -55 18 -140 25 -190 6 -49 15
-115 20 -145 5 -30 12 -80 15 -110 3 -30 10 -80 15 -110 9 -56 17 -117 45
-335 27 -214 36 -279 45 -345 6 -36 17 -119 25 -185 24 -185 35 -274 45 -345
5 -36 17 -119 25 -185 9 -66 20 -149 25 -185 5 -36 14 -105 20 -155 6 -49 18
-135 25 -190 7 -55 18 -140 25 -190 6 -49 15 -119 20 -155 9 -60 18 -125 41
-307 20 -162 28 -223 43 -333 9 -63 18 -135 21 -160 3 -25 10 -74 15 -110 5
-36 17 -119 25 -185 9 -66 20 -149 25 -185 5 -36 14 -103 20 -150 9 -78 26
-209 50 -385 5 -38 14 -106 20 -150 6 -44 17 -123 25 -175 8 -52 12 -97 9
-100 -7 -6 -215 -2 -222 5 -7 6 -20 90 -33 205 -20 176 -27 235 -44 360 -16
118 -22 172 -44 358 -13 108 -29 234 -40 317 -6 39 -15 108 -20 155 -22 177
-42 327 -51 386 -6 34 -10 76 -10 95 0 18 -4 58 -10 88 -12 70 -31 211 -36
276 -7 71 -21 101 -57 117 -18 8 -108 52 -202 98 -93 46 -206 98 -250 116 -44
17 -132 55 -195 83 -63 28 -121 51 -128 51 -7 0 -35 12 -62 26 -27 14 -59 24
-72 22 -20 -3 -24 -11 -30 -58 -4 -30 -14 -109 -23 -175 -23 -168 -32 -237
-45 -340 -6 -49 -13 -98 -15 -110 -3 -11 -10 -58 -15 -105 -16 -128 -40 -309
-65 -485 -9 -60 -20 -144 -25 -185 -5 -41 -16 -124 -25 -185 -16 -107 -22
-154 -44 -320 -6 -44 -18 -127 -26 -185 -9 -58 -20 -136 -25 -175 -32 -243
-56 -396 -65 -418 -5 -13 -14 -17 -29 -12 -11 3 -54 8 -94 12 -40 3 -75 9 -77
13 -2 4 0 36 5 71 13 83 27 176 39 269 6 41 18 122 26 180 8 58 20 139 26 180
5 41 14 102 19 135 5 33 16 110 25 170 24 169 35 244 45 310 5 33 12 80 15
105 3 25 10 72 15 105 11 73 24 158 71 490 5 39 14 99 19 135 6 36 17 112 25
170 8 58 19 134 25 170 5 36 14 99 19 140 6 41 18 122 26 180 30 209 34 236
44 305 6 39 17 122 26 185 9 63 20 138 25 165 5 28 14 88 20 135 6 47 18 128
26 180 8 52 19 129 25 170 6 41 17 116 25 165 17 107 32 206 44 295 5 36 16
108 24 160 8 52 19 129 25 170 6 41 17 118 25 170 8 52 20 129 25 170 6 41 15
104 21 140 5 36 14 97 19 135 6 39 17 120 26 180 31 218 34 242 50 360 8 66
20 148 25 181 6 34 10 81 10 105 0 47 17 67 70 81 14 3 57 15 95 26 39 11 86
18 105 16 19 -2 50 -4 68 -4z"/>
<path d="M14332 7343 c-13 -36 -29 -113 -37 -183 -3 -30 -15 -86 -25 -125 -10
-38 -30 -155 -44 -260 -15 -104 -31 -221 -36 -260 -9 -61 -22 -156 -70 -505
-5 -41 -17 -127 -25 -190 -15 -117 -26 -197 -45 -330 -5 -41 -17 -127 -25
-190 -8 -63 -19 -148 -25 -187 -19 -135 -30 -217 -45 -333 -9 -63 -20 -146
-25 -185 -33 -238 -42 -314 -38 -331 5 -27 130 -93 398 -209 41 -18 120 -54
175 -80 55 -26 118 -54 140 -62 66 -25 78 -30 117 -46 21 -9 44 -14 52 -11 20
8 26 55 15 121 -9 54 -17 124 -39 313 -5 41 -16 131 -25 200 -18 133 -28 222
-44 360 -5 47 -14 121 -20 165 -6 44 -15 116 -20 160 -6 44 -15 118 -21 165
-5 47 -17 141 -25 210 -9 69 -20 157 -25 195 -5 39 -14 108 -19 155 -6 47 -18
141 -26 210 -9 69 -20 157 -25 195 -5 39 -14 108 -19 155 -17 138 -41 320 -51
390 -20 145 -31 230 -41 320 -18 181 -21 200 -34 200 -7 0 -17 -12 -23 -27z
m39 -771 c6 -53 15 -128 19 -167 4 -38 15 -124 24 -190 17 -125 31 -228 46
-355 4 -41 16 -129 25 -195 9 -66 21 -154 26 -195 18 -157 28 -238 38 -310 6
-41 16 -113 21 -160 6 -47 15 -114 20 -150 5 -36 16 -123 25 -195 9 -71 20
-159 25 -195 5 -36 12 -87 15 -115 5 -50 29 -232 41 -312 12 -80 9 -80 -153 1
-81 40 -170 84 -198 96 -47 21 -122 56 -277 129 -66 31 -68 33 -68 68 0 20 4
64 9 97 6 34 15 97 21 141 6 44 15 107 20 140 5 33 17 114 25 180 9 66 20 147
25 180 5 33 16 112 25 175 9 63 20 144 25 180 5 36 14 99 19 140 6 41 18 122
26 180 25 170 34 235 60 430 14 102 29 212 34 245 6 33 18 120 28 193 17 129
18 132 30 97 7 -20 18 -80 24 -133z"/>
<path d="M13120 7510 c-19 -5 -51 -13 -70 -19 -19 -5 -51 -14 -71 -19 -50 -13
-57 -18 -75 -60 -27 -64 -51 -274 -94 -827 -5 -66 -17 -210 -25 -320 -9 -110
-20 -263 -26 -340 -22 -320 -29 -409 -44 -595 -18 -223 -32 -406 -45 -600 -5
-74 -16 -225 -25 -335 -9 -110 -20 -256 -25 -325 -24 -328 -31 -419 -45 -605
-9 -110 -20 -258 -25 -330 -25 -365 -34 -449 -54 -557 -8 -46 -17 -96 -20
-113 -12 -68 -25 -123 -43 -180 -11 -33 -37 -114 -57 -180 -61 -197 -68 -219
-88 -247 -10 -14 -18 -29 -18 -32 0 -14 -104 -138 -153 -181 -29 -25 -77 -58
-107 -73 -49 -24 -67 -27 -160 -27 -138 0 -213 16 -324 70 -42 21 -68 42 -90
74 -17 24 -44 59 -59 77 -28 33 -57 100 -78 179 -11 40 -15 81 -40 345 -17
180 -17 465 0 625 7 72 17 168 21 215 5 47 16 148 25 225 9 77 21 183 26 235
15 160 27 279 43 425 8 77 18 167 21 200 3 33 10 96 15 140 5 44 17 150 25
235 9 85 20 185 25 222 6 37 10 86 10 110 0 24 4 77 10 118 5 41 14 118 21
170 18 156 28 222 39 270 15 70 39 267 42 353 3 94 -6 106 -83 112 -299 25
-305 21 -320 -205 -11 -162 -24 -309 -44 -495 -17 -153 -28 -269 -45 -455 -5
-58 -17 -177 -25 -265 -16 -154 -23 -229 -45 -490 -5 -66 -12 -131 -15 -145
-3 -14 -10 -74 -16 -135 -6 -60 -15 -141 -19 -180 -5 -38 -13 -123 -19 -188
-6 -65 -13 -122 -16 -127 -3 -5 -10 -53 -16 -107 -6 -54 -15 -127 -19 -163 -5
-36 -11 -96 -14 -135 -4 -38 -11 -127 -18 -196 -15 -170 4 -574 34 -704 41
-183 59 -241 90 -305 70 -144 140 -230 251 -312 111 -82 160 -108 202 -108 17
0 55 -9 85 -20 100 -38 419 -31 500 10 9 4 31 11 50 15 49 10 243 142 317 215
60 59 133 150 133 166 0 4 6 15 14 23 29 33 178 339 207 426 17 49 35 124 40
165 5 41 13 105 18 141 4 36 11 71 15 77 8 13 20 73 36 182 6 36 15 92 21 125
6 33 12 136 14 228 3 92 10 205 16 250 30 213 52 504 54 727 1 80 7 206 14
280 6 74 14 158 17 185 17 195 36 391 44 455 6 41 10 99 10 128 0 29 4 83 10
120 10 76 29 250 41 392 13 152 26 294 44 455 16 149 25 254 45 495 5 69 12
148 15 175 3 28 10 120 16 205 21 311 27 387 40 475 16 114 8 159 -29 174 -43
17 -74 20 -112 11z m54 -109 c3 -4 -2 -82 -10 -172 -32 -336 -53 -537 -59
-569 -5 -24 -15 -127 -35 -365 -5 -60 -16 -191 -25 -290 -15 -173 -25 -288
-45 -550 -15 -201 -29 -368 -35 -410 -4 -22 -11 -101 -16 -175 -15 -199 -26
-325 -44 -510 -15 -158 -23 -250 -44 -515 -5 -66 -12 -138 -15 -160 -6 -39
-20 -187 -36 -395 -23 -283 -31 -366 -36 -382 -3 -9 -9 -82 -15 -160 -11 -168
-22 -257 -44 -353 -9 -38 -20 -90 -25 -115 -17 -87 -27 -126 -59 -220 -35
-104 -34 -102 -85 -210 -47 -98 -77 -150 -139 -235 -60 -82 -51 -73 -152 -155
-44 -36 -87 -72 -97 -80 -27 -24 -119 -67 -168 -79 -105 -24 -142 -27 -241
-20 -190 13 -291 40 -404 106 -124 73 -180 134 -248 270 -32 63 -77 195 -77
225 0 13 -4 28 -9 33 -15 16 -41 232 -42 345 -2 222 21 622 51 890 5 47 13
141 19 210 6 69 13 141 16 160 7 37 19 160 34 330 5 58 12 116 15 130 6 24 18
142 36 345 5 55 14 141 19 190 12 113 40 398 51 530 20 237 30 342 35 371 5
31 23 218 34 359 l6 80 85 -3 c47 -2 89 -7 93 -11 4 -4 3 -46 -3 -92 -6 -46
-15 -133 -21 -194 -20 -222 -29 -303 -44 -430 -9 -71 -20 -168 -25 -215 -15
-154 -30 -264 -45 -340 -15 -73 -28 -191 -45 -395 -4 -55 -16 -149 -25 -210
-22 -147 -35 -286 -44 -490 -8 -164 -22 -310 -41 -425 -14 -83 -33 -655 -25
-740 14 -152 23 -206 40 -265 9 -33 19 -71 22 -85 3 -14 7 -32 10 -40 4 -8 14
-42 24 -75 39 -131 43 -139 120 -217 80 -81 175 -138 231 -138 15 0 37 -4 50
-9 47 -18 212 -33 254 -23 21 6 64 16 94 23 50 11 88 26 176 73 17 8 46 35 65
58 34 43 109 155 109 163 0 3 15 28 33 57 29 46 45 81 77 163 19 47 64 206 80
280 5 22 16 72 25 110 35 157 62 410 91 870 2 33 9 110 14 170 5 61 17 193 25
295 8 102 20 230 25 285 6 55 10 123 10 150 0 28 4 86 10 130 9 76 19 194 41
470 5 66 14 174 19 240 5 66 16 201 25 300 9 99 20 234 25 300 10 124 17 214
45 540 18 209 28 343 45 570 6 83 18 222 26 310 9 88 19 197 23 241 9 103 27
134 79 135 20 0 46 4 57 9 26 11 53 12 59 1z"/>
<path d="M11735 6799 c-22 -4 -67 -13 -100 -19 -97 -19 -134 -26 -260 -54 -66
-14 -154 -33 -195 -42 -41 -8 -104 -22 -140 -30 -108 -25 -142 -32 -215 -49
-38 -8 -88 -20 -110 -25 -22 -5 -92 -21 -155 -35 -177 -40 -189 -43 -285 -65
-204 -47 -241 -56 -375 -85 -41 -9 -89 -21 -106 -26 -17 -5 -40 -9 -52 -9 -11
0 -31 -4 -44 -9 -13 -5 -59 -17 -103 -26 -44 -9 -96 -20 -115 -25 -68 -16
-256 -58 -315 -70 -33 -7 -82 -18 -110 -25 -27 -7 -77 -18 -110 -24 -33 -7
-76 -16 -95 -21 -19 -5 -69 -16 -110 -25 -41 -9 -91 -21 -110 -25 -73 -17
-136 -30 -176 -36 -22 -3 -51 -14 -63 -23 l-24 -18 17 -121 c9 -67 14 -133 10
-146 -9 -35 12 -66 44 -66 15 0 59 7 97 15 39 9 90 20 115 25 25 5 101 21 170
36 69 15 143 30 165 34 33 7 405 84 575 121 25 5 68 13 95 18 28 6 106 22 175
36 69 15 175 37 235 50 61 12 169 35 240 51 152 32 212 37 207 14 -2 -8 -8
-53 -13 -100 -33 -290 -41 -365 -49 -450 -5 -52 -14 -135 -19 -185 -5 -49 -14
-142 -21 -205 -6 -63 -15 -145 -20 -182 -6 -37 -10 -88 -10 -113 0 -25 -4 -76
-9 -113 -13 -86 -38 -332 -61 -577 -5 -55 -16 -167 -25 -250 -19 -176 -31
-300 -44 -445 -6 -58 -15 -127 -21 -155 -5 -27 -15 -76 -20 -107 -6 -32 -15
-69 -20 -84 -6 -14 -10 -40 -10 -57 -1 -31 -31 -131 -44 -144 -3 -3 -6 -19 -6
-34 0 -15 -4 -31 -10 -34 -5 -3 -10 -13 -10 -20 0 -22 -124 -284 -190 -400
-28 -50 -108 -171 -124 -188 -6 -6 -20 -25 -30 -42 -20 -31 -127 -147 -231
-249 -92 -91 -197 -171 -272 -207 -37 -18 -86 -45 -108 -60 -48 -32 -167 -88
-267 -127 -70 -27 -105 -38 -200 -63 -24 -6 -53 -15 -64 -19 -56 -22 -241 -58
-505 -100 -87 -13 -452 -13 -521 1 -157 31 -206 41 -234 50 -17 5 -38 9 -47 9
-8 0 -44 12 -79 26 -77 32 -107 44 -133 55 -244 98 -370 202 -420 344 -29 85
-45 170 -45 254 0 90 21 243 39 286 33 77 49 108 89 170 131 206 362 416 549
501 43 20 101 46 130 59 68 32 226 86 283 97 222 44 320 53 409 39 235 -38
323 -72 404 -153 31 -32 57 -66 57 -76 0 -10 6 -24 12 -30 15 -15 13 -217 -2
-267 -4 -16 -16 -57 -25 -90 -19 -72 -22 -79 -69 -171 -20 -40 -36 -81 -36
-92 0 -22 43 -62 66 -62 8 0 22 -4 32 -9 9 -6 44 -19 76 -31 52 -19 66 -20
108 -9 35 8 55 20 72 43 32 42 108 190 128 246 15 43 21 63 50 175 18 69 15
265 -5 335 -52 182 -51 180 -144 273 -99 98 -130 120 -223 161 -123 54 -187
75 -355 113 -62 14 -116 18 -240 16 -234 -3 -350 -23 -587 -104 -90 -31 -359
-159 -426 -202 -255 -168 -477 -387 -546 -542 -10 -22 -47 -98 -82 -170 -69
-142 -94 -207 -94 -245 0 -14 -7 -80 -17 -148 -17 -123 -12 -239 15 -382 19
-106 160 -351 240 -421 96 -83 217 -169 238 -169 6 0 35 -13 65 -28 30 -16 74
-34 99 -42 25 -7 72 -22 105 -33 33 -11 76 -23 95 -27 19 -5 62 -16 95 -25
259 -74 746 -118 949 -85 33 5 95 15 136 21 122 18 174 27 200 34 14 4 45 13
70 20 25 7 65 18 90 25 114 32 281 91 339 119 36 17 70 31 76 31 7 0 32 10 56
23 24 13 60 29 79 37 19 7 76 40 127 72 51 32 95 58 99 58 26 0 349 286 421
372 101 122 224 291 247 338 4 8 12 24 19 35 59 98 111 194 137 251 17 38 43
94 57 124 14 30 29 64 33 75 10 26 40 105 50 130 5 11 11 29 13 40 3 11 13 45
22 75 23 78 35 120 45 160 5 19 16 64 25 100 9 36 20 112 25 170 5 58 11 128
15 155 23 198 37 308 45 361 6 34 10 80 10 102 0 22 4 62 10 89 5 26 14 93 21
148 6 55 15 136 20 180 5 44 14 118 19 165 5 47 16 144 25 215 16 126 22 183
44 385 6 52 17 154 26 225 9 72 20 175 26 230 21 229 58 562 65 590 4 18 17
25 62 34 31 7 84 19 117 26 54 13 296 66 385 85 19 4 87 20 150 35 63 15 137
31 163 36 69 11 89 19 112 40 19 17 21 29 19 121 -2 141 -12 197 -40 225 -24
24 -43 26 -109 12z m53 -190 c3 -75 2 -76 -25 -88 -16 -6 -51 -15 -78 -20 -28
-5 -97 -18 -155 -30 -58 -11 -130 -26 -160 -32 -55 -11 -71 -14 -210 -44 -41
-9 -95 -21 -120 -26 -25 -5 -76 -16 -115 -24 -38 -9 -79 -18 -90 -20 -32 -7
-53 -69 -59 -180 -7 -126 -34 -360 -56 -501 -6 -34 -10 -80 -10 -102 0 -22 -4
-62 -10 -89 -5 -26 -16 -120 -25 -208 -9 -88 -21 -184 -26 -214 -5 -30 -9 -74
-9 -98 0 -24 -4 -74 -10 -111 -12 -88 -39 -325 -60 -537 -21 -220 -30 -302
-36 -335 -4 -19 -10 -78 -15 -130 -19 -212 -29 -300 -44 -405 -9 -60 -20 -137
-24 -170 -4 -33 -21 -100 -38 -150 -16 -49 -35 -110 -43 -135 -26 -94 -43
-146 -51 -162 -5 -10 -9 -25 -9 -33 0 -8 -4 -23 -10 -33 -5 -9 -28 -64 -50
-122 -72 -188 -91 -225 -203 -406 -135 -219 -237 -327 -567 -608 -60 -51 -103
-77 -230 -142 -74 -38 -151 -76 -170 -83 -46 -18 -92 -37 -135 -56 -46 -21
-112 -45 -152 -56 -50 -14 -92 -26 -153 -44 -65 -20 -92 -26 -230 -54 -58 -11
-127 -25 -153 -31 -64 -13 -562 -13 -646 1 -285 45 -433 78 -536 119 -11 4
-36 14 -55 21 -166 59 -287 127 -375 210 -104 99 -168 195 -236 354 -54 125
-53 441 1 570 5 11 21 54 35 95 33 92 75 170 168 314 127 198 214 282 471 452
88 59 262 138 361 164 17 4 64 20 105 35 75 28 93 33 205 61 84 21 319 46 385
40 271 -22 490 -120 656 -292 70 -73 85 -108 106 -254 25 -175 26 -154 -31
-375 -11 -43 -50 -132 -84 -190 -15 -27 -31 -58 -34 -67 -4 -13 -16 -18 -42
-18 -20 0 -41 4 -47 9 -5 5 -26 14 -46 21 -21 6 -40 15 -43 20 -3 5 8 35 24
67 29 57 46 104 77 213 9 30 20 69 25 86 16 56 11 199 -10 254 -25 67 -79 131
-149 179 -31 21 -66 48 -77 61 -36 40 -103 62 -271 89 -144 24 -273 16 -449
-28 -22 -5 -60 -15 -85 -21 -25 -5 -54 -15 -65 -20 -11 -5 -40 -16 -65 -24
-25 -8 -63 -22 -85 -31 -22 -9 -56 -24 -75 -32 -90 -37 -266 -142 -311 -185
-8 -7 -32 -26 -54 -42 -104 -75 -303 -315 -361 -436 -17 -36 -39 -92 -49 -125
-9 -33 -21 -69 -25 -80 -13 -34 -30 -149 -30 -206 0 -119 59 -329 111 -400 71
-95 150 -153 344 -254 143 -75 424 -152 635 -174 81 -9 529 1 630 14 152 19
434 86 525 125 22 10 72 30 110 45 83 33 185 79 313 141 238 116 578 435 702
659 18 32 47 82 65 110 77 120 222 436 255 555 33 117 38 138 49 178 25 96 30
122 41 232 6 63 16 156 21 205 5 50 14 133 19 185 5 52 16 160 25 240 9 80 20
188 26 240 11 114 23 225 43 420 9 80 18 170 21 200 3 30 10 91 15 135 5 44
17 152 25 240 9 88 20 190 25 227 6 37 10 88 10 114 0 26 4 75 9 108 24 154
47 554 33 574 -8 11 -20 11 -73 -1 -54 -13 -174 -39 -344 -77 -22 -5 -60 -13
-85 -19 -25 -5 -79 -17 -120 -26 -75 -16 -96 -21 -225 -50 -38 -9 -92 -21
-120 -26 -27 -6 -66 -14 -85 -19 -31 -7 -102 -23 -227 -51 -24 -5 -62 -13 -85
-18 -24 -6 -77 -17 -118 -26 -41 -9 -91 -20 -110 -25 -19 -4 -57 -13 -85 -18
-78 -16 -197 -42 -235 -52 -35 -8 -107 -23 -166 -35 -40 -8 -45 4 -37 94 7 79
1 75 128 101 33 7 85 18 115 25 30 7 82 18 115 25 33 6 78 16 100 21 95 21
174 38 230 49 33 7 74 16 90 20 17 5 66 16 110 25 44 9 98 20 120 25 22 5 74
16 115 25 41 9 93 20 115 25 22 4 67 14 100 21 33 6 83 17 110 24 28 7 77 18
110 25 52 11 178 38 325 71 56 13 105 24 200 44 41 9 93 20 115 25 22 5 51 11
65 13 14 3 59 13 100 22 41 10 94 21 118 26 23 5 61 13 85 18 23 5 76 16 117
26 41 10 93 21 115 25 22 5 72 16 110 25 39 8 88 20 110 24 61 14 146 32 185
41 19 5 51 7 70 7 l35 -2 3 -76z"/>
</g>
</svg>
