<?xml version="1.0" standalone="no"?>
<!DOCTYPE svg PUBLIC "-//W3C//DTD SVG 20010904//EN"
 "http://www.w3.org/TR/2001/REC-SVG-20010904/DTD/svg10.dtd">
<svg version="1.0" xmlns="http://www.w3.org/2000/svg"
 width="1795.000000pt" height="1311.000000pt" viewBox="0 0 1795.000000 1311.000000"
 preserveAspectRatio="xMidYMid meet">
<metadata>
Created by potrace 1.16, written by Peter Selinger 2001-2019
</metadata>
<g transform="translate(0.000000,1311.000000) scale(0.100000,-0.100000)"
fill="#000000" stroke="none">
<path d="M989 11523 c-59 -3 -68 -7 -73 -26 -10 -37 -7 -357 4 -377 7 -14 25
-20 72 -24 107 -9 1147 -16 2519 -16 l1315 0 -2 -97 c-1 -54 -2 -137 -3 -185
l-1 -88 -1432 0 c-1292 -1 -1979 -9 -2323 -28 l-120 -7 -3 -110 c-2 -60 4
-294 14 -520 9 -225 14 -445 11 -487 l-6 -76 42 -7 c39 -7 826 -1 1462 10 149
3 452 7 675 10 523 7 977 14 1368 21 l312 6 0 -241 0 -241 -392 -1 c-216 0
-501 -2 -633 -4 -132 -2 -663 -7 -1180 -10 -517 -3 -1048 -10 -1180 -15 -218
-9 -476 -27 -481 -33 -10 -12 -14 -847 -14 -3102 0 -3139 6 -4223 25 -4244 11
-11 356 -13 2164 -14 1183 0 2153 1 2155 4 2 2 5 999 7 2214 l4 2210 -100 -3
c-267 -7 -1782 -29 -2159 -31 l-159 -1 5 -1196 c4 -897 8 -1198 17 -1207 29
-29 354 -14 444 22 l27 11 0 332 c0 360 -15 1215 -26 1446 l-6 142 193 0 c107
0 438 3 737 7 l542 6 0 -29 c-1 -16 2 -814 5 -1773 l6 -1744 -523 6 c-288 4
-1052 10 -1698 13 -646 4 -1176 7 -1176 8 -1 0 -4 649 -8 1441 -9 2033 -16
3195 -21 3445 -2 118 -7 536 -11 928 l-7 712 844 0 c464 0 950 3 1079 6 129 4
631 9 1115 13 l880 6 1 668 1 667 -25 7 c-27 6 -1691 -4 -1822 -12 -41 -3
-307 -7 -590 -10 -737 -7 -1188 -14 -1317 -21 l-113 -5 -1 38 c0 21 -6 107
-12 191 l-12 152 135 0 c74 0 218 3 320 5 102 3 552 15 1000 26 448 11 1029
26 1290 35 261 8 625 17 808 21 l332 6 0 354 0 353 1347 0 1346 0 -7 -297 c-4
-164 -9 -326 -13 -359 l-5 -61 -487 -7 c-472 -6 -618 -9 -1054 -22 -187 -6
-208 -8 -217 -24 -6 -10 -10 -105 -10 -210 l0 -190 28 -11 c19 -8 242 -10 769
-5 1063 9 1371 16 1411 32 l33 13 -7 571 -7 570 411 0 412 0 0 -127 c1 -337
20 -737 36 -753 5 -5 205 -5 499 0 270 5 599 11 733 13 l243 4 -7 -281 c-4
-155 -7 -282 -8 -282 -1 -2 -516 -11 -1081 -19 -219 -4 -391 -10 -406 -16
l-27 -10 -6 -222 c-4 -122 -12 -346 -18 -497 -14 -356 -14 -528 1 -543 15 -15
1871 -29 1942 -15 l46 9 7 72 c11 131 20 2051 9 2071 -6 11 -7 33 -2 55 4 20
9 59 11 86 l3 50 -305 1 c-168 0 -507 -4 -754 -8 -247 -5 -451 -6 -454 -3 -3
3 -9 80 -13 173 -5 92 -11 184 -14 205 l-5 37 1207 1 c665 1 1576 3 2025 5
l816 3 -5 -187 c-3 -103 -10 -189 -14 -192 -5 -3 -235 -16 -511 -28 -1015 -46
-1293 -63 -1309 -79 -4 -5 -13 -399 -20 -876 -11 -773 -11 -869 3 -883 27 -28
242 -34 1283 -36 947 -3 1022 -2 1044 14 24 17 24 22 25 135 0 146 -22 774
-30 825 -5 33 -10 38 -52 53 -59 21 -343 33 -384 16 l-28 -11 0 -285 0 -285
-709 0 -709 0 -6 103 c-6 125 -26 694 -26 758 l0 46 173 7 c94 4 267 11 382
16 116 6 415 19 665 30 684 30 660 28 660 56 0 14 6 24 14 24 24 0 27 90 16
419 -7 175 -12 327 -13 337 -2 18 10 19 311 22 l312 2 1 -912 c1 -502 2 -996
3 -1098 2 -206 15 -283 49 -302 35 -19 319 -25 1285 -26 l892 -2 10 26 c22 57
8 320 -22 413 l-10 33 -863 -4 -863 -4 -6 60 c-3 32 -6 101 -6 152 l0 94 313
1 c171 1 328 2 347 4 19 1 231 4 470 5 239 2 462 6 495 9 l59 6 20 60 c11 33
23 62 26 65 15 11 20 120 26 506 6 402 0 508 -29 526 -6 4 -109 8 -227 8 -364
0 -1485 21 -1491 28 -4 4 -9 85 -12 180 l-5 172 783 0 783 0 50 55 c78 86 207
293 191 309 -6 7 -1082 15 -2619 21 -773 3 -1745 7 -2160 10 -1800 12 -2478
15 -4025 20 -902 3 -1707 8 -1790 10 -206 6 -5394 14 -5476 8z m15160 -1279
l404 -7 -7 -115 c-3 -64 -8 -117 -9 -118 -2 -2 -147 -6 -322 -9 -176 -2 -469
-7 -652 -10 l-331 -6 -6 63 c-3 35 -8 99 -11 142 l-6 79 268 -6 c147 -4 450
-10 672 -13z m-5424 -1221 c-4 -115 -8 -213 -10 -220 -3 -9 -82 -12 -312 -12
-169 -1 -417 -4 -550 -7 l-243 -7 0 99 c0 54 -3 156 -7 227 l-6 127 567 0 567
0 -6 -207z"/>
<path d="M7407 9444 c-2 -2 -263 -4 -580 -5 -414 -1 -581 -4 -592 -13 -9 -7
-19 -40 -26 -86 -11 -78 -23 -1075 -24 -1950 l0 -495 50 -13 c57 -16 339 -19
395 -5 l35 9 -2 499 c0 275 -9 742 -19 1038 -9 295 -15 539 -13 541 6 5 1722
21 1744 16 36 -9 42 0 44 63 0 34 6 126 12 205 8 112 8 150 -2 173 l-12 30
-503 -2 c-277 -1 -505 -3 -507 -5z"/>
<path d="M7926 8263 c-14 -743 -18 -1358 -7 -1373 8 -12 50 -16 241 -18 l230
-3 0 186 c0 167 -8 576 -26 1293 l-6 252 -213 0 -212 0 -7 -337z"/>
<path d="M12387 8513 c-4 -4 -30 -7 -57 -7 -27 -1 -55 -7 -61 -13 -8 -8 -16
-62 -20 -135 -10 -151 -30 -1570 -23 -1578 9 -9 462 -6 471 3 6 6 17 1147 13
1325 0 9 104 11 503 7 276 -3 521 -8 545 -11 l42 -5 0 -879 0 -878 -784 -4
c-431 -1 -786 -5 -789 -8 -8 -10 -17 -1162 -18 -2339 0 -926 3 -1186 12 -1192
27 -16 249 -21 1093 -22 l879 -2 19 52 c15 39 27 54 51 64 l30 13 -6 2220 c-7
2330 -15 3288 -26 3346 -5 25 -13 36 -31 41 -33 9 -1835 11 -1843 2z m953
-2648 c135 -3 295 -5 356 -5 l111 0 7 -912 c3 -502 9 -1095 13 -1317 l6 -404
-374 6 c-206 4 -468 7 -583 7 l-209 0 6 408 c4 224 10 742 13 1152 4 410 8
772 9 805 2 33 3 108 4 167 l1 108 198 -5 c108 -3 307 -7 442 -10z"/>
<path d="M14695 8471 c-18 -30 -35 -2384 -35 -4973 l0 -1468 -2746 0 -2746 0
7 487 c4 269 9 495 10 504 6 34 20 1309 20 1862 l0 589 -27 23 c-32 28 -126
51 -268 67 -142 15 -162 7 -171 -74 -6 -55 -13 -307 -24 -880 -9 -436 -25
-1872 -25 -2240 l0 -338 -217 0 c-553 0 -1991 -11 -2100 -16 l-123 -6 0 -208
0 -209 58 -8 c112 -16 9695 -4 10407 13 215 5 231 7 246 26 33 43 99 286 99
369 l0 39 -986 0 -985 0 5 53 c6 56 13 519 21 1352 3 292 7 616 10 720 3 105
8 566 11 1025 4 459 8 838 10 841 2 4 5 260 6 570 1 310 4 627 6 705 l3 140
421 13 c231 6 479 15 551 18 l129 6 -6 -134 c-10 -225 -30 -1948 -42 -3601
l-7 -938 29 -2 c95 -5 279 26 378 63 l56 22 1 201 c0 110 2 208 3 216 2 8 6
247 10 530 3 283 9 686 12 895 15 926 21 1585 20 2323 -1 649 -3 794 -14 801
-8 5 -12 21 -10 42 l3 34 -205 7 c-112 4 -207 3 -210 -1 -3 -4 -117 -11 -255
-14 -137 -3 -386 -12 -553 -18 -166 -7 -304 -10 -306 -8 -2 2 -7 114 -11 249
-7 280 -3 266 -103 296 -130 38 -342 59 -357 35z"/>
<path d="M2888 8033 c-33 -9 -41 -180 -15 -343 l12 -75 335 0 c184 -1 675 5
1090 11 415 7 806 12 868 13 l112 1 -2 198 -3 197 -1190 1 c-654 1 -1198 0
-1207 -3z"/>
<path d="M9958 7900 c-26 -4 -52 -11 -58 -15 -11 -7 -11 -3874 0 -4675 6 -467
5 -459 93 -461 146 -3 771 2 832 6 39 2 255 7 480 11 319 4 413 8 424 19 11
11 14 185 16 996 2 541 6 1182 9 1424 11 794 18 2592 11 2614 -8 26 -69 45
-199 61 -97 13 -249 10 -264 -4 -8 -9 -17 -622 -21 -1551 -1 -374 -4 -698 -6
-720 -1 -22 -4 -563 -5 -1203 -1 -639 -5 -1164 -9 -1166 -3 -2 -150 -6 -326
-10 -176 -3 -378 -9 -449 -12 l-129 -7 5 2239 c3 1232 3 2283 1 2336 l-4 97
-32 11 c-41 14 -307 22 -369 10z"/>
<path d="M2888 7013 c-33 -9 -41 -180 -15 -343 l12 -75 335 0 c184 -1 675 5
1090 11 415 7 806 12 868 13 l112 1 -2 198 -3 197 -1190 1 c-654 1 -1198 0
-1207 -3z"/>
<path d="M6403 6432 c-79 -1 -143 -4 -144 -5 -9 -30 -14 -188 -7 -267 9 -116
22 -169 46 -187 12 -10 155 -13 637 -13 l622 0 7 -859 c4 -473 8 -867 10 -878
2 -10 7 -246 11 -525 l7 -508 -426 0 -426 0 3 389 c1 283 -1 393 -9 401 -21
22 -171 32 -289 20 -140 -13 -154 -17 -168 -49 -7 -17 -12 -219 -15 -613 l-4
-588 233 0 c526 -1 1358 2 1409 5 30 1 84 3 119 4 l63 1 -6 518 c-3 284 -8
735 -11 1002 -7 624 -23 1412 -31 1563 l-7 117 109 1 c60 0 150 2 199 4 50 2
269 4 488 4 l397 1 0 98 c0 55 -3 160 -7 236 l-6 136 -1331 -2 c-732 -2 -1395
-4 -1473 -6z"/>
<path d="M6425 5646 c-110 -19 -112 -20 -118 -74 -8 -73 -9 -370 -1 -800 l7
-392 23 -6 c39 -10 244 26 344 59 l94 32 9 45 c13 73 3 1118 -11 1132 -18 18
-249 20 -347 4z"/>
</g>
</svg>
