<?xml version="1.0" standalone="no"?>
<!DOCTYPE svg PUBLIC "-//W3C//DTD SVG 20010904//EN"
 "http://www.w3.org/TR/2001/REC-SVG-20010904/DTD/svg10.dtd">
<svg version="1.0" xmlns="http://www.w3.org/2000/svg"
 width="1795.000000pt" height="1311.000000pt" viewBox="0 0 1795.000000 1311.000000"
 preserveAspectRatio="xMidYMid meet">
<metadata>
Created by potrace 1.16, written by Peter Selinger 2001-2019
</metadata>
<g transform="translate(0.000000,1311.000000) scale(0.100000,-0.100000)"
fill="#000000" stroke="none">
<path d="M3620 11643 c-382 -17 -749 -85 -995 -184 -126 -50 -304 -143 -376
-196 -287 -209 -371 -285 -548 -498 -287 -344 -433 -571 -604 -938 -88 -191
-228 -610 -257 -768 -72 -403 -107 -785 -115 -1269 -1 -91 -7 -237 -14 -325
-6 -88 -16 -383 -21 -655 -6 -272 -16 -596 -21 -720 -25 -571 -22 -904 11
-1310 6 -69 17 -219 25 -335 16 -221 69 -592 112 -785 47 -212 147 -527 239
-747 51 -125 166 -347 226 -440 29 -45 82 -130 118 -189 132 -217 233 -334
412 -478 229 -184 484 -299 721 -326 161 -19 454 -16 587 4 141 22 178 34 305
101 289 151 359 203 468 342 130 165 261 567 324 998 26 175 26 711 0 875 -84
534 -261 878 -519 1004 -159 78 -291 70 -490 -28 -127 -63 -182 -72 -218 -36
-27 27 -33 57 -29 143 7 133 80 242 205 303 68 34 84 38 177 42 176 7 318 -40
495 -165 116 -82 253 -275 377 -531 38 -76 121 -385 150 -550 63 -365 81 -749
50 -1047 -15 -148 -26 -199 -82 -395 -88 -311 -163 -523 -236 -670 -49 -100
-62 -134 -62 -172 0 -145 196 -199 556 -152 163 21 252 45 352 94 182 88 297
228 372 450 49 144 105 332 114 383 5 29 18 95 30 147 58 270 125 655 142 815
18 175 53 407 64 425 12 19 36 310 56 685 17 336 19 421 9 530 -18 214 -28
901 -18 1260 13 454 9 618 -19 670 -26 49 -48 70 -96 90 -51 21 -105 19 -157
-7 -45 -23 -73 -54 -186 -209 -70 -96 -414 -453 -507 -528 -191 -152 -392
-235 -692 -286 -211 -36 -266 -39 -388 -20 -202 30 -315 72 -506 189 -134 82
-203 137 -278 225 -69 81 -227 314 -297 440 -24 42 -77 137 -119 211 -126 224
-199 472 -258 875 -28 188 -33 246 -32 400 2 315 55 667 133 885 21 58 72 175
113 260 63 129 91 172 162 257 47 56 94 105 105 108 10 3 53 37 95 75 103 94
155 113 290 108 122 -5 158 -21 186 -81 25 -57 24 -100 -6 -152 -58 -99 -178
-187 -290 -214 -99 -24 -167 -66 -251 -153 -85 -90 -157 -212 -208 -357 -36
-101 -85 -329 -102 -476 -16 -143 -18 -398 -3 -533 23 -215 107 -589 161 -715
17 -39 37 -94 45 -122 16 -51 39 -104 123 -280 46 -95 184 -301 274 -409 61
-73 231 -211 316 -257 41 -22 93 -51 115 -64 73 -44 171 -60 370 -60 154 1
194 4 275 24 548 135 1028 561 1335 1186 301 613 409 1338 305 2065 -11 74
-26 191 -35 260 -8 69 -22 163 -31 210 -20 110 -106 439 -146 555 -38 114
-122 299 -176 392 -49 83 -222 269 -321 343 -121 92 -406 226 -632 298 -219
70 -545 115 -759 105z m-2873 -3740 c-3 -10 -5 -2 -5 17 0 19 2 27 5 18 2 -10
2 -26 0 -35z m-10 -100 c-2 -16 -4 -3 -4 27 0 30 2 43 4 28 2 -16 2 -40 0 -55z"/>
<path d="M10545 11610 c-165 -7 -305 -28 -445 -67 -76 -22 -216 -92 -294 -147
-98 -70 -227 -197 -283 -278 -65 -93 -177 -312 -231 -450 -41 -105 -154 -533
-167 -633 -4 -27 -24 -158 -45 -290 -61 -376 -87 -730 -71 -967 6 -84 15 -229
21 -323 16 -255 28 -345 65 -481 36 -129 81 -247 142 -367 43 -87 174 -227
246 -263 171 -88 447 -95 652 -18 120 45 185 85 243 148 52 56 126 206 147
296 124 540 190 1023 196 1445 2 145 -5 315 -27 605 -17 232 -26 290 -59 405
-78 269 -230 398 -382 324 -52 -25 -139 -118 -167 -179 -55 -117 -124 -181
-212 -195 -35 -5 -46 -2 -71 19 -45 38 -63 84 -63 160 0 120 49 206 147 255
23 11 45 25 48 31 10 17 101 59 168 80 43 12 96 18 171 19 60 0 118 3 128 7
26 8 142 -59 206 -120 70 -66 91 -104 147 -261 95 -265 107 -338 125 -740 13
-268 9 -410 -16 -695 -8 -91 -19 -214 -24 -275 -16 -181 21 -448 73 -534 12
-19 30 -53 41 -75 18 -36 33 -47 120 -89 97 -47 102 -49 195 -49 114 -2 160
12 200 57 35 41 52 94 51 167 0 29 -1 661 -3 1403 -3 1340 -3 1351 -24 1441
-43 183 -71 258 -129 345 -64 96 -115 156 -155 182 -74 49 -358 120 -459 115
-19 -1 -111 -4 -205 -8z"/>
<path d="M6849 11575 c-249 -40 -410 -115 -544 -249 -72 -73 -164 -216 -192
-300 -30 -87 -83 -336 -83 -391 0 -22 -7 -67 -15 -100 -18 -71 -69 -717 -69
-860 0 -55 0 -316 0 -580 0 -264 1 -527 2 -585 3 -132 -16 -690 -29 -830 -21
-236 -49 -1215 -51 -1810 l-2 -415 34 -63 c70 -131 229 -216 450 -241 344 -39
693 -56 836 -41 93 10 111 8 221 -15 66 -14 145 -34 174 -44 121 -42 277 -116
322 -153 27 -22 69 -51 95 -65 26 -14 56 -33 67 -43 11 -9 29 -22 41 -28 12
-6 41 -38 65 -71 35 -48 50 -61 71 -61 21 0 28 6 37 33 46 149 59 608 21 758
-27 106 -123 386 -152 445 -53 108 -202 362 -239 409 -123 156 -414 597 -514
780 -112 205 -202 449 -285 770 -138 538 -177 941 -136 1410 19 213 22 229 85
506 60 263 86 342 152 461 100 181 126 208 199 208 115 0 165 -95 125 -235
-13 -42 -26 -61 -62 -91 -126 -103 -238 -333 -278 -569 -55 -331 -70 -938 -30
-1190 8 -55 29 -152 46 -215 17 -63 44 -162 59 -220 42 -156 81 -257 161 -409
92 -175 126 -227 213 -331 179 -213 249 -270 386 -310 100 -30 196 -24 296 16
81 33 121 60 181 123 50 51 153 214 181 286 29 75 99 340 111 420 16 109 32
361 29 455 -1 47 1 243 6 436 12 502 0 774 -70 1509 -36 382 -45 431 -109 605
-13 36 -32 88 -41 115 -25 75 -150 320 -205 402 -49 72 -177 191 -262 243 -67
41 -143 70 -184 70 -21 0 -65 5 -98 10 -268 43 -864 70 -1016 45z"/>
<path d="M12920 11570 c-187 -36 -396 -127 -526 -231 -110 -87 -255 -249 -354
-394 -131 -191 -170 -267 -223 -430 -80 -245 -107 -443 -107 -782 0 -223 17
-374 59 -521 53 -185 103 -270 265 -452 158 -178 266 -251 451 -304 272 -79
738 -108 895 -56 30 10 84 23 119 30 154 28 375 132 531 248 156 117 231 203
287 334 35 80 36 88 36 198 -1 285 -109 443 -365 531 l-96 33 -117 -13 c-65
-7 -128 -17 -141 -21 -13 -5 -74 -17 -136 -26 -197 -29 -399 -7 -565 61 -110
44 -160 75 -244 146 -93 80 -132 142 -175 274 -45 136 -48 221 -12 294 37 73
113 111 168 81 29 -16 51 -129 54 -286 2 -117 6 -148 25 -197 47 -119 116
-178 277 -236 46 -17 112 -35 146 -41 90 -14 226 -12 273 5 22 8 53 15 68 15
15 0 44 7 65 16 20 9 66 24 102 34 103 28 181 61 240 100 30 20 79 52 107 69
64 40 146 127 177 190 37 73 66 179 67 245 1 34 8 83 15 110 19 66 18 180 -2
247 -30 102 -109 239 -174 304 -34 33 -79 86 -100 117 -36 51 -126 129 -224
195 -18 12 -82 38 -142 58 -209 69 -525 93 -724 55z"/>
<path d="M15580 11543 c-105 -19 -280 -72 -372 -113 -229 -104 -367 -225 -528
-466 -133 -199 -131 -195 -191 -365 -66 -188 -84 -310 -83 -554 1 -212 14
-302 65 -455 127 -383 263 -568 539 -735 117 -71 325 -155 457 -186 131 -30
525 -27 700 6 173 33 412 145 574 272 145 113 271 329 298 513 7 41 19 103 27
138 15 57 14 65 0 87 -9 14 -21 25 -26 25 -5 0 -45 -28 -87 -62 -96 -77 -358
-207 -478 -238 -188 -48 -510 -53 -725 -10 -113 23 -285 87 -435 162 -179 91
-297 214 -414 433 -69 130 -90 203 -92 330 -1 101 1 117 30 194 40 107 43 112
110 199 65 85 140 138 263 186 151 60 216 71 393 71 153 -1 164 -2 254 -33 51
-18 111 -43 132 -55 108 -64 252 -227 307 -344 22 -49 27 -75 30 -168 4 -106
2 -116 -32 -220 -21 -61 -51 -137 -69 -170 -27 -51 -41 -65 -92 -92 -33 -18
-73 -33 -89 -33 -64 0 -166 75 -166 123 0 9 7 34 15 55 13 31 27 44 71 65 75
37 144 104 180 174 26 51 29 68 29 148 0 76 -4 97 -25 139 -39 76 -137 175
-229 230 -119 71 -187 89 -351 88 -229 -1 -329 -38 -481 -180 -170 -160 -217
-367 -138 -608 39 -118 124 -250 210 -328 142 -128 495 -259 799 -296 208 -25
376 -4 593 74 183 67 232 100 354 242 105 121 134 169 188 305 56 141 65 197
55 374 -6 119 -12 154 -39 235 -44 129 -81 192 -207 349 -134 166 -193 215
-394 323 -86 47 -295 117 -406 137 -159 28 -450 47 -524 34z"/>
<path d="M14210 8516 c-41 -8 -104 -23 -140 -35 -96 -32 -312 -141 -415 -208
-122 -81 -349 -315 -468 -483 -268 -377 -386 -696 -538 -1452 -71 -353 -76
-390 -98 -683 -20 -257 -44 -1306 -35 -1505 24 -509 30 -577 78 -870 64 -393
179 -756 341 -1080 98 -195 154 -278 243 -358 141 -126 205 -170 298 -206 77
-29 99 -33 159 -30 91 4 196 54 254 120 62 70 147 270 193 451 23 87 23 94 22
828 0 816 -19 2015 -33 2140 -5 44 -10 206 -10 359 -1 275 -5 356 -37 666 -9
85 -14 189 -12 230 3 41 -1 152 -9 245 -11 147 -18 185 -49 282 -20 61 -48
135 -63 164 -43 85 -123 113 -191 66 -47 -31 -69 -74 -76 -148 -6 -69 -38
-169 -57 -181 -21 -13 -92 -9 -115 8 -23 16 -49 60 -62 104 -21 75 53 262 141
355 60 63 156 115 214 115 23 0 61 -12 97 -32 50 -26 67 -44 113 -112 29 -45
65 -103 78 -131 27 -55 61 -203 77 -337 14 -113 38 -658 50 -1098 5 -190 14
-421 20 -515 12 -189 26 -704 40 -1425 27 -1423 42 -1641 126 -1915 48 -157
86 -241 132 -288 50 -53 82 -67 144 -67 43 0 62 6 102 33 70 46 85 71 88 142
1 33 -4 321 -11 640 -13 596 -11 1016 7 1585 16 479 22 1722 9 2130 -11 378
-11 571 -4 1150 3 265 1 397 -9 480 -7 63 -18 176 -24 250 -16 214 -45 361
-85 440 -32 63 -113 134 -183 160 -72 27 -201 34 -302 16z"/>
<path d="M15190 8491 c-127 -9 -152 -26 -164 -116 -3 -22 -10 -60 -15 -85 -12
-56 -17 -1087 -9 -1920 3 -344 1 -767 -3 -940 -12 -448 -11 -1301 2 -1595 6
-137 12 -662 14 -1165 1 -503 6 -939 10 -969 14 -104 73 -134 285 -148 110 -6
233 14 316 53 65 30 167 124 232 212 103 138 207 373 242 543 12 57 32 201 46
319 28 255 31 472 9 717 -36 397 -95 646 -242 1033 -68 177 -286 813 -319 930
-116 407 -180 918 -144 1144 5 34 17 108 25 166 34 223 110 455 203 620 51 91
76 111 211 166 l55 22 56 -28 c95 -48 115 -70 145 -162 15 -46 34 -93 42 -106
11 -19 14 -53 11 -161 l-3 -138 -39 -44 c-38 -42 -81 -67 -118 -68 -11 -1 -22
14 -32 47 -15 45 -15 53 4 128 11 43 20 97 20 119 -1 82 -61 165 -122 165 -58
0 -179 -151 -244 -305 -42 -102 -80 -482 -69 -690 9 -162 34 -399 50 -477 53
-248 128 -505 220 -748 37 -96 100 -269 142 -385 85 -237 125 -339 153 -396
29 -57 92 -316 147 -604 l47 -250 1 -430 c0 -401 2 -439 23 -565 35 -210 70
-357 96 -408 50 -98 187 -289 253 -354 59 -56 80 -69 137 -87 107 -33 240 -23
322 24 48 28 66 65 89 186 14 74 14 111 5 275 -6 104 -10 259 -9 344 5 229 4
402 -1 615 -3 113 1 277 9 405 17 259 18 1907 1 2270 -6 124 -15 412 -20 640
-5 228 -12 438 -15 465 -3 28 -12 127 -21 220 -26 296 -67 520 -125 685 -91
260 -145 357 -268 483 -182 188 -356 284 -593 327 -100 19 -160 21 -533 24
-231 2 -463 0 -515 -3z"/>
<path d="M12365 8213 c-265 -33 -384 -82 -507 -209 -115 -121 -171 -239 -223
-481 -20 -92 -45 -199 -56 -237 -10 -38 -23 -114 -29 -170 -13 -128 -7 -822 9
-981 6 -66 15 -210 21 -320 10 -211 31 -400 55 -500 8 -33 21 -105 30 -160 8
-55 28 -147 44 -205 16 -58 37 -143 46 -190 18 -91 101 -391 141 -504 13 -37
44 -146 69 -242 25 -96 58 -210 74 -254 17 -45 42 -135 57 -202 25 -115 27
-131 20 -282 -9 -235 -34 -348 -104 -482 -71 -136 -124 -191 -220 -233 -40
-17 -87 -31 -106 -31 -42 0 -172 64 -192 96 -40 60 -34 145 12 191 22 22 30
23 128 21 100 -2 107 0 152 28 123 76 172 236 161 524 -6 133 -12 179 -46 320
-43 182 -90 344 -186 641 -35 108 -78 250 -95 315 -17 65 -42 154 -56 197 -27
87 -74 333 -98 507 -20 150 -32 304 -56 760 -11 206 -24 411 -30 455 -25 190
-42 329 -56 450 -8 72 -19 146 -24 165 -5 20 -17 73 -25 119 -47 244 -202 406
-362 376 -96 -18 -205 -112 -254 -221 -29 -63 -53 -188 -41 -209 4 -5 7 -1137
8 -2515 1 -1641 6 -2544 12 -2617 16 -164 44 -260 105 -350 64 -94 113 -137
218 -191 152 -77 340 -112 610 -112 162 0 254 18 365 70 162 78 236 181 332
465 104 310 107 362 123 2615 5 668 13 1242 18 1275 5 33 14 98 20 145 14 98
69 368 112 550 48 198 159 558 224 725 107 273 201 479 315 694 47 89 59 121
55 142 -6 27 -7 27 -108 33 -430 25 -581 29 -662 19z"/>
<path d="M10299 7176 c-16 -15 -327 -38 -630 -46 -401 -10 -537 -26 -689 -83
-230 -87 -449 -268 -535 -443 -64 -132 -81 -203 -74 -314 13 -194 31 -359 54
-495 90 -528 90 -524 89 -770 -1 -375 -66 -947 -130 -1150 -23 -70 -103 -257
-119 -275 -7 -8 -30 -53 -51 -100 -50 -116 -90 -176 -180 -270 -80 -84 -205
-168 -279 -189 -22 -6 -80 -14 -130 -17 -81 -6 -98 -4 -169 20 -89 30 -193 85
-242 128 -46 41 -70 106 -55 151 23 69 85 102 171 92 52 -7 58 -11 135 -89 69
-71 87 -85 130 -95 41 -10 62 -9 120 4 99 22 123 33 181 83 55 46 129 161 170
263 40 99 65 232 71 379 4 115 2 148 -16 223 -25 105 -68 217 -114 296 -19 31
-37 68 -40 83 -10 40 -197 210 -271 246 -67 33 -223 94 -283 112 -63 18 -414
31 -538 19 -120 -11 -252 -50 -399 -118 -71 -33 -94 -51 -181 -142 -68 -72
-114 -130 -144 -184 -24 -44 -71 -126 -104 -183 -69 -120 -103 -198 -157 -371
-45 -145 -73 -267 -91 -398 -17 -132 -6 -431 20 -543 26 -111 73 -250 99 -292
11 -18 41 -69 66 -113 67 -120 136 -213 231 -314 102 -107 363 -319 490 -399
292 -183 587 -286 958 -332 203 -26 629 -32 767 -11 349 52 736 203 1020 399
197 135 276 210 405 382 186 251 293 500 422 990 8 30 23 78 33 105 15 40 24
128 45 434 15 211 33 436 40 500 24 197 35 1165 23 2181 -7 615 -7 615 -29
632 -19 16 -79 25 -90 14z"/>
</g>
</svg>
