<?xml version="1.0" standalone="no"?>
<!DOCTYPE svg PUBLIC "-//W3C//DTD SVG 20010904//EN"
 "http://www.w3.org/TR/2001/REC-SVG-20010904/DTD/svg10.dtd">
<svg version="1.0" xmlns="http://www.w3.org/2000/svg"
 width="1795.000000pt" height="1311.000000pt" viewBox="0 0 1795.000000 1311.000000"
 preserveAspectRatio="xMidYMid meet">
<metadata>
Created by potrace 1.16, written by Peter Selinger 2001-2019
</metadata>
<g transform="translate(0.000000,1311.000000) scale(0.100000,-0.100000)"
fill="#000000" stroke="none">
<path d="M10728 11600 c-79 -13 -231 -65 -298 -102 -261 -145 -496 -433 -653
-800 -146 -341 -234 -777 -244 -1198 -2 -96 -12 -722 -23 -1390 -20 -1307 -21
-1257 31 -1294 44 -30 114 -11 136 37 7 15 14 137 19 312 l7 287 1141 -7 c628
-4 1144 -10 1148 -13 3 -4 10 -148 15 -320 l8 -314 33 -29 c18 -16 44 -29 58
-29 38 0 80 26 93 58 17 40 -42 2783 -65 2992 -90 843 -426 1480 -911 1724
-144 73 -350 109 -495 86z m240 -206 c156 -31 292 -114 437 -266 279 -292 471
-772 530 -1328 14 -135 31 -715 51 -1799 l7 -367 -279 3 c-153 2 -669 6 -1147
9 l-868 6 6 157 c3 86 10 509 16 941 6 506 15 845 24 953 35 403 121 732 270
1032 151 304 334 504 557 610 132 63 254 78 396 49z"/>
<path d="M13347 11594 c-322 -69 -595 -393 -777 -921 -112 -325 -142 -569
-141 -1158 0 -177 4 -232 25 -350 44 -255 109 -465 211 -682 156 -330 376
-546 620 -608 76 -19 221 -19 305 0 312 73 621 421 814 917 45 114 49 132 47
179 -1 36 -46 79 -83 79 -65 0 -82 -20 -138 -162 -188 -476 -439 -767 -712
-824 -302 -63 -603 227 -768 741 -93 290 -138 573 -126 795 3 58 8 206 11 330
5 190 10 244 32 345 124 585 374 1000 668 1111 66 25 191 25 262 1 212 -74
425 -342 557 -702 54 -147 67 -174 94 -196 46 -35 111 -18 137 37 12 26 13 42
5 78 -30 133 -158 415 -257 564 -121 183 -238 294 -388 368 -143 71 -259 88
-398 58z"/>
<path d="M16025 11533 c-324 -59 -591 -197 -811 -417 -284 -285 -395 -607
-355 -1024 51 -532 507 -1333 1132 -1986 125 -131 180 -176 215 -176 60 0 111
57 100 112 -4 21 -47 73 -140 169 -315 325 -577 670 -786 1034 -62 108 -181
348 -195 393 l-6 22 521 0 522 0 35 35 c31 31 35 40 30 71 -3 20 -12 43 -19
51 -34 42 -54 43 -621 43 l-544 0 -18 73 c-21 88 -38 324 -31 428 35 457 430
854 966 971 103 22 116 22 623 20 553 -3 570 -2 607 45 36 46 17 120 -37 141
-19 8 -196 12 -548 14 -499 3 -524 2 -640 -19z"/>
<path d="M3760 11418 c-1180 -37 -2139 -657 -2644 -1708 -182 -379 -290 -771
-341 -1235 -9 -77 -19 -153 -24 -170 -26 -85 -18 -549 14 -864 148 -1447 774
-3006 1711 -4256 198 -265 384 -481 654 -760 80 -82 162 -171 183 -197 46 -57
131 -103 175 -93 16 3 40 17 53 31 l24 26 6 581 c4 320 8 1068 9 1662 3 1258
16 2549 25 2618 l7 47 765 0 c820 0 806 -1 833 49 13 26 13 77 -1 103 -26 48
16 46 -1484 49 -1085 2 -1415 0 -1432 -10 -32 -17 -56 -66 -48 -100 3 -16 17
-39 31 -52 l26 -24 538 -5 c296 -3 541 -7 544 -10 3 -3 6 -21 7 -40 4 -74 -12
-3866 -17 -4220 l-6 -375 -137 140 c-1055 1084 -1863 2649 -2171 4203 -82 417
-107 660 -109 1067 -3 532 40 876 160 1273 330 1096 1127 1829 2199 2026 239
44 312 47 1080 46 404 0 804 2 888 6 139 6 154 9 177 30 31 29 40 67 25 105
-27 65 13 62 -788 63 -400 1 -819 -2 -932 -6z"/>
<path d="M6469 11405 c-14 -8 -31 -27 -37 -42 -12 -33 -19 -953 -28 -4053 l-7
-2085 26 -31 c32 -38 71 -47 113 -28 60 29 58 -6 61 904 2 459 5 850 6 868 2
32 46 -17 772 -844 424 -483 786 -895 806 -916 31 -32 42 -38 78 -38 34 0 49
6 72 29 36 36 38 75 6 122 -17 25 -1309 1504 -1490 1706 l-20 22 115 -6 c340
-18 735 97 1064 312 295 191 558 466 744 775 115 190 196 386 254 612 48 187
59 301 53 552 -5 222 -17 313 -67 511 -191 756 -785 1372 -1511 1564 -177 47
-284 61 -554 71 -347 13 -425 12 -456 -5z m581 -200 c757 -26 1449 -569 1704
-1336 205 -614 125 -1222 -232 -1759 -310 -467 -791 -797 -1283 -881 -147 -25
-355 -23 -479 6 -95 22 -100 25 -135 75 l-28 41 6 617 c4 339 8 1130 9 1757 1
627 3 1220 6 1317 l3 176 152 -4 c84 -2 208 -6 277 -9z"/>
<path d="M15683 7555 c-880 -160 -1839 -1469 -2418 -3300 -112 -353 -194 -677
-309 -1210 -13 -63 -14 156 -9 2130 6 2433 11 2255 -57 2290 -26 13 -37 14
-66 5 -52 -18 -62 -41 -68 -165 -3 -60 -8 -1344 -11 -2852 -6 -2481 -5 -2744
9 -2772 9 -17 25 -35 35 -41 27 -14 111 -12 140 3 53 27 60 49 76 257 100
1260 443 2536 971 3600 390 788 828 1356 1282 1662 96 65 276 151 372 178 106
31 284 38 382 16 473 -105 820 -723 937 -1666 45 -359 44 -330 48 -2179 5
-1969 0 -1838 68 -1867 45 -18 78 -10 111 29 l25 30 -4 1771 c-4 1832 -5 1858
-47 2212 -132 1092 -545 1767 -1144 1873 -79 14 -234 12 -323 -4z"/>
<path d="M10668 6510 c-79 -13 -231 -65 -298 -102 -261 -145 -496 -433 -653
-800 -146 -341 -234 -777 -244 -1198 -2 -96 -12 -722 -23 -1390 -20 -1307 -21
-1257 31 -1294 44 -30 114 -11 136 37 7 15 14 137 19 312 l7 287 1141 -7 c628
-4 1144 -10 1148 -13 3 -4 10 -148 15 -320 l8 -314 33 -29 c18 -16 44 -29 58
-29 38 0 80 26 93 58 17 40 -42 2783 -65 2992 -90 843 -426 1480 -911 1724
-144 73 -350 109 -495 86z m240 -206 c156 -31 292 -114 437 -266 279 -292 471
-772 530 -1328 14 -135 31 -715 51 -1799 l7 -367 -279 3 c-153 2 -669 6 -1147
9 l-868 6 6 157 c3 86 10 509 16 941 6 506 15 845 24 953 35 403 121 732 270
1032 151 304 334 504 557 610 132 63 254 78 396 49z"/>
<path d="M4835 6209 c-242 -5 -455 -11 -474 -14 -67 -12 -103 -86 -70 -147 25
-47 43 -48 555 -38 264 5 567 10 674 11 l195 1 3 -44 c2 -23 -6 -722 -18
-1553 -22 -1614 -22 -1611 -76 -1815 -49 -186 -128 -347 -240 -489 -102 -129
-235 -224 -389 -278 -72 -25 -93 -28 -210 -27 -119 0 -137 2 -216 30 -268 95
-423 316 -364 520 40 142 145 243 317 305 251 92 549 43 744 -122 32 -27 72
-52 90 -55 66 -12 124 49 109 115 -10 45 -120 141 -223 194 -327 168 -709 149
-988 -49 -195 -138 -294 -364 -250 -574 52 -248 247 -441 541 -536 97 -31 122
-35 211 -35 472 3 859 325 1034 859 72 221 88 361 95 827 15 975 35 2454 35
2643 l0 214 -34 34 -34 34 -288 -2 c-159 0 -487 -5 -729 -9z"/>
<path d="M8645 4921 c-11 -5 -29 -19 -40 -31 -20 -22 -20 -40 -25 -1189 -5
-1159 -5 -1166 -27 -1243 -100 -351 -341 -608 -672 -712 -369 -116 -784 12
-1029 319 -75 94 -162 265 -193 380 -27 101 -29 142 -37 1407 -7 982 -7 987
-28 1015 -43 58 -125 52 -159 -11 -17 -31 -17 -94 -8 -1187 l10 -1154 27 -104
c135 -506 529 -850 1033 -900 534 -54 1045 288 1221 814 65 195 63 162 60
1405 -2 860 -6 1130 -15 1146 -11 20 -70 55 -90 53 -4 0 -17 -4 -28 -8z"/>
<path d="M729 4375 c-54 -29 -52 26 -44 -1373 6 -1061 9 -1303 21 -1330 10
-24 26 -38 59 -53 44 -20 75 -21 723 -29 1102 -15 1337 -14 1366 5 56 37 54
114 -6 158 -26 19 -53 20 -990 30 -530 5 -964 11 -965 12 -2 1 -5 557 -8 1236
-3 690 -10 1252 -15 1274 -16 72 -80 103 -141 70z"/>
</g>
</svg>
