<?xml version="1.0" standalone="no"?>
<!DOCTYPE svg PUBLIC "-//W3C//DTD SVG 20010904//EN"
 "http://www.w3.org/TR/2001/REC-SVG-20010904/DTD/svg10.dtd">
<svg version="1.0" xmlns="http://www.w3.org/2000/svg"
 width="1795.000000pt" height="1311.000000pt" viewBox="0 0 1795.000000 1311.000000"
 preserveAspectRatio="xMidYMid meet">
<metadata>
Created by potrace 1.16, written by Peter Selinger 2001-2019
</metadata>
<g transform="translate(0.000000,1311.000000) scale(0.100000,-0.100000)"
fill="#000000" stroke="none">
<path d="M4405 11714 c-27 -8 -171 -41 -320 -74 -241 -54 -273 -64 -298 -89
-16 -15 -29 -35 -31 -45 -1 -9 -122 -141 -267 -294 -146 -152 -382 -401 -523
-552 -241 -257 -388 -408 -340 -350 12 14 122 147 246 295 468 563 711 864
739 916 7 15 4 16 -29 8 -20 -4 -120 -26 -222 -49 -102 -22 -211 -48 -244 -56
-41 -11 -62 -12 -69 -5 -25 25 31 67 -872 -654 -711 -567 -726 -580 -724 -613
1 -15 -4 -250 -10 -522 -6 -272 -11 -627 -12 -788 -1 -162 -5 -312 -10 -335
-8 -48 4 -80 29 -75 9 2 18 13 20 25 3 21 199 186 987 834 132 109 427 352
655 542 228 189 417 343 418 341 4 -2 -174 -202 -638 -719 -119 -132 -396
-442 -616 -690 -221 -247 -445 -499 -498 -558 -75 -83 -96 -113 -89 -125 9
-19 9 -38 -12 -612 -8 -234 -24 -702 -35 -1040 -11 -338 -31 -930 -45 -1315
-13 -385 -30 -881 -36 -1102 -7 -222 -15 -401 -17 -398 -3 2 -22 204 -43 447
-82 948 -69 839 -98 850 -53 20 -624 110 -646 102 -38 -15 -42 -53 -69 -739
-15 -368 -36 -890 -47 -1160 -33 -825 -35 -899 -28 -921 14 -41 41 -41 1034
11 641 34 709 36 659 25 -68 -14 -1625 -269 -1674 -274 -29 -2 -49 -10 -57
-22 -15 -24 -54 -292 -56 -393 -2 -75 -2 -76 23 -74 75 6 514 14 1335 24 842
10 922 12 945 28 23 15 252 99 810 296 502 177 579 207 585 227 4 10 1 25 -5
33 -9 11 -4 33 23 102 42 106 176 476 282 778 81 230 84 251 34 249 -13 -1
-71 -4 -129 -8 -58 -3 -310 -10 -560 -16 -672 -15 -690 -15 -690 -10 0 7 1549
314 1555 309 2 -3 -11 -61 -31 -129 -19 -69 -77 -285 -129 -480 -52 -195 -100
-373 -107 -396 -21 -75 19 -105 49 -36 9 20 66 141 126 267 189 396 337 716
378 813 45 109 36 32 139 1142 82 886 118 1306 124 1446 l5 101 -347 295
c-743 630 -1021 858 -1046 858 -22 0 -26 -6 -33 -47 -9 -53 -6 -1797 3 -1991
6 -112 8 -122 25 -122 11 0 22 8 26 18 3 9 36 49 72 87 36 39 135 150 220 248
85 98 155 176 157 174 2 -1 -15 -59 -37 -127 -22 -69 -105 -345 -185 -615 -80
-269 -155 -521 -167 -559 l-22 -68 -450 -168 c-247 -92 -451 -167 -452 -166
-2 1 -14 274 -28 607 -62 1482 -140 3197 -150 3280 -6 56 -52 -8 391 549 181
228 399 504 484 612 85 108 156 196 157 195 1 -2 7 -189 13 -417 16 -640 18
-671 23 -676 7 -7 249 25 602 78 149 22 287 42 307 43 44 2 51 7 50 37 0 28
-167 1143 -303 2027 l-99 644 35 38 c19 21 43 56 55 78 l20 40 -30 267 c-31
286 -37 305 -89 303 -14 0 -48 -7 -76 -15z"/>
<path d="M10744 11620 c-7 -6 -79 -42 -160 -80 -305 -138 -402 -188 -417 -212
-23 -36 -161 -622 -155 -659 7 -52 24 -47 289 86 140 70 274 139 299 152 l45
25 -45 -40 c-25 -22 -157 -133 -295 -248 -137 -115 -295 -246 -350 -292 -104
-87 -107 -93 -124 -192 -5 -30 -30 -165 -55 -300 -25 -135 -84 -473 -131 -750
l-85 -504 -78 -81 c-265 -272 -362 -377 -362 -390 0 -8 8 -22 19 -32 17 -16
19 -44 25 -317 6 -288 12 -336 39 -336 16 0 182 209 581 730 477 624 478 626
-85 -185 -195 -280 -394 -567 -442 -637 l-87 -126 16 -99 c57 -353 57 -353 93
-353 29 0 1690 838 1724 870 5 4 27 66 48 136 68 221 269 930 269 947 0 10
-11 20 -27 23 -34 9 -276 0 -682 -26 -178 -11 -325 -19 -327 -17 -2 2 48 80
112 173 64 93 202 297 307 454 104 157 192 288 196 292 7 8 222 38 232 33 3
-2 9 -80 13 -172 8 -203 41 -631 51 -655 7 -19 44 -24 60 -9 11 9 236 111 246
111 3 0 -24 -82 -61 -182 -36 -101 -85 -237 -107 -303 l-40 -120 12 -255 c13
-275 20 -317 51 -312 31 6 164 67 397 183 120 60 227 109 238 109 24 0 40 31
34 67 -2 15 -9 116 -15 223 -11 223 -39 615 -45 646 -4 15 -34 36 -115 75 -75
37 -111 60 -115 74 -2 11 -36 261 -75 555 -79 595 -192 1421 -215 1575 -22
141 -32 173 -60 191 -28 18 -25 20 -220 -110 l-90 -59 118 123 c110 113 148
163 135 175 -24 24 -563 48 -584 25z m357 -1183 l4 -341 -110 -17 c-219 -33
-213 -30 -318 -138 -121 -125 -298 -310 -417 -436 -55 -59 -85 -86 -73 -65 11
19 180 289 374 600 195 311 392 628 439 706 l85 141 6 -55 c4 -30 8 -208 10
-395z"/>
<path d="M14130 11474 c-25 -8 -117 -24 -205 -34 -369 -44 -1832 -247 -1912
-265 -27 -6 -41 -49 -23 -70 7 -8 24 -15 37 -15 14 0 120 -26 237 -59 378
-105 396 -109 410 -88 7 9 18 17 24 17 6 0 158 68 339 151 389 180 402 185
473 193 50 6 16 -13 -372 -209 -236 -118 -428 -221 -428 -228 0 -7 -20 -41
-43 -77 -24 -36 -95 -153 -157 -260 -62 -107 -211 -359 -330 -560 -120 -201
-227 -384 -239 -407 -12 -24 -26 -43 -31 -43 -6 0 -10 -5 -10 -11 0 -17 703
-851 827 -980 l64 -67 -238 -118 c-251 -125 -288 -154 -201 -154 46 0 502 50
948 105 151 18 374 46 495 60 121 15 230 29 241 31 41 7 38 35 -9 83 -24 25
-95 107 -159 181 -64 74 -125 144 -137 154 -11 11 -21 23 -21 27 0 5 73 -49
163 -119 266 -210 377 -292 396 -292 9 0 25 6 35 13 16 11 17 56 22 582 3 314
1 754 -3 980 -7 372 -10 410 -25 413 -9 2 -21 -5 -27 -16 -11 -20 -87 -759
-121 -1172 -11 -140 -23 -279 -26 -308 l-5 -52 -57 45 c-31 26 -74 58 -95 72
l-38 26 -327 -12 c-180 -7 -412 -16 -516 -22 -104 -5 -190 -8 -192 -6 -6 6
330 76 355 74 13 -1 28 5 34 14 8 12 -11 44 -86 150 -143 199 -268 359 -299
382 -32 24 -51 24 -351 1 -114 -8 -215 -14 -224 -12 -9 2 100 29 242 60 142
32 269 65 282 73 16 11 100 170 264 500 133 267 245 485 249 485 8 0 257 211
396 337 45 40 86 73 91 73 6 0 42 -56 81 -124 39 -68 88 -149 109 -181 21 -32
42 -66 48 -76 28 -54 64 -23 75 66 15 117 40 414 45 529 3 63 10 115 17 123 8
11 9 19 1 31 -13 22 -38 24 -93 6z m-120 -125 c0 -5 -7 -9 -15 -9 -9 0 -37
-11 -63 -25 -26 -14 -53 -25 -60 -25 -12 0 -62 -20 -343 -136 -59 -24 -114
-44 -123 -44 -9 0 -16 -5 -16 -12 0 -6 -3 -9 -6 -6 -3 3 -47 -14 -97 -39 -51
-25 -135 -63 -188 -84 -53 -21 -145 -61 -204 -89 -59 -28 -110 -49 -112 -47
-11 12 281 167 406 217 26 10 63 27 82 38 146 82 433 222 456 223 15 0 82 13
148 28 118 28 135 29 135 10z"/>
<path d="M7965 11470 c-16 -4 -181 -115 -365 -247 -328 -234 -600 -424 -1420
-988 -604 -416 -692 -479 -704 -500 -6 -11 -17 -25 -25 -31 -19 -15 -17 -49
20 -453 16 -183 29 -341 27 -350 -2 -9 -44 146 -93 344 l-90 360 -33 -1 c-34
-2 -227 -115 -245 -145 -5 -9 -7 -32 -3 -54 11 -57 528 -1079 548 -1083 9 -2
40 18 70 44 79 70 624 592 1218 1168 574 557 659 638 643 616 -6 -8 -75 -103
-155 -210 -268 -362 -584 -794 -743 -1015 l-159 -220 -17 -140 c-45 -359 -123
-1088 -259 -2430 -45 -440 -85 -809 -89 -819 -4 -11 -13 100 -20 245 -6 145
-19 369 -27 498 -8 129 -12 247 -9 262 10 43 -23 56 -76 29 -22 -12 -82 -37
-132 -56 -51 -19 -119 -50 -152 -69 -55 -30 -97 -45 -166 -59 -15 -3 -30 -13
-33 -22 -4 -10 -13 -78 -21 -153 -30 -282 -176 -1810 -182 -1898 -6 -91 -6
-93 18 -101 13 -5 31 -7 39 -4 8 3 139 86 290 185 394 258 447 292 425 270
-11 -11 -175 -144 -365 -295 -453 -362 -437 -347 -455 -433 -24 -113 -30 -193
-15 -210 25 -30 60 -14 222 98 90 63 483 336 873 607 825 572 1103 769 1129
798 10 12 19 33 19 46 0 25 -152 318 -285 550 -37 66 -68 129 -68 141 0 12 24
181 54 376 79 515 153 1032 174 1207 l17 153 350 165 c192 90 352 164 356 164
16 0 229 -252 229 -271 0 -11 -43 -240 -95 -507 -120 -618 -233 -1219 -280
-1482 -20 -113 -41 -209 -46 -215 -24 -25 10 -70 45 -59 11 4 59 32 106 64 47
31 181 116 298 190 117 73 220 143 228 156 17 25 46 191 248 1399 145 865 183
1113 173 1139 -8 21 -90 58 -414 187 -144 57 -262 107 -263 110 0 4 84 75 188
160 284 232 362 302 369 329 10 39 -174 1607 -213 1808 -4 22 24 73 151 272
85 135 158 256 162 269 3 14 0 36 -8 50 -15 26 -16 26 -179 32 -91 4 -259 8
-374 10 l-209 3 -35 -40 c-19 -21 -219 -254 -444 -516 -226 -263 -412 -478
-414 -478 -2 0 44 66 103 148 524 722 633 876 633 892 0 14 -13 17 -45 10z
m112 -2276 c-15 -15 -729 -445 -732 -442 -2 2 89 147 202 323 112 176 277 437
366 579 l162 259 7 -354 c6 -276 5 -356 -5 -365z"/>
<path d="M16640 11389 c-228 -27 -797 -91 -1265 -144 -467 -52 -860 -97 -872
-100 -13 -3 -23 -11 -23 -18 0 -11 413 -220 518 -262 38 -16 44 -16 60 -2 9 8
76 38 148 65 211 81 807 322 829 336 23 15 115 32 100 18 -5 -5 -98 -51 -205
-102 -107 -51 -305 -148 -440 -216 -217 -108 -247 -126 -265 -158 -11 -20 -97
-146 -192 -280 -297 -421 -583 -852 -583 -879 0 -20 78 -95 393 -380 215 -195
445 -401 510 -458 64 -56 114 -106 110 -110 -11 -9 -374 -119 -443 -133 -36
-8 -56 -17 -58 -28 -5 -23 125 -27 1078 -30 l835 -3 3 23 c3 17 -22 52 -99
139 -56 63 -94 111 -83 105 10 -6 89 -64 174 -130 134 -104 164 -123 225 -141
38 -12 84 -21 101 -21 58 0 58 -8 45 587 -17 793 -21 904 -39 910 -18 8 -32
-14 -32 -52 0 -16 -29 -187 -65 -380 -35 -192 -77 -425 -93 -517 -15 -92 -31
-170 -34 -173 -3 -4 -39 16 -79 43 -41 27 -99 64 -129 84 l-55 35 -220 12
c-317 18 -793 57 -775 63 8 3 68 15 133 26 179 31 187 48 65 150 -46 37 -118
94 -160 126 -43 32 -78 60 -78 62 0 2 33 13 73 24 282 83 812 246 864 267 35
14 65 24 66 22 26 -36 111 -140 130 -158 28 -26 47 -21 47 12 0 19 -69 369
-113 577 l-14 65 -39 -2 c-57 -2 -794 -160 -974 -208 -30 -8 -55 -13 -57 -11
-1 1 57 88 129 192 72 104 175 257 229 339 l97 150 283 169 c162 97 285 164
287 157 2 -6 44 -73 94 -148 137 -207 193 -258 218 -200 12 29 52 239 85 452
14 94 30 189 35 212 16 69 14 73 -27 72 -21 -1 -225 -23 -453 -50z m215 -99
c-11 -4 -200 -75 -420 -158 -220 -83 -471 -178 -558 -211 -87 -34 -162 -61
-165 -61 -4 0 81 50 188 111 107 61 239 137 293 170 120 74 147 85 261 111 84
18 302 45 386 46 28 1 31 -1 15 -8z"/>
<path d="M1282 9843 c-10 -19 -113 -368 -312 -1057 l-121 -419 43 -45 c89 -92
283 -252 305 -252 13 0 24 3 24 8 15 84 120 1747 112 1768 -7 20 -40 18 -51
-3z"/>
<path d="M14480 9496 c0 -11 291 -353 542 -637 32 -36 58 -68 58 -71 0 -2
-101 -51 -225 -108 -146 -66 -225 -108 -225 -117 0 -19 -16 -23 341 81 162 47
301 86 307 86 36 0 -10 54 -189 225 -448 427 -585 555 -596 555 -7 0 -13 -6
-13 -14z"/>
<path d="M11940 9384 c0 -4 20 -38 44 -78 24 -39 81 -143 126 -231 46 -88 127
-244 181 -346 55 -102 99 -188 99 -191 0 -3 -65 -65 -145 -137 -112 -102 -145
-137 -145 -156 0 -19 5 -25 21 -25 12 0 105 44 208 99 245 130 243 129 264
135 9 3 17 13 17 21 0 17 -98 157 -374 535 -82 113 -171 238 -198 279 -45 69
-73 100 -90 101 -5 0 -8 -3 -8 -6z"/>
<path d="M16940 8354 c-19 -2 -120 -11 -225 -20 -204 -16 -346 -31 -384 -41
l-24 -6 7 -141 c17 -369 95 -1372 276 -3564 33 -398 60 -728 60 -735 -1 -7
-144 418 -319 943 -175 525 -348 1041 -384 1145 l-65 190 -41 540 c-48 610
-106 1296 -121 1430 -12 98 -29 134 -63 136 -68 3 -406 -3 -632 -12 -143 -5
-294 -10 -335 -11 -41 -1 -78 -6 -82 -12 -9 -13 168 -507 314 -871 33 -82 61
-160 63 -173 1 -12 5 -25 8 -28 3 -3 117 -51 254 -105 144 -58 231 -97 208
-94 -34 4 -456 49 -539 57 -27 3 -30 8 -68 128 -100 317 -363 1097 -376 1115
-32 45 2 -189 164 -1125 35 -206 67 -385 70 -398 3 -14 17 -28 37 -36 18 -8
212 -37 432 -66 220 -28 406 -54 414 -56 8 -3 -65 -84 -188 -209 l-201 -205 0
-53 c0 -55 39 -449 115 -1167 25 -234 68 -639 96 -900 27 -261 76 -725 110
-1030 33 -305 58 -562 57 -570 -2 -8 -54 273 -117 625 -62 352 -173 973 -246
1380 -73 407 -143 808 -155 890 -22 144 -39 193 -62 178 -6 -3 -8 -30 -4 -67
45 -410 383 -3265 410 -3459 8 -53 12 -106 9 -117 -6 -23 6 -26 132 -35 51 -4
93 -11 97 -18 6 -9 12 -9 26 0 15 9 64 9 198 2 99 -5 186 -11 194 -12 8 -2
-133 -32 -313 -67 -282 -55 -330 -67 -339 -85 -12 -22 -30 -181 -23 -205 4
-13 36 -15 222 -13 338 4 804 23 825 34 24 13 24 45 -7 364 -37 389 -47 465
-61 479 -7 8 -37 71 -67 142 -30 71 -111 257 -180 414 l-125 285 -7 120 c-3
66 -22 343 -40 614 -19 272 -33 496 -31 498 1 2 13 -34 25 -79 122 -453 774
-2695 807 -2778 11 -27 23 -40 42 -45 35 -9 342 5 365 17 14 7 16 19 12 76 -3
37 -21 362 -41 722 -39 745 -189 3382 -234 4110 -16 267 -41 688 -56 936 l-28
451 91 219 c97 233 141 350 133 358 -9 8 -54 13 -90 10z"/>
<path d="M13715 8191 c-181 -38 -337 -66 -346 -64 -16 5 -213 -215 -506 -564
l-111 -131 9 -44 c12 -62 80 -339 164 -668 40 -157 75 -297 79 -312 11 -48 42
-36 117 45 38 39 168 181 291 313 123 133 224 241 226 239 1 -1 -80 -141 -181
-311 -252 -426 -407 -698 -407 -717 0 -9 7 -20 15 -25 13 -6 20 -54 36 -223
19 -208 69 -690 165 -1602 l47 -449 -41 -91 c-22 -51 -88 -200 -147 -332 -120
-268 -106 -208 -144 -620 -11 -121 -25 -302 -32 -403 -11 -171 -11 -183 6
-202 39 -43 22 -73 295 543 90 202 165 366 166 364 2 -2 -59 -174 -135 -383
-76 -208 -174 -485 -219 -614 l-81 -235 -4 -150 c-2 -82 -2 -156 0 -162 6 -16
49 -17 59 -2 4 7 23 8 52 4 26 -4 241 -4 480 0 l433 8 24 42 c37 62 377 840
581 1330 84 201 104 258 102 290 l-3 40 -60 8 c-33 5 -193 32 -355 62 -285 52
-544 96 -643 110 -45 6 -47 7 -40 33 4 15 7 36 6 47 0 11 75 193 167 405 92
212 211 487 265 612 98 231 144 318 167 318 7 0 42 -8 77 -18 l65 -18 107
-655 c58 -360 110 -675 113 -701 5 -31 14 -51 26 -58 10 -5 81 -13 159 -16 78
-4 141 -9 141 -12 0 -9 -301 -806 -316 -836 -18 -38 -18 -204 1 -591 16 -325
20 -372 37 -392 8 -10 76 -13 310 -13 180 0 307 -4 318 -10 30 -16 51 12 44
63 -2 23 -25 265 -49 537 -50 546 -75 801 -106 1080 -12 102 -22 203 -24 225
-2 22 -4 43 -4 47 -1 4 -20 12 -43 18 -146 39 -206 62 -212 83 -5 23 -64 470
-186 1402 -109 836 -222 1666 -326 2400 -52 369 -102 724 -110 790 -9 66 -18
130 -20 143 -11 58 -38 17 -185 -280 -83 -167 -148 -296 -146 -288 18 63 190
600 197 618 15 34 12 42 -12 41 -13 0 -171 -31 -353 -68z m429 -2221 c98 -618
101 -645 82 -648 -38 -7 -106 9 -106 24 0 10 -8 14 -21 12 -17 -2 -56 -78
-212 -420 -105 -230 -192 -417 -193 -415 -1 1 27 189 62 417 35 228 107 714
159 1080 53 366 98 676 102 690 5 20 8 12 16 -35 5 -33 55 -350 111 -705z"/>
<path d="M12995 8103 c-303 -70 -1088 -267 -1172 -294 l-33 -11 0 -221 c0
-122 4 -269 10 -327 5 -58 14 -361 20 -675 13 -720 36 -1700 55 -2410 8 -302
16 -595 17 -650 l3 -100 -104 -235 c-57 -129 -119 -274 -139 -322 l-35 -86
-121 -7 c-67 -4 -186 -7 -266 -8 l-144 -2 -33 235 c-18 129 -48 343 -68 475
l-36 240 61 410 c71 481 224 1526 351 2400 49 341 92 662 96 714 l6 94 -43 -6
c-24 -3 -56 -15 -71 -26 -15 -11 -198 -123 -406 -249 -385 -233 -499 -303
-543 -335 -25 -17 -25 -19 -28 -200 -2 -142 0 -186 11 -201 11 -15 17 -16 33
-7 21 12 415 113 420 108 2 -2 -114 -58 -258 -125 -143 -67 -263 -120 -266
-117 -3 3 -8 101 -11 217 -4 117 -10 219 -15 226 -22 35 -55 -69 -86 -268 -11
-74 -32 -200 -46 -279 -23 -136 -24 -181 -4 -181 15 0 888 387 965 428 21 11
-28 -32 -230 -200 -115 -97 -267 -225 -337 -286 l-127 -111 -50 -153 c-27 -84
-128 -414 -225 -733 -96 -319 -217 -719 -270 -889 -69 -227 -92 -314 -86 -330
5 -11 18 -77 30 -146 21 -122 199 -1030 263 -1340 l32 -155 30 -1 c17 -1 131
-24 255 -52 124 -28 365 -81 535 -117 171 -36 315 -68 320 -70 6 -2 -235 -2
-534 2 l-544 6 7 -49 c11 -71 37 -177 48 -191 6 -7 17 -12 26 -10 10 1 40 -2
67 -6 60 -8 453 -28 1230 -62 314 -13 638 -27 722 -31 l151 -7 21 69 c46 157
99 353 270 1004 293 1114 383 1471 377 1487 -4 9 -2 21 4 28 7 9 -2 91 -30
276 -22 145 -98 658 -170 1139 -222 1484 -308 2037 -325 2081 -4 12 40 71 150
200 261 305 326 391 323 419 -3 25 -17 32 -53 23z m-8 -3800 c-3 -10 -5 -4 -5
12 0 17 2 24 5 18 2 -7 2 -21 0 -30z m33 -182 c11 -78 22 -147 25 -151 3 -5 1
-11 -4 -14 -11 -7 -16 15 -36 169 -14 112 -18 173 -10 150 2 -5 13 -75 25
-154z"/>
<path d="M8956 7591 c-17 -27 -124 -735 -221 -1459 -34 -253 -34 -267 -8 -294
l22 -21 58 38 c32 21 109 76 171 122 61 45 117 83 122 83 13 0 43 47 36 58 -3
5 -12 94 -21 198 -25 301 -74 845 -91 1009 -30 280 -28 270 -46 273 -9 2 -19
-1 -22 -7z"/>
<path d="M11115 7319 c-77 -34 -381 -161 -675 -284 -294 -123 -647 -271 -784
-329 -136 -58 -258 -106 -271 -106 -32 0 -36 -20 -20 -92 9 -35 25 -110 38
-168 18 -82 26 -106 40 -108 10 -2 24 3 30 11 7 8 359 226 782 484 957 583
877 536 968 579 56 26 77 41 77 55 0 30 -33 23 -185 -42z"/>
<path d="M9635 6211 c-253 -168 -827 -549 -1275 -846 -1543 -1021 -2215 -1468
-2221 -1478 -20 -30 73 -143 157 -193 l42 -25 803 401 804 401 55 80 c30 43
149 216 265 383 115 168 211 304 212 302 2 -1 -38 -90 -88 -197 -135 -288
-395 -856 -619 -1354 -109 -242 -240 -530 -290 -640 -51 -110 -159 -348 -240
-530 -81 -181 -155 -346 -165 -366 l-17 -35 -116 -12 c-65 -7 -211 -28 -327
-47 -115 -20 -218 -34 -228 -33 -14 2 -8 16 36 78 182 256 757 1093 757 1101
0 5 7 20 16 33 9 14 11 27 6 30 -13 8 -207 -60 -552 -192 -157 -60 -330 -126
-385 -147 -55 -21 -105 -43 -111 -49 -17 -16 -176 -304 -487 -881 -148 -275
-275 -507 -283 -516 -27 -30 -10 -85 19 -61 8 6 632 13 1717 18 938 4 1725 8
1750 10 25 1 102 2 171 3 l126 1 16 43 c29 75 925 4990 915 5016 -2 5 -210
-129 -463 -298z m-922 -4335 c59 -47 145 -113 192 -148 l84 -63 -42 -7 c-23
-4 -404 -12 -847 -18 -443 -6 -987 -15 -1209 -21 -221 -6 -405 -9 -406 -7 -2
2 211 36 473 77 356 54 1595 258 1643 270 3 0 54 -37 112 -83z"/>
<path d="M17086 4314 c-3 -8 -3 -20 -1 -26 3 -7 16 -299 30 -648 55 -1382 92
-2161 102 -2171 11 -11 205 -15 222 -5 11 7 12 27 7 92 -7 93 -99 906 -145
1284 -17 135 -62 511 -101 835 -39 325 -73 602 -76 617 -6 30 -30 44 -38 22z"/>
<path d="M5570 3498 c-128 -59 -221 -98 -304 -128 l-100 -35 -61 -115 c-92
-173 -595 -1141 -735 -1415 -68 -132 -136 -259 -152 -283 -29 -45 -34 -67 -19
-91 6 -10 17 -11 37 -6 32 8 71 8 479 -4 156 -5 290 -5 302 0 14 5 23 17 23
29 0 11 18 73 39 138 22 64 91 286 155 492 289 943 417 1374 414 1399 -3 30
-36 38 -78 19z"/>
</g>
</svg>
