<?xml version="1.0" standalone="no"?>
<!DOCTYPE svg PUBLIC "-//W3C//DTD SVG 20010904//EN"
 "http://www.w3.org/TR/2001/REC-SVG-20010904/DTD/svg10.dtd">
<svg version="1.0" xmlns="http://www.w3.org/2000/svg"
 width="1795.000000pt" height="1311.000000pt" viewBox="0 0 1795.000000 1311.000000"
 preserveAspectRatio="xMidYMid meet">
<metadata>
Created by potrace 1.16, written by Peter Selinger 2001-2019
</metadata>
<g transform="translate(0.000000,1311.000000) scale(0.100000,-0.100000)"
fill="#000000" stroke="none">
<path d="M13215 11306 c-283 -25 -457 -74 -633 -179 -31 -19 -77 -37 -101 -41
-24 -4 -92 -29 -151 -56 -59 -28 -118 -50 -131 -50 -13 0 -109 42 -214 95
-105 52 -230 107 -280 122 l-90 27 -365 1 c-416 0 -686 -11 -850 -35 -36 -5
-103 -14 -150 -20 -219 -28 -335 -53 -501 -111 -62 -21 -146 -24 -235 -8 -67
12 -252 70 -334 104 -81 34 -201 62 -320 75 -221 24 -1250 -3 -1529 -39 -144
-19 -347 -32 -551 -36 -321 -5 -458 -46 -598 -179 l-53 -49 -127 65 c-129 67
-186 89 -392 152 -122 36 -167 45 -375 72 -112 14 -193 15 -585 9 -449 -6
-694 -20 -880 -51 -219 -35 -462 -82 -595 -115 -366 -91 -635 -204 -953 -402
-155 -97 -170 -109 -278 -226 -138 -150 -164 -188 -263 -389 -134 -270 -149
-308 -201 -534 -41 -176 -76 -400 -86 -543 -10 -139 -10 -520 0 -1210 4 -269
10 -665 13 -880 5 -407 6 -2637 1 -2880 -4 -192 17 -585 42 -765 5 -41 14
-127 20 -190 13 -160 39 -342 62 -440 21 -91 130 -458 165 -554 70 -198 189
-371 390 -570 130 -129 151 -145 245 -194 111 -56 211 -82 399 -102 214 -22
486 -1 814 65 243 49 339 79 580 180 l160 67 92 -4 c86 -4 95 -6 135 -36 116
-88 263 -127 453 -119 222 10 984 30 1125 30 80 0 348 -5 595 -11 1348 -32
1345 -32 1845 -17 703 21 837 43 1033 173 35 24 50 27 113 25 63 -1 91 -9 221
-61 237 -96 369 -126 626 -142 89 -6 189 -15 222 -20 33 -5 200 -10 370 -10
344 0 516 15 584 50 22 11 51 20 64 20 30 0 142 31 232 64 61 22 86 26 195 26
69 0 199 -9 290 -20 91 -12 240 -26 333 -32 170 -12 273 -6 553 34 78 10 83
10 112 -11 73 -52 117 -63 286 -72 88 -4 276 -8 416 -9 270 0 381 12 484 51
55 21 111 24 149 10 68 -26 440 -61 647 -61 168 0 232 10 298 44 47 24 202 31
363 16 104 -9 161 -20 254 -50 66 -21 167 -45 225 -54 130 -20 385 -21 530 -2
242 33 326 70 455 201 144 146 214 322 215 534 1 47 8 172 16 276 8 105 19
422 24 705 5 283 16 724 26 980 12 337 17 721 18 1400 1 514 6 1099 10 1300 6
256 4 428 -4 575 -7 116 -16 323 -20 460 -5 153 -14 281 -24 330 -18 92 -48
185 -70 217 -21 30 -20 70 4 173 25 105 27 334 5 435 -8 36 -14 82 -15 103 0
20 -10 71 -22 112 l-22 75 24 82 c13 46 23 104 22 129 -1 26 5 64 14 85 22 53
20 184 -6 382 -18 138 -20 172 -10 277 20 222 30 305 42 349 16 62 -11 248
-52 355 -51 131 -134 196 -341 265 -130 43 -565 66 -1136 58 -248 -3 -477 0
-626 7 -246 13 -334 9 -562 -26 -126 -19 -221 -12 -364 29 -216 60 -394 89
-676 108 -77 5 -187 14 -245 19 -191 17 -439 20 -595 7z m640 -220 c223 -24
361 -53 492 -104 64 -24 82 -38 165 -129 52 -57 73 -90 97 -152 68 -176 86
-284 101 -590 10 -207 10 -214 -10 -247 -32 -51 -72 -80 -159 -113 -162 -62
-303 -74 -694 -57 -155 7 -200 12 -210 24 -9 11 -11 56 -9 164 2 92 -1 162 -8
183 -14 41 -68 91 -109 100 -47 10 -112 -25 -142 -78 -27 -46 -26 -42 -17
-642 3 -245 9 -269 74 -300 44 -21 75 -19 114 8 62 41 73 74 78 228 3 105 8
142 19 151 12 9 62 8 236 -7 122 -10 285 -20 362 -21 113 -1 160 -6 244 -27
56 -15 110 -32 118 -39 37 -30 76 -142 94 -266 15 -105 16 -149 8 -281 -14
-253 -23 -285 -106 -412 -69 -107 -159 -183 -318 -270 -77 -42 -158 -84 -180
-94 -84 -35 -420 -95 -644 -115 -53 -5 -152 -16 -221 -25 -176 -24 -313 -12
-577 50 -133 32 -186 58 -254 125 -70 69 -117 166 -152 310 -49 201 -56 355
-33 680 8 107 17 330 20 496 5 243 10 322 27 410 11 60 29 163 40 229 27 164
60 258 121 346 69 102 141 188 186 225 60 49 246 172 283 188 47 20 184 45
300 55 155 14 522 12 664 -3z m-2554 -41 c123 -16 152 -23 302 -79 138 -52
159 -67 232 -165 84 -110 122 -189 134 -272 5 -37 14 -76 21 -88 9 -18 21
-188 34 -486 2 -38 7 -223 11 -410 6 -298 4 -373 -14 -605 -12 -146 -28 -363
-36 -483 -29 -432 -44 -505 -115 -572 -17 -16 -63 -69 -101 -117 -78 -97 -132
-141 -240 -194 -165 -82 -291 -115 -358 -93 -82 26 -96 65 -105 279 -6 141
-19 209 -56 285 -54 112 -195 114 -248 3 -22 -43 -40 -180 -62 -448 -10 -133
-25 -211 -50 -260 -10 -19 -29 -73 -43 -120 -15 -47 -43 -109 -63 -138 -74
-110 -269 -295 -459 -436 -154 -114 -474 -259 -537 -243 -41 11 -84 52 -112
109 -24 48 -26 63 -26 177 0 166 37 1006 50 1146 6 61 12 252 15 425 2 173 9
344 15 380 16 106 70 660 70 730 0 36 7 110 15 165 9 55 18 120 21 145 3 25
11 86 19 135 8 50 19 126 25 170 14 97 23 144 61 305 49 206 78 292 109 325
15 17 42 60 59 96 43 88 74 115 211 188 159 83 307 120 610 150 147 14 487 12
611 -4z m-2571 -35 c200 -17 333 -50 411 -103 47 -32 103 -116 140 -211 39
-99 46 -180 57 -611 9 -343 1 -545 -23 -625 -9 -30 -31 -109 -49 -175 -55
-209 -77 -243 -278 -450 -111 -113 -192 -188 -220 -202 -59 -30 -231 -83 -268
-83 -20 0 -42 -11 -66 -33 -45 -41 -41 -66 17 -104 37 -24 50 -26 208 -34 184
-8 183 -8 300 -85 106 -70 118 -82 144 -137 56 -120 71 -238 83 -681 7 -233 5
-279 -27 -641 -25 -287 -76 -557 -128 -677 -33 -78 -181 -231 -357 -368 -187
-145 -209 -159 -278 -175 -61 -14 -106 -2 -125 34 -21 39 11 919 38 1044 17
80 23 240 11 307 -13 76 -96 351 -118 395 -24 48 -111 176 -154 228 -68 81
-119 94 -209 56 -43 -19 -50 -26 -60 -63 -21 -77 -30 -161 -39 -346 -4 -102
-13 -241 -19 -310 -26 -298 -33 -464 -41 -945 -9 -540 -9 -544 -66 -780 -45
-187 -157 -500 -231 -650 -135 -269 -415 -630 -661 -852 -114 -103 -172 -137
-245 -147 -109 -15 -170 32 -202 155 -20 80 -21 28 12 1434 9 380 17 940 18
1245 3 780 19 1477 34 1515 8 19 14 99 16 215 2 102 9 230 15 285 7 55 13 219
15 365 2 254 17 600 29 685 4 22 11 130 16 240 18 359 45 681 66 791 17 94 47
189 66 212 20 23 109 87 153 109 113 58 365 115 585 133 104 9 300 27 530 50
110 11 738 4 900 -10z m8005 -24 c142 -16 350 -48 460 -72 117 -26 270 -90
303 -128 37 -42 78 -127 92 -192 14 -61 -3 -187 -31 -234 -24 -39 -96 -73
-204 -95 -101 -21 -359 -44 -490 -45 -147 0 -418 21 -431 34 -6 6 -16 40 -22
76 -15 85 -52 125 -116 125 -48 0 -77 -19 -104 -70 -13 -25 -16 -65 -17 -225
0 -171 2 -199 18 -223 42 -65 118 -79 167 -32 25 24 43 70 52 130 3 20 12 20
363 22 410 2 476 -5 577 -59 155 -82 223 -217 203 -405 -6 -62 -11 -71 -46
-105 -21 -20 -66 -50 -101 -66 -54 -26 -80 -31 -178 -38 -63 -4 -137 -7 -165
-7 -458 5 -636 11 -648 22 -8 6 -17 30 -20 53 -17 126 -147 143 -204 28 -30
-59 -62 -394 -43 -440 32 -78 105 -97 178 -46 44 30 82 95 82 138 0 52 3 52
411 56 431 5 427 6 552 -70 168 -101 208 -167 187 -307 -18 -128 -90 -229
-201 -286 -61 -31 -272 -94 -374 -111 -44 -8 -136 -14 -205 -14 -69 0 -173 -4
-232 -10 -60 -5 -156 -14 -215 -20 -142 -13 -636 3 -758 25 -266 47 -424 109
-534 211 -64 59 -130 182 -138 257 -3 24 3 150 12 282 11 150 17 345 17 520
-1 336 10 500 44 671 31 159 49 222 84 299 44 99 163 205 311 278 68 33 89 38
218 52 79 8 193 15 255 16 61 0 134 4 161 9 89 13 590 11 730 -4z m-11640 -24
c176 -22 362 -80 504 -160 72 -41 93 -59 156 -137 132 -166 198 -259 230 -330
73 -158 155 -441 176 -613 28 -219 20 -1041 -11 -1147 -95 -325 -188 -558
-263 -656 -78 -102 -336 -287 -539 -387 -311 -154 -546 -202 -750 -156 -149
34 -200 76 -276 225 -54 105 -60 127 -82 304 -20 152 -116 433 -174 510 -14
17 -57 49 -97 70 -130 68 -234 58 -381 -37 -114 -74 -169 -140 -241 -289 -133
-272 -184 -583 -192 -1159 -1 -91 -5 -370 -10 -620 -8 -492 5 -1094 30 -1325
7 -71 17 -166 20 -210 16 -204 76 -479 133 -613 16 -37 35 -83 42 -102 32 -84
167 -248 232 -281 51 -26 237 -28 318 -4 168 52 346 195 485 390 129 182 168
300 168 520 0 176 -18 227 -105 307 -82 76 -106 83 -222 69 -50 -6 -111 -13
-136 -15 -25 -2 -88 -16 -140 -31 -79 -22 -109 -25 -175 -21 -44 2 -93 9 -108
15 -49 19 -123 97 -152 162 -61 137 -68 175 -73 429 -5 258 2 328 49 525 34
142 81 241 175 367 36 49 95 115 132 148 110 98 299 235 394 285 81 43 301
125 334 125 8 0 63 11 122 26 59 14 130 30 157 35 28 6 68 15 89 21 65 17 241
25 347 17 128 -10 296 -63 390 -124 68 -44 239 -226 285 -303 26 -43 114 -269
134 -342 30 -111 41 -186 50 -335 5 -88 11 -169 14 -180 3 -11 10 -108 17
-217 15 -238 11 -306 -65 -1123 -26 -281 -93 -674 -155 -915 -155 -606 -240
-777 -558 -1123 -193 -210 -242 -249 -500 -397 -201 -116 -335 -181 -548 -268
-93 -39 -280 -116 -415 -172 -297 -123 -422 -157 -670 -180 -125 -12 -208 -7
-485 30 -187 24 -212 34 -372 147 -250 178 -399 368 -508 653 -57 147 -122
419 -145 600 -5 47 -17 139 -25 205 -78 622 -90 918 -80 2055 5 498 9 1096 9
1330 0 474 -19 1375 -34 1575 -28 365 21 962 107 1300 91 363 153 493 364 766
151 195 264 286 504 407 196 98 435 175 695 222 36 6 85 15 110 20 25 5 65 12
90 15 25 3 68 10 95 15 28 5 91 14 140 20 50 6 117 15 150 20 33 5 132 16 220
25 88 8 196 19 240 24 107 12 667 7 780 -7z m11063 -2832 c190 -39 344 -123
395 -218 62 -114 60 -93 61 -837 l1 -680 22 -36 c50 -79 146 -79 196 0 21 34
22 49 25 261 2 124 -1 275 -7 335 -6 61 -12 299 -13 530 -2 404 -1 422 18 465
31 68 86 111 191 149 84 30 99 33 185 29 125 -6 193 -33 269 -107 55 -54 58
-60 99 -189 22 -73 45 -167 50 -210 34 -278 40 -684 20 -1337 -6 -203 -8 -444
-5 -535 11 -348 14 -988 5 -1275 -28 -875 -28 -874 -65 -1145 -25 -179 -34
-271 -45 -470 -11 -212 -31 -434 -59 -665 -38 -313 -139 -554 -274 -653 -88
-65 -98 -67 -342 -67 -212 1 -223 2 -315 29 -102 31 -180 63 -180 76 0 4 -23
38 -51 76 -70 95 -205 315 -235 383 -93 208 -170 467 -210 706 -11 66 -30 132
-83 291 -28 82 -55 172 -61 200 -5 27 -16 76 -24 109 -7 33 -23 103 -35 155
-29 122 -70 345 -81 435 -5 39 -18 144 -30 235 -36 286 -44 985 -14 1267 11
106 -29 173 -103 173 -114 0 -155 -111 -169 -459 -7 -175 16 -581 40 -696 8
-39 19 -106 25 -150 6 -44 17 -123 26 -175 8 -52 22 -144 31 -205 24 -168 91
-493 115 -555 27 -71 102 -357 239 -910 53 -214 52 -368 -5 -645 -38 -185 -41
-193 -83 -214 -51 -25 -101 -31 -287 -32 -187 -1 -310 21 -412 72 -75 38 -156
120 -173 175 -7 21 -16 125 -20 229 -5 105 -11 210 -14 235 -23 179 -39 431
-41 635 -2 132 -8 287 -14 345 -5 58 -15 242 -20 410 -6 168 -15 341 -21 385
-14 109 -14 2716 0 2920 23 338 56 551 100 640 82 167 214 301 375 380 246
121 744 188 1003 135z m-2164 -361 c89 -22 180 -115 257 -262 56 -109 86 -202
109 -342 11 -66 27 -151 35 -190 22 -97 41 -996 34 -1520 -1 -38 0 -200 1
-360 0 -159 -2 -414 -6 -565 -6 -266 3 -501 26 -695 10 -79 22 -278 35 -565
10 -223 -11 -1091 -30 -1235 -43 -323 -92 -420 -219 -439 -61 -9 -235 10 -321
35 -144 43 -173 67 -232 189 -24 50 -25 61 -19 140 14 184 26 310 41 420 9 63
22 207 31 320 8 113 19 264 24 335 12 161 12 446 1 583 -10 114 -23 144 -76
169 -30 14 -38 15 -72 2 -23 -9 -45 -27 -58 -49 -19 -33 -20 -57 -26 -390 -8
-453 -24 -807 -43 -985 -9 -77 -20 -185 -25 -240 -12 -118 -37 -284 -52 -338
-8 -30 -18 -42 -43 -52 -19 -8 -48 -26 -65 -40 -35 -30 -127 -65 -170 -65 -15
0 -45 -7 -64 -15 -41 -17 -176 -20 -275 -5 -80 11 -120 40 -177 129 -53 83
-88 172 -112 281 -27 129 -24 724 5 965 12 94 26 233 32 310 9 120 19 223 44
445 3 25 16 131 31 235 14 105 30 231 35 280 6 50 14 128 20 175 5 47 17 171
26 275 9 105 20 224 25 265 4 41 12 156 18 255 5 99 14 245 20 325 30 379 53
640 62 690 5 30 20 144 34 253 14 108 30 218 35 243 6 25 15 79 21 121 6 42
23 114 38 162 16 47 34 111 41 141 35 150 133 340 224 438 71 77 297 159 474
171 163 12 259 12 306 0z m-1735 -320 c36 -11 50 -22 76 -64 75 -117 116 -259
135 -470 13 -128 5 -900 -9 -985 -5 -30 -12 -111 -15 -180 -8 -164 -23 -377
-41 -575 -22 -250 -36 -475 -40 -665 -3 -168 -15 -339 -34 -500 -5 -41 -19
-156 -31 -255 -12 -99 -25 -198 -30 -220 -5 -22 -14 -103 -19 -180 -10 -122
-28 -261 -61 -465 -25 -155 -55 -386 -84 -645 -19 -164 -41 -267 -68 -325 -34
-71 -130 -158 -238 -217 -88 -47 -393 -158 -508 -184 -57 -12 -529 -12 -699 0
-167 13 -369 54 -450 91 -81 37 -113 69 -113 113 0 18 -16 80 -35 138 -20 57
-42 147 -50 199 -7 52 -18 115 -24 140 -6 25 -11 68 -11 96 0 29 -7 86 -15
127 -32 151 -2 1268 46 1747 6 58 15 186 20 285 15 314 28 526 34 535 3 5 7
152 10 327 4 346 19 656 36 743 41 214 121 329 379 550 111 95 196 149 374
240 136 69 151 75 220 78 90 5 124 -10 160 -71 37 -65 44 -130 29 -302 -7 -82
-15 -161 -19 -175 -6 -24 -10 -77 -33 -390 -6 -80 -18 -215 -26 -300 -9 -85
-20 -216 -25 -290 -6 -74 -15 -187 -20 -250 -15 -165 -26 -305 -44 -550 -9
-118 -21 -273 -27 -345 -20 -239 -22 -296 -10 -351 27 -118 145 -143 198 -41
13 26 18 79 25 262 8 241 23 482 39 625 5 47 16 164 24 260 8 96 21 261 29
365 9 105 20 321 26 480 14 372 30 593 60 815 6 41 14 116 19 165 17 186 122
366 276 477 140 100 225 132 396 147 101 9 102 9 168 -10z m-2596 -1513 c48
-19 71 -72 81 -178 4 -42 14 -101 23 -130 16 -56 15 -118 -7 -438 -5 -74 -9
-231 -10 -348 0 -218 -13 -460 -30 -567 -16 -100 -39 -428 -45 -640 -4 -110
-13 -266 -21 -348 -8 -83 -14 -253 -14 -390 0 -133 -5 -354 -11 -492 -10 -234
-12 -255 -39 -333 -36 -103 -136 -257 -219 -335 -67 -64 -149 -106 -257 -133
-38 -9 -94 -28 -124 -42 -63 -28 -143 -35 -585 -52 -143 -5 -366 -15 -495 -20
-415 -19 -2075 4 -2230 30 -30 5 -143 14 -250 19 -324 18 -354 20 -436 36
-114 23 -124 28 -124 68 0 67 88 280 144 350 17 21 87 81 156 134 69 53 152
120 185 148 142 122 619 446 820 557 55 31 214 119 354 198 233 130 379 200
416 200 40 0 43 -93 14 -435 -6 -77 -9 -201 -7 -275 4 -121 7 -141 32 -192 35
-75 127 -160 190 -178 59 -16 161 -8 219 18 53 25 102 73 132 132 22 44 89
281 105 370 71 414 101 768 72 867 -15 51 -68 99 -119 109 -20 4 -92 4 -159 1
-140 -7 -144 -6 -152 71 -11 118 93 314 350 663 195 263 671 740 1003 1004
150 120 316 238 427 307 55 33 106 71 114 83 15 23 218 133 307 166 59 22 131
20 190 -5z"/>
<path d="M10781 10258 c-62 -41 -72 -71 -83 -241 -6 -87 -7 -218 -2 -307 4
-85 8 -193 9 -240 3 -133 42 -190 131 -193 61 -2 125 65 142 151 6 27 9 196 7
394 -2 319 -4 349 -21 379 -43 73 -123 98 -183 57z"/>
<path d="M7703 10366 l-37 -34 -7 -123 c-4 -68 -13 -182 -18 -254 -20 -244
-25 -418 -12 -456 26 -79 112 -120 178 -85 61 31 86 83 118 246 12 62 14 125
8 357 -9 313 -8 310 -83 361 -50 34 -102 30 -147 -12z"/>
<path d="M13660 6862 c-33 -33 -60 -138 -60 -234 0 -35 -10 -133 -21 -218 -27
-196 -50 -640 -65 -1260 -8 -317 -6 -328 44 -373 46 -41 131 -16 157 47 13 30
25 293 40 846 7 298 23 573 40 700 21 157 33 383 24 435 -15 81 -102 113 -159
57z"/>
</g>
</svg>
